<svg id="svg" version="1.1" xmlns="http://www.w3.org/2000/svg" xmlns:xlink="http://www.w3.org/1999/xlink" width="400" height="400" viewBox="0, 0, 400,400"><g id="svgg"><path id="path0" d="M187.333 0.200 C 186.692 0.270,184.217 0.488,181.833 0.684 C 67.902 10.028,-15.253 116.494,2.205 230.667 C 19.543 344.048,128.724 419.296,241.786 395.785 C 344.980 374.326,413.854 274.354,397.795 169.333 C 384.038 79.372,311.737 10.775,220.167 0.807 C 215.477 0.296,190.623 -0.163,187.333 0.200 M221.000 58.337 C 277.619 63.898,330.081 108.912,344.318 164.146 C 345.887 170.235,343.783 174.064,338.842 174.110 C 334.880 174.147,334.180 173.062,330.488 161.167 C 317.353 118.846,280.508 84.432,236.500 73.380 C 173.627 57.589,108.601 88.956,81.560 148.120 C 78.754 154.258,74.670 165.447,75.084 165.861 C 75.133 165.911,78.697 162.281,83.004 157.795 C 93.398 146.967,94.586 146.079,98.060 146.539 C 101.190 146.955,102.667 148.680,102.667 151.924 C 102.667 154.706,102.044 155.473,87.156 171.000 C 67.345 191.663,66.774 192.127,62.670 190.915 C 60.644 190.316,58.207 186.300,45.935 163.333 C 35.788 144.344,35.074 142.126,38.215 139.361 C 43.239 134.938,45.214 136.696,54.663 154.000 C 60.469 164.633,61.719 166.751,62.002 166.440 C 62.139 166.290,63.186 163.317,64.329 159.833 C 81.898 106.300,125.316 68.289,179.333 59.153 C 188.002 57.687,209.999 57.256,221.000 58.337 M208.009 115.012 C 229.212 117.604,242.208 134.521,243.531 161.250 L 243.765 165.974 245.132 166.139 C 245.885 166.230,248.225 166.390,250.333 166.496 C 259.005 166.929,262.688 168.700,266.270 174.160 C 268.963 178.264,268.978 178.533,268.990 222.754 L 269.000 261.340 267.175 264.291 C 265.031 267.757,261.995 270.739,259.155 272.167 L 257.167 273.167 202.833 273.167 C 145.802 273.167,146.326 273.179,143.500 271.752 C 140.342 270.158,136.095 265.072,135.281 261.909 C 134.918 260.496,134.833 252.466,134.833 219.483 L 134.833 178.799 136.134 176.166 C 137.804 172.788,141.015 169.527,144.233 167.942 L 146.485 166.833 153.192 166.717 L 159.898 166.600 160.121 160.932 C 161.397 128.489,179.132 111.482,208.009 115.012 M196.667 126.996 C 180.278 128.596,171.667 140.354,171.667 161.132 C 171.667 165.998,168.482 165.484,199.285 165.594 C 234.880 165.721,232.641 166.269,231.667 157.667 C 229.039 134.459,218.131 124.901,196.667 126.996 M340.167 205.965 C 342.622 207.102,343.529 208.522,348.530 219.070 C 356.823 236.558,363.333 252.094,363.333 254.394 C 363.333 259.022,357.036 261.144,353.779 257.615 C 352.685 256.430,349.759 250.691,345.861 242.084 C 343.930 237.821,342.101 233.852,341.797 233.262 L 341.243 232.191 338.353 240.679 C 324.538 281.251,299.565 310.237,263.125 327.994 C 229.987 344.143,189.245 346.964,154.265 335.533 C 111.227 321.469,78.145 289.297,61.684 245.500 C 56.970 232.959,57.092 228.087,62.168 226.149 C 66.714 224.412,68.887 226.827,71.943 237.006 C 86.249 284.668,128.605 321.101,178.833 328.950 C 242.706 338.931,304.868 301.427,325.990 240.167 C 327.549 235.645,329.734 228.290,329.568 228.124 C 329.433 227.988,324.744 232.041,318.333 237.836 C 307.155 247.939,305.722 249.000,303.255 249.000 C 299.119 249.000,296.165 244.959,297.661 241.347 C 298.289 239.831,309.645 229.119,327.000 213.673 C 337.285 204.518,337.178 204.581,340.167 205.965 " stroke="none" fill="#c3ecfd" fill-rule="evenodd"></path><path id="path1" d="M188.500 57.998 C 166.510 59.545,139.665 69.598,120.033 83.639 C 92.932 103.021,74.863 127.736,64.329 159.833 C 63.186 163.317,62.139 166.290,62.002 166.440 C 61.719 166.751,60.469 164.633,54.663 154.000 C 45.214 136.696,43.239 134.938,38.215 139.361 C 35.074 142.126,35.788 144.344,45.935 163.333 C 58.207 186.300,60.644 190.316,62.670 190.915 C 66.774 192.127,67.345 191.663,87.156 171.000 C 102.044 155.473,102.667 154.706,102.667 151.924 C 102.667 148.680,101.190 146.955,98.060 146.539 C 94.586 146.079,93.398 146.967,83.004 157.795 C 78.697 162.281,75.133 165.911,75.084 165.861 C 74.670 165.447,78.754 154.258,81.560 148.120 C 108.601 88.956,173.627 57.589,236.500 73.380 C 280.508 84.432,317.353 118.846,330.488 161.167 C 334.180 173.062,334.880 174.147,338.842 174.110 C 343.783 174.064,345.887 170.235,344.318 164.146 C 336.265 132.904,314.838 102.744,286.994 83.459 C 258.362 63.629,226.292 55.339,188.500 57.998 " stroke="none" fill="#ff7081" fill-rule="evenodd"></path><path id="path2" d="M336.500 205.655 C 334.137 206.647,298.588 239.308,297.789 241.222 C 296.262 244.876,299.050 249.000,303.049 249.000 C 305.607 249.000,306.706 248.216,316.667 239.280 C 324.867 231.923,329.424 227.979,329.563 228.119 C 329.619 228.175,329.224 229.784,328.685 231.694 C 305.767 312.856,217.364 353.378,141.647 317.429 C 108.617 301.747,82.086 271.212,71.989 237.256 C 68.872 226.774,66.686 224.331,62.078 226.174 C 55.603 228.765,57.652 239.295,69.083 262.167 C 105.027 334.085,192.726 363.182,264.798 327.102 C 300.941 309.008,325.754 279.365,339.195 238.223 C 340.819 233.252,341.202 232.370,341.539 232.830 C 341.760 233.133,343.098 235.957,344.512 239.107 C 353.502 259.132,355.358 261.375,360.693 258.653 C 364.730 256.594,364.419 254.783,357.186 238.221 C 344.140 208.350,341.180 203.691,336.500 205.655 " stroke="none" fill="#6f9e00" fill-rule="evenodd"></path><path id="path3" d="M194.833 115.053 C 173.453 117.452,161.194 133.656,160.121 160.932 L 159.898 166.600 153.192 166.717 L 146.485 166.833 144.233 167.942 C 141.015 169.527,137.804 172.788,136.134 176.166 L 134.833 178.799 134.833 219.483 C 134.833 252.466,134.918 260.496,135.281 261.909 C 136.095 265.072,140.342 270.158,143.500 271.752 C 146.326 273.179,145.802 273.167,202.833 273.167 L 257.167 273.167 259.155 272.167 C 261.995 270.739,265.031 267.757,267.175 264.291 L 269.000 261.340 268.990 222.754 C 268.978 178.533,268.963 178.264,266.270 174.160 C 262.688 168.700,259.005 166.929,250.333 166.496 C 248.225 166.390,245.885 166.230,245.132 166.139 L 243.765 165.974 243.531 161.250 C 241.936 129.025,223.783 111.804,194.833 115.053 M209.803 127.549 C 222.845 130.007,229.586 139.293,231.667 157.667 C 232.376 163.927,232.012 164.686,228.000 165.319 C 224.095 165.936,173.309 165.779,172.408 165.148 C 171.040 164.190,171.617 154.636,173.523 146.667 C 177.193 131.327,191.064 124.017,209.803 127.549 M253.972 178.959 C 257.203 179.588,257.076 177.944,257.126 219.833 C 257.170 256.962,257.105 258.834,255.719 260.380 C 254.356 261.901,251.594 261.985,203.167 261.979 C 155.385 261.974,149.825 261.840,147.683 260.636 L 146.333 259.877 146.352 226.022 C 146.363 207.402,146.495 189.489,146.646 186.216 C 147.003 178.459,146.516 178.979,153.726 178.654 C 162.240 178.269,251.832 178.542,253.972 178.959 M198.245 195.029 C 193.128 196.235,188.582 201.790,187.974 207.580 C 187.210 214.857,187.811 228.377,189.008 230.849 C 193.662 240.463,207.245 241.903,213.114 233.404 C 215.698 229.664,216.329 206.645,213.982 201.795 C 211.587 196.848,204.131 193.643,198.245 195.029 M203.007 207.013 C 203.366 207.684,203.574 211.136,203.834 220.750 L 204.012 227.333 201.500 227.333 L 198.988 227.333 199.166 220.750 C 199.403 211.991,199.621 207.840,199.880 207.166 C 200.333 205.985,202.402 205.883,203.007 207.013 " stroke="none" fill="#454a57" fill-rule="evenodd"></path><path id="path4" d="M153.726 178.654 C 146.516 178.979,147.003 178.459,146.646 186.216 C 146.495 189.489,146.363 207.402,146.352 226.022 L 146.333 259.877 147.683 260.636 C 149.825 261.840,155.385 261.974,203.167 261.979 C 251.594 261.985,254.356 261.901,255.719 260.380 C 257.105 258.834,257.170 256.962,257.126 219.833 C 257.076 177.944,257.203 179.588,253.972 178.959 C 251.832 178.542,162.240 178.269,153.726 178.654 M204.347 195.003 C 208.258 195.744,212.500 198.735,213.982 201.795 C 216.329 206.645,215.698 229.664,213.114 233.404 C 205.739 244.084,188.997 238.970,187.975 225.725 C 187.174 215.345,187.731 206.040,189.349 202.746 C 192.341 196.659,197.912 193.782,204.347 195.003 " stroke="none" fill="#666e7f" fill-rule="evenodd"></path><path id="path5" d="M200.784 206.355 C 199.603 206.792,199.525 207.488,199.166 220.750 L 198.988 227.333 201.500 227.333 L 204.012 227.333 203.834 220.750 C 203.437 206.080,203.298 205.425,200.784 206.355 " stroke="none" fill="#2f323b" fill-rule="evenodd"></path></g></svg>