<svg id="svg" version="1.1" xmlns="http://www.w3.org/2000/svg" xmlns:xlink="http://www.w3.org/1999/xlink" width="400" height="400.36036036036035" viewBox="0, 0, 400,400.36036036036035"><g id="svgg"><path id="path0" d="M283.784 55.100 C 281.859 55.612,280.204 56.478,279.099 57.550 C 277.349 59.247,276.438 60.460,276.696 60.747 C 276.828 60.895,276.661 60.917,276.325 60.796 C 275.921 60.652,275.772 60.732,275.887 61.032 C 276.193 61.829,270.872 65.857,267.861 67.107 C 260.081 70.338,257.814 70.733,246.442 70.842 C 236.648 70.935,235.664 71.102,233.446 73.050 C 233.112 73.344,232.641 73.462,232.399 73.313 C 232.114 73.136,232.054 73.192,232.228 73.474 C 232.561 74.013,231.764 75.030,231.255 74.715 C 231.032 74.577,230.988 74.659,231.147 74.915 C 231.293 75.153,231.181 75.705,230.897 76.142 C 229.651 78.058,229.461 80.380,230.240 84.174 C 231.300 89.334,233.964 100.721,235.698 107.501 C 235.892 108.256,235.941 109.052,235.807 109.268 C 235.674 109.484,235.715 109.568,235.900 109.453 C 236.085 109.339,236.905 111.828,237.723 114.983 L 239.211 120.721 200.159 120.721 C 162.917 120.721,161.090 120.691,160.759 120.072 C 160.208 119.043,157.843 112.657,157.840 112.191 C 157.837 111.685,161.270 110.482,161.794 110.806 C 161.996 110.931,162.162 110.862,162.162 110.652 C 162.162 110.442,162.386 110.270,162.659 110.270 C 163.392 110.270,169.284 108.312,171.270 107.408 C 176.004 105.254,177.379 100.788,173.874 98.953 C 171.621 97.773,114.161 97.763,112.549 98.942 C 108.644 101.798,109.214 117.120,113.389 121.544 C 116.257 124.582,120.223 124.276,131.009 120.185 C 133.972 119.061,136.731 118.060,137.139 117.961 C 137.913 117.772,137.951 117.836,139.824 122.523 C 140.181 123.414,140.910 125.198,141.445 126.486 C 141.980 127.775,142.509 129.058,142.621 129.338 C 142.733 129.619,142.676 129.756,142.494 129.643 C 142.311 129.531,142.138 129.788,142.108 130.215 C 142.030 131.331,136.877 141.988,136.522 141.768 C 136.358 141.667,136.309 141.804,136.412 142.072 C 136.515 142.341,135.328 145.228,133.774 148.488 C 132.221 151.747,130.569 155.260,130.104 156.293 C 129.639 157.327,129.096 158.072,128.898 157.949 C 128.694 157.823,128.649 157.908,128.795 158.144 C 128.937 158.374,128.741 159.169,128.359 159.911 C 127.977 160.654,127.333 161.991,126.928 162.883 C 124.814 167.538,124.052 168.977,123.820 168.745 C 123.680 168.605,123.683 168.796,123.826 169.169 C 124.021 169.678,123.967 169.774,123.609 169.553 C 123.309 169.368,123.218 169.398,123.365 169.635 C 123.687 170.157,119.605 178.760,119.164 178.487 C 118.968 178.366,118.915 178.442,119.047 178.655 C 119.309 179.079,118.287 181.390,112.000 194.595 C 111.009 196.676,109.584 199.676,108.833 201.261 C 108.082 202.847,106.850 205.441,106.096 207.027 C 105.342 208.613,104.702 209.991,104.674 210.090 C 104.437 210.925,104.014 211.493,103.750 211.331 C 103.575 211.222,103.517 211.355,103.621 211.626 C 103.724 211.897,102.374 215.108,100.620 218.762 C 98.866 222.416,97.204 225.921,96.927 226.551 C 96.650 227.180,96.271 227.601,96.084 227.486 C 95.897 227.370,95.850 227.447,95.980 227.657 C 96.213 228.034,94.653 231.829,94.377 231.555 C 93.534 230.719,93.849 238.305,94.727 239.990 C 95.157 240.814,95.399 241.681,95.264 241.916 C 95.130 242.150,95.148 242.226,95.306 242.084 C 95.463 241.942,96.292 242.442,97.147 243.194 C 100.259 245.933,96.866 245.767,149.321 245.757 C 201.028 245.747,198.883 245.838,201.307 243.560 C 201.775 243.121,202.293 242.921,202.552 243.081 C 202.838 243.258,202.902 243.205,202.733 242.931 C 202.438 242.454,204.110 240.266,204.483 240.640 C 204.615 240.771,204.616 240.600,204.485 240.259 C 204.348 239.903,204.417 239.640,204.646 239.640 C 204.866 239.640,205.048 239.437,205.053 239.189 C 205.057 238.941,205.746 237.704,206.584 236.439 C 207.422 235.174,208.270 233.876,208.468 233.555 C 210.756 229.845,215.664 223.125,215.954 223.304 C 216.167 223.436,216.220 223.360,216.077 223.129 C 215.857 222.773,219.252 217.297,219.693 217.297 C 219.786 217.297,219.748 217.500,219.608 217.748 C 219.408 218.102,219.454 218.105,219.826 217.761 C 220.086 217.520,220.328 217.033,220.363 216.679 C 220.441 215.894,221.698 213.699,222.072 213.696 C 222.221 213.695,222.342 213.535,222.342 213.340 C 222.342 212.431,228.250 204.226,228.630 204.606 C 228.772 204.748,228.843 204.703,228.787 204.505 C 228.631 203.949,229.197 202.523,229.574 202.523 C 229.759 202.523,229.910 202.279,229.910 201.982 C 229.910 201.685,230.072 201.441,230.270 201.441 C 230.468 201.441,230.631 201.223,230.631 200.957 C 230.631 200.690,230.955 200.179,231.351 199.820 C 231.748 199.461,232.072 198.959,232.072 198.704 C 232.072 198.449,232.259 198.125,232.488 197.984 C 232.768 197.811,232.808 197.892,232.611 198.233 C 232.439 198.527,232.452 198.615,232.640 198.443 C 232.818 198.280,232.966 197.875,232.968 197.542 C 232.971 197.209,233.188 196.981,233.450 197.036 C 233.713 197.090,233.835 196.986,233.723 196.804 C 233.418 196.311,236.391 192.026,236.844 192.306 C 237.058 192.439,237.124 192.375,236.993 192.162 C 236.668 191.637,242.494 183.003,242.974 183.299 C 243.187 183.431,243.249 183.365,243.115 183.148 C 242.856 182.728,244.957 179.099,245.459 179.099 C 245.628 179.099,245.766 178.946,245.766 178.758 C 245.766 178.135,250.502 171.350,250.866 171.450 C 251.063 171.505,251.111 171.365,250.972 171.140 C 250.832 170.915,250.866 170.627,251.047 170.500 C 251.227 170.374,251.918 169.413,252.581 168.365 C 253.244 167.317,253.823 166.506,253.867 166.563 C 253.911 166.620,254.639 168.532,255.485 170.811 C 256.331 173.090,257.819 176.869,258.792 179.207 C 259.765 181.546,260.449 183.654,260.313 183.892 C 260.176 184.130,260.196 184.205,260.357 184.060 C 260.518 183.914,261.213 185.131,261.903 186.763 C 262.592 188.395,263.784 191.064,264.551 192.695 C 265.318 194.327,265.946 195.747,265.946 195.852 C 265.946 196.063,271.138 206.964,271.782 208.105 C 273.489 211.130,274.963 214.471,274.745 214.823 C 274.588 215.077,274.638 215.151,274.872 215.006 C 275.105 214.862,275.778 215.799,276.547 217.337 C 277.255 218.751,278.170 220.452,278.582 221.118 C 278.993 221.784,279.225 222.498,279.098 222.705 C 278.970 222.912,279.080 223.036,279.343 222.982 C 279.613 222.926,279.796 223.166,279.766 223.538 C 279.736 223.898,279.799 224.105,279.906 223.998 C 280.106 223.798,281.666 226.345,282.039 227.477 C 282.153 227.824,282.407 228.108,282.603 228.108 C 282.799 228.108,282.853 228.387,282.722 228.728 C 282.591 229.069,282.598 229.234,282.737 229.095 C 283.003 228.829,287.433 236.021,287.290 236.486 C 287.244 236.635,287.354 236.757,287.533 236.757 C 287.712 236.757,288.364 237.651,288.981 238.745 C 292.978 245.826,301.078 247.725,305.932 242.718 C 306.597 242.031,307.303 241.569,307.500 241.691 C 307.698 241.813,307.752 241.741,307.622 241.530 C 307.492 241.319,307.710 240.388,308.107 239.462 C 309.254 236.786,308.837 231.123,307.404 229.910 C 307.183 229.723,304.237 225.207,303.604 224.085 C 303.405 223.734,302.565 222.303,301.736 220.906 C 300.906 219.509,300.420 218.463,300.654 218.583 C 300.889 218.703,300.733 218.503,300.307 218.139 C 299.186 217.180,297.191 213.443,297.507 212.894 C 297.653 212.640,297.640 212.553,297.476 212.701 C 297.313 212.849,296.910 212.525,296.581 211.981 C 294.908 209.213,289.972 199.560,286.401 192.072 C 285.787 190.784,285.059 189.283,284.783 188.738 C 284.508 188.193,284.399 187.544,284.541 187.297 C 284.684 187.049,284.665 186.969,284.500 187.119 C 284.257 187.340,281.956 182.780,281.636 181.441 C 281.589 181.243,281.107 180.108,280.566 178.919 C 279.367 176.284,279.474 176.537,276.782 169.969 C 275.576 167.029,274.673 164.489,274.775 164.324 C 274.876 164.160,274.815 163.971,274.639 163.905 C 274.169 163.727,267.027 143.879,267.027 142.749 C 267.027 142.372,266.063 138.934,264.885 135.109 C 263.706 131.285,262.840 127.998,262.958 127.806 C 263.077 127.614,263.012 127.557,262.813 127.680 C 262.042 128.156,259.082 118.053,255.707 103.423 C 254.528 98.315,253.217 92.379,253.054 91.408 L 252.881 90.383 255.179 90.627 C 256.715 90.789,258.598 90.675,260.855 90.281 C 268.066 89.024,271.410 87.961,277.995 84.832 C 279.370 84.179,280.652 83.741,280.844 83.860 C 281.035 83.978,281.087 83.905,280.958 83.696 C 280.828 83.485,281.563 82.790,282.614 82.131 C 287.473 79.085,292.646 73.762,294.803 69.589 C 295.607 68.035,296.351 62.829,295.818 62.499 C 295.684 62.417,295.474 61.946,295.351 61.454 C 294.299 57.266,288.211 53.921,283.784 55.100 M245.424 141.850 C 245.836 142.934,244.968 144.722,244.247 144.277 C 243.983 144.113,243.920 144.232,244.068 144.615 C 244.192 144.939,244.098 145.412,243.859 145.665 C 243.345 146.209,237.952 154.189,237.000 155.814 C 236.638 156.432,236.135 157.099,235.883 157.297 C 235.630 157.495,235.359 157.820,235.280 158.018 C 235.200 158.216,235.001 158.334,234.838 158.279 C 234.675 158.225,234.637 158.335,234.753 158.524 C 234.984 158.897,233.213 161.760,231.800 163.300 C 231.316 163.826,230.896 164.394,230.866 164.561 C 230.836 164.728,230.677 164.820,230.514 164.766 C 230.350 164.711,230.315 164.827,230.436 165.022 C 230.707 165.461,228.534 168.506,228.047 168.369 C 227.853 168.315,227.797 168.436,227.922 168.639 C 228.200 169.089,225.425 173.052,225.076 172.703 C 224.939 172.566,224.920 172.698,225.035 172.997 C 225.149 173.295,224.955 173.866,224.603 174.267 C 224.252 174.667,223.802 175.258,223.604 175.581 C 221.140 179.593,217.556 184.484,217.229 184.282 C 216.981 184.129,216.926 184.196,217.087 184.455 C 217.405 184.971,215.925 187.473,215.469 187.191 C 215.290 187.080,215.228 187.211,215.332 187.481 C 215.436 187.752,215.191 188.272,214.787 188.637 C 214.384 189.002,214.054 189.440,214.054 189.609 C 214.054 190.302,211.080 194.221,210.723 194.000 C 210.499 193.861,210.444 193.933,210.592 194.171 C 210.938 194.732,210.149 196.115,209.656 195.810 C 209.413 195.660,209.360 195.730,209.520 195.988 C 209.666 196.225,209.374 196.895,208.855 197.513 C 208.345 198.118,207.928 198.773,207.928 198.968 C 207.928 199.163,207.793 199.238,207.628 199.136 C 207.462 199.034,207.327 199.151,207.327 199.396 C 207.327 200.059,206.091 201.823,205.767 201.622 C 205.613 201.527,205.509 201.731,205.536 202.076 C 205.564 202.423,205.372 202.658,205.108 202.604 C 204.846 202.549,204.728 202.662,204.847 202.854 C 205.124 203.302,200.441 210.303,199.952 210.171 C 199.751 210.117,199.674 210.214,199.781 210.387 C 199.888 210.560,199.469 211.391,198.850 212.232 L 197.725 213.763 196.487 210.575 C 194.408 205.224,188.457 190.212,187.580 188.108 C 185.756 183.733,184.823 180.900,185.073 180.495 C 185.228 180.244,185.183 180.164,184.962 180.300 C 184.757 180.427,184.420 180.087,184.215 179.545 C 184.010 179.002,183.344 177.285,182.734 175.727 C 182.125 174.170,181.732 172.726,181.860 172.519 C 181.988 172.311,181.923 172.246,181.716 172.374 C 181.385 172.579,180.799 171.315,180.741 170.270 C 180.730 170.072,180.505 169.683,180.242 169.406 C 179.979 169.128,179.847 168.585,179.948 168.199 C 180.049 167.812,180.035 167.593,179.917 167.711 C 179.700 167.928,178.378 165.265,178.378 164.610 C 178.378 164.414,178.142 163.742,177.853 163.118 C 176.002 159.118,172.988 151.111,173.163 150.656 C 173.277 150.357,173.252 150.231,173.106 150.377 C 172.720 150.764,171.880 148.559,172.148 147.861 C 172.290 147.489,172.231 147.358,171.988 147.508 C 171.534 147.789,170.706 145.686,171.051 145.128 C 171.185 144.911,171.108 144.861,170.866 145.011 C 170.512 145.230,170.247 144.425,170.541 144.019 C 170.590 143.951,170.437 143.662,170.201 143.377 C 169.965 143.092,169.604 142.419,169.399 141.880 L 169.027 140.901 207.045 140.901 L 245.063 140.901 245.424 141.850 M154.371 159.250 C 155.070 161.117,155.544 162.804,155.423 163.000 C 155.303 163.195,155.362 163.257,155.555 163.138 C 156.002 162.861,156.888 165.262,156.543 165.819 C 156.383 166.079,156.443 166.140,156.701 165.980 C 156.934 165.836,157.118 165.930,157.119 166.195 C 157.121 166.454,157.339 167.083,157.604 167.592 C 158.138 168.615,158.710 170.480,158.618 170.901 C 158.585 171.050,158.688 171.171,158.847 171.171 C 159.005 171.171,159.348 171.779,159.609 172.523 C 159.870 173.266,160.300 174.360,160.566 174.955 C 161.814 177.751,162.511 179.910,162.290 180.296 C 162.156 180.530,162.183 180.597,162.350 180.446 C 162.590 180.227,164.860 185.306,165.211 186.847 C 165.256 187.045,165.649 188.006,166.084 188.982 C 166.519 189.958,166.790 190.980,166.685 191.253 C 166.580 191.526,166.627 191.668,166.788 191.568 C 167.066 191.396,170.625 200.050,170.636 200.927 C 170.639 201.156,170.821 201.568,171.041 201.843 C 171.261 202.118,172.609 205.342,174.037 209.009 C 175.465 212.676,176.777 216.000,176.953 216.396 C 177.129 216.793,177.850 218.577,178.557 220.360 C 179.264 222.144,179.999 223.885,180.191 224.229 C 180.383 224.574,180.541 225.019,180.541 225.220 C 180.541 225.464,170.422 225.586,150.090 225.586 C 133.342 225.586,119.640 225.521,119.640 225.441 C 119.640 224.876,121.388 221.688,121.588 221.888 C 121.726 222.027,121.723 221.835,121.579 221.461 C 121.384 220.953,121.439 220.857,121.796 221.078 C 122.098 221.264,122.187 221.233,122.038 220.992 C 121.720 220.477,125.537 212.511,125.930 212.870 C 126.102 213.026,126.131 212.960,125.996 212.724 C 125.695 212.200,129.360 204.276,129.782 204.537 C 129.947 204.639,130.003 204.511,129.907 204.253 C 129.670 203.616,131.322 200.278,131.704 200.625 C 131.871 200.777,131.894 200.704,131.756 200.463 C 131.433 199.901,133.450 195.562,133.861 195.935 C 134.031 196.090,134.053 196.014,133.911 195.767 C 133.769 195.519,133.890 194.871,134.182 194.325 C 134.852 193.069,138.853 184.746,138.902 184.505 C 138.922 184.405,139.437 183.270,140.047 181.982 C 140.658 180.694,142.498 176.765,144.138 173.251 C 145.874 169.530,147.274 166.957,147.489 167.090 C 147.703 167.222,147.750 167.141,147.600 166.900 C 147.458 166.670,147.971 165.145,148.741 163.511 C 149.510 161.877,150.690 159.367,151.363 157.933 C 152.792 154.889,152.725 154.860,154.371 159.250 M97.658 165.971 C 93.249 166.461,89.797 167.031,86.486 167.813 C 84.405 168.305,82.541 168.742,82.342 168.784 C 82.144 168.826,80.811 169.311,79.380 169.863 C 77.948 170.415,76.585 170.747,76.351 170.603 C 76.083 170.437,76.020 170.494,76.182 170.755 C 76.323 170.984,76.255 171.171,76.030 171.171 C 75.331 171.171,68.810 174.549,65.405 176.675 C 58.909 180.731,52.356 186.617,47.928 192.373 C 46.838 193.790,45.824 194.951,45.676 194.952 C 45.527 194.954,45.405 195.129,45.405 195.341 C 45.405 195.553,44.695 196.729,43.827 197.953 C 42.959 199.178,41.802 201.072,41.257 202.162 C 40.712 203.252,40.165 204.225,40.043 204.324 C 39.920 204.423,39.792 204.667,39.758 204.865 C 39.725 205.063,39.132 206.441,38.441 207.928 C 32.489 220.737,30.945 237.688,34.458 251.666 C 34.763 252.880,35.058 254.117,35.114 254.414 C 35.170 254.712,35.314 255.198,35.434 255.495 C 35.555 255.793,36.205 257.579,36.879 259.464 C 38.237 263.262,40.965 268.899,42.589 271.264 C 43.182 272.128,43.530 272.994,43.385 273.246 C 43.244 273.492,43.261 273.573,43.424 273.425 C 43.587 273.277,44.286 274.007,44.977 275.047 C 45.669 276.086,47.103 277.964,48.164 279.220 C 49.226 280.476,49.987 281.677,49.856 281.889 C 49.715 282.117,49.789 282.168,50.037 282.015 C 50.271 281.870,50.550 282.004,50.671 282.317 C 50.789 282.626,51.042 282.782,51.233 282.664 C 51.424 282.547,51.528 282.747,51.466 283.109 C 51.403 283.471,51.514 283.774,51.712 283.781 C 52.357 283.806,52.990 284.366,52.772 284.719 C 52.655 284.908,52.711 285.018,52.897 284.964 C 53.082 284.909,54.373 285.886,55.765 287.134 C 58.651 289.721,62.546 292.652,65.200 294.234 C 66.197 294.829,67.016 295.464,67.020 295.646 C 67.024 295.827,67.134 295.869,67.264 295.739 C 67.395 295.608,67.684 295.653,67.907 295.838 C 68.129 296.023,69.791 296.915,71.599 297.820 C 86.179 305.119,103.948 306.979,119.500 302.836 C 121.460 302.314,123.412 301.868,123.839 301.844 C 124.266 301.821,124.558 301.707,124.486 301.592 C 124.415 301.477,125.282 301.092,126.413 300.738 C 128.517 300.077,134.468 297.270,136.738 295.867 C 137.435 295.437,138.174 295.189,138.381 295.317 C 138.587 295.445,138.712 295.397,138.658 295.212 C 138.603 295.027,140.058 293.870,141.891 292.641 C 143.724 291.411,146.828 288.966,148.790 287.207 C 150.752 285.448,152.468 284.120,152.605 284.256 C 152.741 284.393,152.799 284.323,152.733 284.102 C 152.552 283.496,154.939 280.668,155.394 280.949 C 155.610 281.083,155.686 281.029,155.562 280.828 C 155.438 280.628,155.870 279.833,156.522 279.061 C 158.582 276.622,161.172 272.774,162.378 270.364 C 162.699 269.721,163.131 269.300,163.338 269.428 C 163.546 269.556,163.617 269.503,163.498 269.310 C 163.379 269.117,163.939 267.592,164.743 265.921 C 165.548 264.250,166.658 261.712,167.212 260.280 L 168.218 257.677 156.601 257.577 C 142.733 257.458,144.206 257.229,142.720 259.741 C 140.443 263.593,134.251 270.549,131.307 272.563 C 130.688 272.987,129.203 274.018,128.008 274.855 C 121.472 279.430,113.780 282.008,105.443 282.416 C 101.083 282.629,94.235 282.026,93.845 281.394 C 93.734 281.216,93.493 281.163,93.308 281.277 C 92.892 281.534,86.966 279.772,85.856 279.061 C 85.410 278.776,85.045 278.632,85.045 278.741 C 85.045 278.850,83.950 278.347,82.613 277.622 C 81.275 276.897,79.694 276.063,79.099 275.768 C 78.505 275.473,77.635 274.805,77.168 274.283 C 76.700 273.761,76.443 273.564,76.597 273.846 C 76.750 274.128,76.079 273.750,75.105 273.007 C 62.520 263.410,55.286 247.055,56.892 231.831 C 57.272 228.231,57.330 227.869,58.044 224.685 C 58.741 221.576,60.951 215.844,61.356 216.095 C 61.563 216.223,61.635 216.170,61.516 215.977 C 61.215 215.490,62.861 212.177,63.235 212.517 C 63.402 212.669,63.439 212.617,63.317 212.403 C 63.125 212.065,64.554 209.524,65.225 209.009 C 65.354 208.910,65.853 208.246,66.334 207.533 C 67.858 205.271,69.540 203.555,69.971 203.821 C 70.213 203.971,70.283 203.916,70.142 203.688 C 69.848 203.212,72.681 200.487,75.936 198.114 C 80.282 194.946,88.340 191.494,93.011 190.800 C 94.319 190.606,99.898 189.968,101.516 189.828 C 101.755 189.807,101.872 189.664,101.777 189.510 C 101.497 189.056,105.327 180.921,105.709 181.157 C 105.902 181.277,105.941 181.185,105.797 180.951 C 105.654 180.719,106.862 177.621,108.483 174.066 C 111.729 166.946,111.694 167.116,109.910 166.949 C 109.216 166.883,108.162 166.666,107.568 166.465 C 106.407 166.073,99.735 165.741,97.658 165.971 M292.432 166.073 C 291.312 166.372,289.730 167.130,289.730 167.369 C 289.730 167.444,290.298 168.994,290.992 170.813 C 291.686 172.632,292.147 174.293,292.017 174.503 C 291.887 174.714,291.943 174.786,292.141 174.663 C 292.340 174.540,292.914 175.446,293.421 176.680 C 293.926 177.911,295.019 180.541,295.848 182.523 C 296.678 184.505,297.602 186.856,297.903 187.748 C 298.642 189.943,298.418 189.832,302.987 190.263 C 332.903 193.084,352.518 222.062,343.764 250.505 C 342.431 254.837,341.323 257.378,340.884 257.107 C 340.700 256.993,340.644 257.148,340.760 257.451 C 340.877 257.754,340.470 258.819,339.855 259.818 C 339.241 260.816,338.739 261.802,338.739 262.009 C 338.739 262.216,338.552 262.269,338.323 262.128 C 338.066 261.969,338.004 262.029,338.162 262.284 C 338.303 262.511,338.012 263.102,337.513 263.601 C 337.016 264.098,336.696 264.505,336.801 264.505 C 337.063 264.505,333.831 268.314,332.140 269.998 C 331.384 270.751,330.589 271.257,330.373 271.123 C 330.156 270.989,330.079 271.042,330.202 271.241 C 330.597 271.880,325.257 276.210,324.585 275.794 C 324.376 275.665,324.321 275.739,324.459 275.962 C 324.763 276.455,323.380 277.244,322.820 276.898 C 322.582 276.751,322.510 276.805,322.647 277.027 C 322.786 277.252,321.806 277.933,320.270 278.678 C 317.401 280.072,312.793 281.870,312.793 281.596 C 312.793 281.501,312.347 281.644,311.802 281.914 C 307.311 284.137,292.209 284.098,285.537 281.846 C 284.477 281.488,283.725 281.080,283.866 280.939 C 284.007 280.798,283.877 280.777,283.577 280.892 C 282.452 281.323,276.774 278.582,271.878 275.243 C 269.286 273.475,262.600 267.404,263.233 267.393 C 263.426 267.390,263.252 267.155,262.847 266.872 C 262.010 266.285,259.364 262.445,257.668 259.355 C 251.545 248.198,250.282 233.280,254.488 221.802 C 255.776 218.286,258.467 213.396,259.558 212.586 C 259.914 212.322,259.328 210.935,255.684 203.423 C 251.650 195.107,251.444 194.622,251.679 194.010 C 251.791 193.716,251.728 193.572,251.538 193.690 C 251.348 193.807,251.081 193.462,250.946 192.922 C 250.810 192.382,250.490 191.535,250.233 191.041 C 249.977 190.546,249.827 190.045,249.900 189.926 C 249.974 189.807,249.728 189.309,249.355 188.819 L 248.676 187.928 248.097 188.745 C 247.779 189.194,247.342 189.453,247.127 189.320 C 246.909 189.185,246.838 189.244,246.966 189.452 C 247.291 189.976,245.801 191.772,245.286 191.477 C 245.055 191.344,244.981 191.364,245.122 191.521 C 245.503 191.943,244.715 193.214,244.251 192.927 C 244.002 192.774,243.955 192.848,244.126 193.124 C 244.284 193.380,244.101 193.898,243.691 194.351 C 242.814 195.322,240.224 199.258,239.891 200.126 C 239.755 200.478,239.483 200.667,239.286 200.545 C 239.071 200.412,239.023 200.572,239.164 200.941 C 239.338 201.394,239.274 201.481,238.924 201.265 C 238.652 201.096,238.534 201.111,238.650 201.298 C 238.937 201.763,235.855 207.621,235.496 207.295 C 235.333 207.148,235.310 207.220,235.446 207.456 C 235.581 207.692,235.185 209.071,234.565 210.519 C 228.009 225.850,227.416 243.631,232.935 259.420 C 234.337 263.431,237.499 270.193,238.632 271.606 C 238.824 271.845,238.861 272.235,238.714 272.472 C 238.559 272.723,238.599 272.810,238.811 272.680 C 239.010 272.556,239.359 272.861,239.585 273.357 C 240.159 274.618,242.547 277.825,245.637 281.486 C 247.079 283.195,248.144 284.721,248.004 284.877 C 247.863 285.033,247.927 285.059,248.146 284.934 C 248.659 284.641,250.241 286.311,249.929 286.816 C 249.792 287.038,249.897 287.120,250.180 287.012 C 250.449 286.909,251.227 287.362,251.911 288.019 C 252.594 288.677,253.964 289.848,254.955 290.622 C 255.946 291.396,257.000 292.244,257.297 292.506 C 259.531 294.476,269.142 299.886,272.165 300.876 C 272.911 301.120,273.429 301.467,273.318 301.647 C 273.207 301.826,273.339 301.888,273.612 301.783 C 273.885 301.679,274.857 301.914,275.774 302.307 C 277.571 303.078,284.637 304.858,289.009 305.642 C 303.486 308.237,324.276 303.612,336.733 295.023 C 337.315 294.622,337.997 294.294,338.249 294.294 C 338.501 294.294,338.638 294.183,338.554 294.046 C 338.469 293.910,339.314 293.169,340.430 292.401 C 341.546 291.632,342.675 290.787,342.938 290.524 C 343.202 290.260,343.585 290.148,343.790 290.274 C 343.995 290.401,344.128 290.370,344.087 290.207 C 344.046 290.044,345.866 288.045,348.132 285.766 C 350.398 283.486,353.225 280.257,354.414 278.590 C 355.604 276.922,356.934 275.179,357.371 274.716 C 357.808 274.253,358.090 273.874,357.997 273.874 C 357.905 273.874,358.231 273.236,358.723 272.457 C 365.230 262.150,368.423 250.491,368.452 236.937 C 368.470 228.483,368.315 227.176,366.403 219.640 C 364.767 213.190,362.015 206.471,358.879 201.276 C 358.516 200.673,357.948 199.694,357.618 199.099 C 357.288 198.505,356.558 197.433,355.996 196.717 C 355.434 196.002,355.078 195.312,355.205 195.186 C 355.332 195.059,355.260 194.955,355.046 194.955 C 354.832 194.955,354.184 194.312,353.606 193.526 C 348.859 187.071,339.377 178.618,333.413 175.525 C 332.958 175.289,332.702 174.922,332.838 174.701 C 332.976 174.478,332.921 174.404,332.713 174.533 C 332.284 174.798,328.211 172.847,327.562 172.066 C 327.322 171.776,327.009 171.612,326.866 171.700 C 326.724 171.788,324.918 171.200,322.853 170.393 C 314.175 167.000,297.719 164.664,292.432 166.073 M150.175 186.036 C 150.079 186.284,149.972 186.604,149.936 186.747 C 149.870 187.006,147.856 191.366,145.230 196.937 C 144.482 198.523,143.758 200.187,143.621 200.636 C 143.481 201.095,143.201 201.346,142.981 201.211 C 142.767 201.078,142.689 201.128,142.809 201.322 C 142.928 201.515,142.827 202.067,142.583 202.548 C 140.639 206.389,140.121 207.986,140.624 208.585 C 141.354 209.455,142.364 212.287,142.097 212.718 C 141.968 212.927,142.049 212.974,142.287 212.827 C 142.515 212.686,142.703 212.742,142.703 212.952 C 142.703 213.213,146.736 213.333,155.508 213.333 C 168.246 213.333,168.312 213.329,167.924 212.605 C 167.710 212.205,167.648 211.693,167.787 211.468 C 167.942 211.218,167.878 211.159,167.623 211.317 C 167.385 211.464,167.207 211.361,167.207 211.076 C 167.207 210.802,166.632 209.249,165.928 207.626 C 165.224 206.002,164.764 204.474,164.905 204.229 C 165.045 203.984,165.027 203.905,164.863 204.054 C 164.468 204.412,160.994 197.910,161.308 197.401 C 161.452 197.168,161.387 197.108,161.151 197.254 C 160.912 197.402,160.443 196.947,159.999 196.139 C 158.933 194.196,157.755 192.628,155.505 190.155 C 154.425 188.967,153.628 187.854,153.734 187.682 C 153.840 187.510,153.794 187.414,153.630 187.467 C 153.467 187.521,152.750 187.120,152.038 186.575 C 150.570 185.453,150.415 185.409,150.175 186.036 " stroke="none" fill="#ffffff" fill-rule="evenodd"></path><path id="path1" d="M183.063 0.387 C 182.568 0.562,178.838 1.033,174.775 1.433 C 159.070 2.978,143.035 7.150,124.696 14.461 C 94.754 26.398,67.085 46.570,46.011 71.828 C 39.140 80.062,28.589 95.052,26.785 99.141 C 26.445 99.911,26.010 100.541,25.817 100.541 C 25.623 100.541,25.558 100.633,25.670 100.745 C 25.783 100.858,24.733 103.007,23.338 105.520 C 14.343 121.722,7.261 141.592,3.277 161.802 C -4.210 199.791,0.387 244.168,15.333 278.198 C 19.245 287.104,20.553 289.824,23.338 294.840 C 24.733 297.354,25.783 299.503,25.670 299.615 C 25.558 299.728,25.623 299.820,25.817 299.820 C 26.010 299.820,26.445 300.450,26.785 301.219 C 27.125 301.989,29.041 305.111,31.044 308.156 C 51.342 339.023,75.432 360.990,107.928 378.267 C 121.047 385.242,140.137 392.232,155.880 395.828 C 186.392 402.796,223.850 401.829,253.775 393.302 C 302.082 379.537,340.872 350.862,368.956 308.156 C 370.959 305.111,372.875 301.989,373.215 301.219 C 373.555 300.450,373.990 299.820,374.183 299.820 C 374.377 299.820,374.442 299.728,374.330 299.615 C 374.217 299.503,375.267 297.354,376.662 294.840 C 385.657 278.638,392.739 258.769,396.723 238.559 C 404.210 200.569,399.613 156.192,384.667 122.162 C 380.755 113.256,379.447 110.536,376.662 105.520 C 375.267 103.007,374.217 100.858,374.330 100.745 C 374.442 100.633,374.377 100.541,374.183 100.541 C 373.990 100.541,373.555 99.911,373.215 99.141 C 372.875 98.371,370.959 95.250,368.956 92.204 C 348.658 61.337,324.568 39.370,292.072 22.094 C 276.489 13.809,255.540 6.595,236.254 2.874 C 224.734 0.650,187.276 -1.100,183.063 0.387 M289.374 55.497 C 291.767 56.141,294.768 59.133,295.351 61.454 C 295.474 61.946,295.684 62.417,295.818 62.499 C 296.351 62.829,295.607 68.035,294.803 69.589 C 292.646 73.762,287.473 79.085,282.614 82.131 C 281.563 82.790,280.828 83.485,280.958 83.696 C 281.087 83.905,281.035 83.978,280.844 83.860 C 280.652 83.741,279.370 84.179,277.995 84.832 C 271.410 87.961,268.066 89.024,260.855 90.281 C 258.598 90.675,256.715 90.789,255.179 90.627 L 252.881 90.383 253.054 91.408 C 253.149 91.971,253.663 94.378,254.196 96.757 C 258.586 116.327,261.905 128.241,262.813 127.680 C 263.012 127.557,263.077 127.614,262.958 127.806 C 262.840 127.998,263.706 131.285,264.885 135.109 C 266.063 138.934,267.027 142.372,267.027 142.749 C 267.027 143.879,274.169 163.727,274.639 163.905 C 274.815 163.971,274.876 164.160,274.775 164.324 C 274.673 164.489,275.576 167.029,276.782 169.969 C 279.474 176.537,279.367 176.284,280.566 178.919 C 281.107 180.108,281.589 181.243,281.636 181.441 C 281.956 182.780,284.257 187.340,284.500 187.119 C 284.665 186.969,284.684 187.049,284.541 187.297 C 284.399 187.544,284.508 188.193,284.783 188.738 C 285.059 189.283,285.787 190.784,286.401 192.072 C 289.972 199.560,294.908 209.213,296.581 211.981 C 296.910 212.525,297.313 212.849,297.476 212.701 C 297.640 212.553,297.653 212.640,297.507 212.894 C 297.191 213.443,299.186 217.180,300.307 218.139 C 300.733 218.503,300.889 218.703,300.654 218.583 C 300.420 218.463,300.906 219.509,301.736 220.906 C 302.565 222.303,303.405 223.734,303.604 224.085 C 304.237 225.207,307.183 229.723,307.404 229.910 C 308.837 231.123,309.254 236.786,308.107 239.462 C 307.710 240.388,307.492 241.319,307.622 241.530 C 307.752 241.741,307.698 241.813,307.500 241.691 C 307.303 241.569,306.597 242.031,305.932 242.718 C 301.078 247.725,292.978 245.826,288.981 238.745 C 288.364 237.651,287.712 236.757,287.533 236.757 C 287.354 236.757,287.244 236.635,287.290 236.486 C 287.433 236.021,283.003 228.829,282.737 229.095 C 282.598 229.234,282.591 229.069,282.722 228.728 C 282.853 228.387,282.799 228.108,282.603 228.108 C 282.407 228.108,282.153 227.824,282.039 227.477 C 281.666 226.345,280.106 223.798,279.906 223.998 C 279.799 224.105,279.736 223.898,279.766 223.538 C 279.796 223.166,279.613 222.926,279.343 222.982 C 279.080 223.036,278.970 222.912,279.098 222.705 C 279.225 222.498,278.993 221.784,278.582 221.118 C 278.170 220.452,277.255 218.751,276.547 217.337 C 275.778 215.799,275.105 214.862,274.872 215.006 C 274.638 215.151,274.588 215.077,274.745 214.823 C 274.963 214.471,273.489 211.130,271.782 208.105 C 271.138 206.964,265.946 196.063,265.946 195.852 C 265.946 195.747,265.318 194.327,264.551 192.695 C 263.784 191.064,262.592 188.395,261.903 186.763 C 261.213 185.131,260.518 183.914,260.357 184.060 C 260.196 184.205,260.176 184.130,260.313 183.892 C 260.449 183.654,259.765 181.546,258.792 179.207 C 257.819 176.869,256.331 173.090,255.485 170.811 C 254.639 168.532,253.911 166.620,253.867 166.563 C 253.823 166.506,253.244 167.317,252.581 168.365 C 251.918 169.413,251.227 170.374,251.047 170.500 C 250.866 170.627,250.832 170.915,250.972 171.140 C 251.111 171.365,251.063 171.505,250.866 171.450 C 250.502 171.350,245.766 178.135,245.766 178.758 C 245.766 178.946,245.628 179.099,245.459 179.099 C 244.957 179.099,242.856 182.728,243.115 183.148 C 243.249 183.365,243.187 183.431,242.974 183.299 C 242.494 183.003,236.668 191.637,236.993 192.162 C 237.124 192.375,237.058 192.439,236.844 192.306 C 236.391 192.026,233.418 196.311,233.723 196.804 C 233.835 196.986,233.713 197.090,233.450 197.036 C 233.188 196.981,232.971 197.209,232.968 197.542 C 232.966 197.875,232.818 198.280,232.640 198.443 C 232.452 198.615,232.439 198.527,232.611 198.233 C 232.808 197.892,232.768 197.811,232.488 197.984 C 232.259 198.125,232.072 198.449,232.072 198.704 C 232.072 198.959,231.748 199.461,231.351 199.820 C 230.955 200.179,230.631 200.690,230.631 200.957 C 230.631 201.223,230.468 201.441,230.270 201.441 C 230.072 201.441,229.910 201.685,229.910 201.982 C 229.910 202.279,229.759 202.523,229.574 202.523 C 229.197 202.523,228.631 203.949,228.787 204.505 C 228.843 204.703,228.772 204.748,228.630 204.606 C 228.250 204.226,222.342 212.431,222.342 213.340 C 222.342 213.535,222.221 213.695,222.072 213.696 C 221.698 213.699,220.441 215.894,220.363 216.679 C 220.328 217.033,220.086 217.520,219.826 217.761 C 219.454 218.105,219.408 218.102,219.608 217.748 C 219.748 217.500,219.786 217.297,219.693 217.297 C 219.252 217.297,215.857 222.773,216.077 223.129 C 216.220 223.360,216.167 223.436,215.954 223.304 C 215.664 223.125,210.756 229.845,208.468 233.555 C 208.270 233.876,207.422 235.174,206.584 236.439 C 205.746 237.704,205.057 238.941,205.053 239.189 C 205.048 239.437,204.866 239.640,204.646 239.640 C 204.417 239.640,204.348 239.903,204.485 240.259 C 204.616 240.600,204.615 240.771,204.483 240.640 C 204.110 240.266,202.438 242.454,202.733 242.931 C 202.902 243.205,202.838 243.258,202.552 243.081 C 202.293 242.921,201.775 243.121,201.307 243.560 C 198.883 245.838,201.028 245.747,149.321 245.757 C 96.866 245.767,100.259 245.933,97.147 243.194 C 96.292 242.442,95.463 241.942,95.306 242.084 C 95.148 242.226,95.130 242.150,95.264 241.916 C 95.399 241.681,95.157 240.814,94.727 239.990 C 93.849 238.305,93.534 230.719,94.377 231.555 C 94.653 231.829,96.213 228.034,95.980 227.657 C 95.850 227.447,95.897 227.370,96.084 227.486 C 96.271 227.601,96.650 227.180,96.927 226.551 C 97.204 225.921,98.866 222.416,100.620 218.762 C 102.374 215.108,103.724 211.897,103.621 211.626 C 103.517 211.355,103.575 211.222,103.750 211.331 C 104.014 211.493,104.437 210.925,104.674 210.090 C 104.702 209.991,105.342 208.613,106.096 207.027 C 106.850 205.441,108.082 202.847,108.833 201.261 C 109.584 199.676,111.009 196.676,112.000 194.595 C 118.287 181.390,119.309 179.079,119.047 178.655 C 118.915 178.442,118.968 178.366,119.164 178.487 C 119.605 178.760,123.687 170.157,123.365 169.635 C 123.218 169.398,123.309 169.368,123.609 169.553 C 123.967 169.774,124.021 169.678,123.826 169.169 C 123.683 168.796,123.680 168.605,123.820 168.745 C 124.052 168.977,124.814 167.538,126.928 162.883 C 127.333 161.991,127.977 160.654,128.359 159.911 C 128.741 159.169,128.937 158.374,128.795 158.144 C 128.649 157.908,128.694 157.823,128.898 157.949 C 129.096 158.072,129.639 157.327,130.104 156.293 C 130.569 155.260,132.221 151.747,133.774 148.488 C 135.328 145.228,136.515 142.341,136.412 142.072 C 136.309 141.804,136.358 141.667,136.522 141.768 C 136.877 141.988,142.030 131.331,142.108 130.215 C 142.138 129.788,142.311 129.531,142.494 129.643 C 142.676 129.756,142.733 129.619,142.621 129.338 C 142.509 129.058,141.980 127.775,141.445 126.486 C 140.910 125.198,140.181 123.414,139.824 122.523 C 137.951 117.836,137.913 117.772,137.139 117.961 C 136.731 118.060,133.972 119.061,131.009 120.185 C 120.223 124.276,116.257 124.582,113.389 121.544 C 109.214 117.120,108.644 101.798,112.549 98.942 C 114.161 97.763,171.621 97.773,173.874 98.953 C 177.379 100.788,176.004 105.254,171.270 107.408 C 169.284 108.312,163.392 110.270,162.659 110.270 C 162.386 110.270,162.162 110.442,162.162 110.652 C 162.162 110.862,161.996 110.931,161.794 110.806 C 161.270 110.482,157.837 111.685,157.840 112.191 C 157.843 112.657,160.208 119.043,160.759 120.072 C 161.090 120.691,162.917 120.721,200.159 120.721 L 239.211 120.721 237.723 114.983 C 236.905 111.828,236.085 109.339,235.900 109.453 C 235.715 109.568,235.674 109.484,235.807 109.268 C 235.941 109.052,235.892 108.256,235.698 107.501 C 233.964 100.721,231.300 89.334,230.240 84.174 C 229.461 80.380,229.651 78.058,230.897 76.142 C 231.181 75.705,231.293 75.153,231.147 74.915 C 230.988 74.659,231.032 74.577,231.255 74.715 C 231.764 75.030,232.561 74.013,232.228 73.474 C 232.054 73.192,232.114 73.136,232.399 73.313 C 232.641 73.462,233.112 73.344,233.446 73.050 C 235.664 71.102,236.648 70.935,246.442 70.842 C 257.814 70.733,260.081 70.338,267.861 67.107 C 270.872 65.857,276.193 61.829,275.887 61.032 C 275.772 60.732,275.921 60.652,276.325 60.796 C 276.661 60.917,276.828 60.895,276.696 60.747 C 276.563 60.600,276.807 60.056,277.236 59.539 C 280.785 55.270,284.249 54.117,289.374 55.497 M169.399 141.880 C 169.604 142.419,169.965 143.092,170.201 143.377 C 170.437 143.662,170.590 143.951,170.541 144.019 C 170.247 144.425,170.512 145.230,170.866 145.011 C 171.108 144.861,171.185 144.911,171.051 145.128 C 170.706 145.686,171.534 147.789,171.988 147.508 C 172.231 147.358,172.290 147.489,172.148 147.861 C 171.880 148.559,172.720 150.764,173.106 150.377 C 173.252 150.231,173.277 150.357,173.163 150.656 C 172.988 151.111,176.002 159.118,177.853 163.118 C 178.142 163.742,178.378 164.414,178.378 164.610 C 178.378 165.265,179.700 167.928,179.917 167.711 C 180.035 167.593,180.049 167.812,179.948 168.199 C 179.847 168.585,179.979 169.128,180.242 169.406 C 180.505 169.683,180.730 170.072,180.741 170.270 C 180.799 171.315,181.385 172.579,181.716 172.374 C 181.923 172.246,181.988 172.311,181.860 172.519 C 181.732 172.726,182.125 174.170,182.734 175.727 C 183.344 177.285,184.010 179.002,184.215 179.545 C 184.420 180.087,184.757 180.427,184.962 180.300 C 185.183 180.164,185.228 180.244,185.073 180.495 C 184.823 180.900,185.756 183.733,187.580 188.108 C 188.457 190.212,194.408 205.224,196.487 210.575 L 197.725 213.763 198.850 212.232 C 199.469 211.391,199.888 210.560,199.781 210.387 C 199.674 210.214,199.751 210.117,199.952 210.171 C 200.441 210.303,205.124 203.302,204.847 202.854 C 204.728 202.662,204.846 202.549,205.108 202.604 C 205.372 202.658,205.564 202.423,205.536 202.076 C 205.509 201.731,205.613 201.527,205.767 201.622 C 206.091 201.823,207.327 200.059,207.327 199.396 C 207.327 199.151,207.462 199.034,207.628 199.136 C 207.793 199.238,207.928 199.163,207.928 198.968 C 207.928 198.773,208.345 198.118,208.855 197.513 C 209.374 196.895,209.666 196.225,209.520 195.988 C 209.360 195.730,209.413 195.660,209.656 195.810 C 210.149 196.115,210.938 194.732,210.592 194.171 C 210.444 193.933,210.499 193.861,210.723 194.000 C 211.080 194.221,214.054 190.302,214.054 189.609 C 214.054 189.440,214.384 189.002,214.787 188.637 C 215.191 188.272,215.436 187.752,215.332 187.481 C 215.228 187.211,215.290 187.080,215.469 187.191 C 215.925 187.473,217.405 184.971,217.087 184.455 C 216.926 184.196,216.981 184.129,217.229 184.282 C 217.556 184.484,221.140 179.593,223.604 175.581 C 223.802 175.258,224.252 174.667,224.603 174.267 C 224.955 173.866,225.149 173.295,225.035 172.997 C 224.920 172.698,224.939 172.566,225.076 172.703 C 225.425 173.052,228.200 169.089,227.922 168.639 C 227.797 168.436,227.853 168.315,228.047 168.369 C 228.534 168.506,230.707 165.461,230.436 165.022 C 230.315 164.827,230.350 164.711,230.514 164.766 C 230.677 164.820,230.836 164.728,230.866 164.561 C 230.896 164.394,231.316 163.826,231.800 163.300 C 233.213 161.760,234.984 158.897,234.753 158.524 C 234.637 158.335,234.675 158.225,234.838 158.279 C 235.001 158.334,235.200 158.216,235.280 158.018 C 235.359 157.820,235.630 157.495,235.883 157.297 C 236.135 157.099,236.638 156.432,237.000 155.814 C 237.952 154.189,243.345 146.209,243.859 145.665 C 244.098 145.412,244.192 144.939,244.068 144.615 C 243.920 144.232,243.983 144.113,244.247 144.277 C 244.968 144.722,245.836 142.934,245.424 141.850 L 245.063 140.901 207.045 140.901 L 169.027 140.901 169.399 141.880 M151.363 157.933 C 150.690 159.367,149.510 161.877,148.741 163.511 C 147.971 165.145,147.458 166.670,147.600 166.900 C 147.750 167.141,147.703 167.222,147.489 167.090 C 147.274 166.957,145.874 169.530,144.138 173.251 C 142.498 176.765,140.658 180.694,140.047 181.982 C 139.437 183.270,138.922 184.405,138.902 184.505 C 138.853 184.746,134.852 193.069,134.182 194.325 C 133.890 194.871,133.769 195.519,133.911 195.767 C 134.053 196.014,134.031 196.090,133.861 195.935 C 133.450 195.562,131.433 199.901,131.756 200.463 C 131.894 200.704,131.871 200.777,131.704 200.625 C 131.322 200.278,129.670 203.616,129.907 204.253 C 130.003 204.511,129.947 204.639,129.782 204.537 C 129.360 204.276,125.695 212.200,125.996 212.724 C 126.131 212.960,126.102 213.026,125.930 212.870 C 125.537 212.511,121.720 220.477,122.038 220.992 C 122.187 221.233,122.098 221.264,121.796 221.078 C 121.439 220.857,121.384 220.953,121.579 221.461 C 121.723 221.835,121.726 222.027,121.588 221.888 C 121.388 221.688,119.640 224.876,119.640 225.441 C 119.640 225.521,133.342 225.586,150.090 225.586 C 170.422 225.586,180.541 225.464,180.541 225.220 C 180.541 225.019,180.383 224.574,180.191 224.229 C 179.999 223.885,179.264 222.144,178.557 220.360 C 177.850 218.577,177.129 216.793,176.953 216.396 C 176.777 216.000,175.465 212.676,174.037 209.009 C 172.609 205.342,171.261 202.118,171.041 201.843 C 170.821 201.568,170.639 201.156,170.636 200.927 C 170.625 200.050,167.066 191.396,166.788 191.568 C 166.627 191.668,166.580 191.526,166.685 191.253 C 166.790 190.980,166.519 189.958,166.084 188.982 C 165.649 188.006,165.256 187.045,165.211 186.847 C 164.860 185.306,162.590 180.227,162.350 180.446 C 162.183 180.597,162.156 180.530,162.290 180.296 C 162.511 179.910,161.814 177.751,160.566 174.955 C 160.300 174.360,159.870 173.266,159.609 172.523 C 159.348 171.779,159.005 171.171,158.847 171.171 C 158.688 171.171,158.585 171.050,158.618 170.901 C 158.710 170.480,158.138 168.615,157.604 167.592 C 157.339 167.083,157.121 166.454,157.119 166.195 C 157.118 165.930,156.934 165.836,156.701 165.980 C 156.443 166.140,156.383 166.079,156.543 165.819 C 156.888 165.262,156.002 162.861,155.555 163.138 C 155.362 163.257,155.303 163.195,155.423 163.000 C 155.635 162.657,153.361 156.128,152.843 155.591 C 152.702 155.445,152.036 156.499,151.363 157.933 M107.568 166.465 C 108.162 166.666,109.216 166.883,109.910 166.949 C 111.694 167.116,111.729 166.946,108.483 174.066 C 106.862 177.621,105.654 180.719,105.797 180.951 C 105.941 181.185,105.902 181.277,105.709 181.157 C 105.327 180.921,101.497 189.056,101.777 189.510 C 101.872 189.664,101.755 189.807,101.516 189.828 C 99.898 189.968,94.319 190.606,93.011 190.800 C 88.340 191.494,80.282 194.946,75.936 198.114 C 72.681 200.487,69.848 203.212,70.142 203.688 C 70.283 203.916,70.213 203.971,69.971 203.821 C 69.540 203.555,67.858 205.271,66.334 207.533 C 65.853 208.246,65.354 208.910,65.225 209.009 C 64.554 209.524,63.125 212.065,63.317 212.403 C 63.439 212.617,63.402 212.669,63.235 212.517 C 62.861 212.177,61.215 215.490,61.516 215.977 C 61.635 216.170,61.563 216.223,61.356 216.095 C 60.951 215.844,58.741 221.576,58.044 224.685 C 57.330 227.869,57.272 228.231,56.892 231.831 C 55.286 247.055,62.520 263.410,75.105 273.007 C 76.079 273.750,76.750 274.128,76.597 273.846 C 76.443 273.564,76.700 273.761,77.168 274.283 C 77.635 274.805,78.505 275.473,79.099 275.768 C 79.694 276.063,81.275 276.897,82.613 277.622 C 83.950 278.347,85.045 278.850,85.045 278.741 C 85.045 278.632,85.410 278.776,85.856 279.061 C 86.966 279.772,92.892 281.534,93.308 281.277 C 93.493 281.163,93.734 281.216,93.845 281.394 C 94.235 282.026,101.083 282.629,105.443 282.416 C 113.780 282.008,121.472 279.430,128.008 274.855 C 129.203 274.018,130.688 272.987,131.307 272.563 C 134.251 270.549,140.443 263.593,142.720 259.741 C 144.206 257.229,142.733 257.458,156.601 257.577 L 168.218 257.677 167.212 260.280 C 166.658 261.712,165.548 264.250,164.743 265.921 C 163.939 267.592,163.379 269.117,163.498 269.310 C 163.617 269.503,163.546 269.556,163.338 269.428 C 163.131 269.300,162.699 269.721,162.378 270.364 C 161.172 272.774,158.582 276.622,156.522 279.061 C 155.870 279.833,155.438 280.628,155.562 280.828 C 155.686 281.029,155.610 281.083,155.394 280.949 C 154.939 280.668,152.552 283.496,152.733 284.102 C 152.799 284.323,152.741 284.393,152.605 284.256 C 152.468 284.120,150.752 285.448,148.790 287.207 C 146.828 288.966,143.724 291.411,141.891 292.641 C 140.058 293.870,138.603 295.027,138.658 295.212 C 138.712 295.397,138.587 295.445,138.381 295.317 C 138.174 295.189,137.435 295.437,136.738 295.867 C 134.468 297.270,128.517 300.077,126.413 300.738 C 125.282 301.092,124.415 301.477,124.486 301.592 C 124.558 301.707,124.266 301.821,123.839 301.844 C 123.412 301.868,121.460 302.314,119.500 302.836 C 103.948 306.979,86.179 305.119,71.599 297.820 C 69.791 296.915,68.129 296.023,67.907 295.838 C 67.684 295.653,67.395 295.608,67.264 295.739 C 67.134 295.869,67.024 295.827,67.020 295.646 C 67.016 295.464,66.197 294.829,65.200 294.234 C 62.546 292.652,58.651 289.721,55.765 287.134 C 54.373 285.886,53.082 284.909,52.897 284.964 C 52.711 285.018,52.655 284.908,52.772 284.719 C 52.990 284.366,52.357 283.806,51.712 283.781 C 51.514 283.774,51.403 283.471,51.466 283.109 C 51.528 282.747,51.424 282.547,51.233 282.664 C 51.042 282.782,50.789 282.626,50.671 282.317 C 50.550 282.004,50.271 281.870,50.037 282.015 C 49.789 282.168,49.715 282.117,49.856 281.889 C 49.987 281.677,49.226 280.476,48.164 279.220 C 47.103 277.964,45.669 276.086,44.977 275.047 C 44.286 274.007,43.587 273.277,43.424 273.425 C 43.261 273.573,43.244 273.492,43.385 273.246 C 43.530 272.994,43.182 272.128,42.589 271.264 C 40.965 268.899,38.237 263.262,36.879 259.464 C 36.205 257.579,35.555 255.793,35.434 255.495 C 35.314 255.198,35.170 254.712,35.114 254.414 C 35.058 254.117,34.763 252.880,34.458 251.666 C 30.945 237.688,32.489 220.737,38.441 207.928 C 39.132 206.441,39.725 205.063,39.758 204.865 C 39.792 204.667,39.920 204.423,40.043 204.324 C 40.165 204.225,40.712 203.252,41.257 202.162 C 41.802 201.072,42.959 199.178,43.827 197.953 C 44.695 196.729,45.405 195.553,45.405 195.341 C 45.405 195.129,45.527 194.954,45.676 194.952 C 45.824 194.951,46.838 193.790,47.928 192.373 C 52.356 186.617,58.909 180.731,65.405 176.675 C 68.810 174.549,75.331 171.171,76.030 171.171 C 76.255 171.171,76.323 170.984,76.182 170.755 C 76.020 170.494,76.083 170.437,76.351 170.603 C 76.585 170.747,77.948 170.415,79.380 169.863 C 80.811 169.311,82.144 168.826,82.342 168.784 C 82.541 168.742,84.405 168.305,86.486 167.813 C 89.797 167.031,93.249 166.461,97.658 165.971 C 99.735 165.741,106.407 166.073,107.568 166.465 M309.910 166.835 C 315.527 167.894,318.676 168.760,322.853 170.393 C 324.918 171.200,326.724 171.788,326.866 171.700 C 327.009 171.612,327.322 171.776,327.562 172.066 C 328.211 172.847,332.284 174.798,332.713 174.533 C 332.921 174.404,332.976 174.478,332.838 174.701 C 332.702 174.922,332.958 175.289,333.413 175.525 C 339.377 178.618,348.859 187.071,353.606 193.526 C 354.184 194.312,354.832 194.955,355.046 194.955 C 355.260 194.955,355.332 195.059,355.205 195.186 C 355.078 195.312,355.434 196.002,355.996 196.717 C 356.558 197.433,357.288 198.505,357.618 199.099 C 357.948 199.694,358.516 200.673,358.879 201.276 C 362.015 206.471,364.767 213.190,366.403 219.640 C 369.762 232.883,369.362 245.321,365.152 258.559 C 363.863 262.612,360.915 268.986,358.723 272.457 C 358.231 273.236,357.905 273.874,357.997 273.874 C 358.090 273.874,357.808 274.253,357.371 274.716 C 356.934 275.179,355.604 276.922,354.414 278.590 C 353.225 280.257,350.398 283.486,348.132 285.766 C 345.866 288.045,344.046 290.044,344.087 290.207 C 344.128 290.370,343.995 290.401,343.790 290.274 C 343.585 290.148,343.202 290.260,342.938 290.524 C 342.675 290.787,341.546 291.632,340.430 292.401 C 339.314 293.169,338.469 293.910,338.554 294.046 C 338.638 294.183,338.501 294.294,338.249 294.294 C 337.997 294.294,337.315 294.622,336.733 295.023 C 324.276 303.612,303.486 308.237,289.009 305.642 C 284.637 304.858,277.571 303.078,275.774 302.307 C 274.857 301.914,273.885 301.679,273.612 301.783 C 273.339 301.888,273.207 301.826,273.318 301.647 C 273.429 301.467,272.911 301.120,272.165 300.876 C 269.142 299.886,259.531 294.476,257.297 292.506 C 257.000 292.244,255.946 291.396,254.955 290.622 C 253.964 289.848,252.594 288.677,251.911 288.019 C 251.227 287.362,250.449 286.909,250.180 287.012 C 249.897 287.120,249.792 287.038,249.929 286.816 C 250.241 286.311,248.659 284.641,248.146 284.934 C 247.927 285.059,247.863 285.033,248.004 284.877 C 248.144 284.721,247.079 283.195,245.637 281.486 C 242.547 277.825,240.159 274.618,239.585 273.357 C 239.359 272.861,239.010 272.556,238.811 272.680 C 238.599 272.810,238.559 272.723,238.714 272.472 C 238.861 272.235,238.824 271.845,238.632 271.606 C 236.738 269.245,232.940 260.200,231.397 254.375 C 229.633 247.714,229.386 245.561,229.394 236.937 C 229.404 225.882,230.593 219.807,234.565 210.519 C 235.185 209.071,235.581 207.692,235.446 207.456 C 235.310 207.220,235.333 207.148,235.496 207.295 C 235.855 207.621,238.937 201.763,238.650 201.298 C 238.534 201.111,238.652 201.096,238.924 201.265 C 239.274 201.481,239.338 201.394,239.164 200.941 C 239.023 200.572,239.071 200.412,239.286 200.545 C 239.483 200.667,239.755 200.478,239.891 200.126 C 240.224 199.258,242.814 195.322,243.691 194.351 C 244.101 193.898,244.284 193.380,244.126 193.124 C 243.955 192.848,244.002 192.774,244.251 192.927 C 244.715 193.214,245.503 191.943,245.122 191.521 C 244.981 191.364,245.055 191.344,245.286 191.477 C 245.801 191.772,247.291 189.976,246.966 189.452 C 246.838 189.244,246.909 189.185,247.127 189.320 C 247.342 189.453,247.779 189.194,248.097 188.745 L 248.676 187.928 249.355 188.819 C 249.728 189.309,249.974 189.807,249.900 189.926 C 249.827 190.045,249.977 190.546,250.233 191.041 C 250.490 191.535,250.810 192.382,250.946 192.922 C 251.081 193.462,251.348 193.807,251.538 193.690 C 251.728 193.572,251.791 193.716,251.679 194.010 C 251.444 194.622,251.650 195.107,255.684 203.423 C 259.328 210.935,259.914 212.322,259.558 212.586 C 258.467 213.396,255.776 218.286,254.488 221.802 C 250.282 233.280,251.545 248.198,257.668 259.355 C 259.364 262.445,262.010 266.285,262.847 266.872 C 263.252 267.155,263.426 267.390,263.233 267.393 C 262.600 267.404,269.286 273.475,271.878 275.243 C 276.774 278.582,282.452 281.323,283.577 280.892 C 283.877 280.777,284.007 280.798,283.866 280.939 C 283.725 281.080,284.477 281.488,285.537 281.846 C 292.209 284.098,307.311 284.137,311.802 281.914 C 312.347 281.644,312.793 281.501,312.793 281.596 C 312.793 281.870,317.401 280.072,320.270 278.678 C 321.806 277.933,322.786 277.252,322.647 277.027 C 322.510 276.805,322.582 276.751,322.820 276.898 C 323.380 277.244,324.763 276.455,324.459 275.962 C 324.321 275.739,324.376 275.665,324.585 275.794 C 325.257 276.210,330.597 271.880,330.202 271.241 C 330.079 271.042,330.156 270.989,330.373 271.123 C 330.589 271.257,331.384 270.751,332.140 269.998 C 333.831 268.314,337.063 264.505,336.801 264.505 C 336.696 264.505,337.016 264.098,337.513 263.601 C 338.012 263.102,338.303 262.511,338.162 262.284 C 338.004 262.029,338.066 261.969,338.323 262.128 C 338.552 262.269,338.739 262.216,338.739 262.009 C 338.739 261.802,339.241 260.816,339.855 259.818 C 340.470 258.819,340.877 257.754,340.760 257.451 C 340.644 257.148,340.700 256.993,340.884 257.107 C 341.323 257.378,342.431 254.837,343.764 250.505 C 352.518 222.062,332.903 193.084,302.987 190.263 C 298.418 189.832,298.642 189.943,297.903 187.748 C 297.602 186.856,296.678 184.505,295.848 182.523 C 295.019 180.541,293.926 177.911,293.421 176.680 C 292.914 175.446,292.340 174.540,292.141 174.663 C 291.943 174.786,291.887 174.714,292.017 174.503 C 292.147 174.293,291.686 172.632,290.992 170.813 C 289.496 166.893,289.545 167.332,290.541 166.797 C 292.853 165.555,303.228 165.575,309.910 166.835 M152.038 186.575 C 152.750 187.120,153.467 187.521,153.630 187.467 C 153.794 187.414,153.840 187.510,153.734 187.682 C 153.628 187.854,154.425 188.967,155.505 190.155 C 157.755 192.628,158.933 194.196,159.999 196.139 C 160.443 196.947,160.912 197.402,161.151 197.254 C 161.387 197.108,161.452 197.168,161.308 197.401 C 160.994 197.910,164.468 204.412,164.863 204.054 C 165.027 203.905,165.045 203.984,164.905 204.229 C 164.764 204.474,165.224 206.002,165.928 207.626 C 166.632 209.249,167.207 210.802,167.207 211.076 C 167.207 211.361,167.385 211.464,167.623 211.317 C 167.878 211.159,167.942 211.218,167.787 211.468 C 167.648 211.693,167.710 212.205,167.924 212.605 C 168.312 213.329,168.246 213.333,155.508 213.333 C 146.736 213.333,142.703 213.213,142.703 212.952 C 142.703 212.742,142.515 212.686,142.287 212.827 C 142.049 212.974,141.968 212.927,142.097 212.718 C 142.364 212.287,141.354 209.455,140.624 208.585 C 140.121 207.986,140.639 206.389,142.583 202.548 C 142.827 202.067,142.928 201.515,142.809 201.322 C 142.689 201.128,142.767 201.078,142.981 201.211 C 143.201 201.346,143.481 201.095,143.621 200.636 C 143.758 200.187,144.482 198.523,145.230 196.937 C 147.856 191.366,149.870 187.006,149.936 186.747 C 150.294 185.334,150.401 185.325,152.038 186.575 " stroke="none" fill="#089b66" fill-rule="evenodd"></path></g></svg>