<svg id="svg" version="1.1" xmlns="http://www.w3.org/2000/svg" xmlns:xlink="http://www.w3.org/1999/xlink" width="400" height="400" viewBox="0, 0, 400,400"><g id="svgg"><path id="path0" d="M196.800 67.876 C 172.360 70.465,153.625 77.520,132.513 92.085 C 127.159 95.778,116.989 105.035,112.240 110.537 C 105.997 117.769,105.853 117.959,101.047 125.200 C 97.400 130.696,92.230 140.260,90.452 144.800 C 90.150 145.570,89.498 147.100,89.002 148.200 C 87.127 152.361,83.941 163.123,82.628 169.734 C 77.600 195.051,80.186 223.676,89.391 244.600 C 89.972 245.920,90.556 247.360,90.691 247.800 C 92.294 253.056,103.017 270.740,108.396 277.000 C 109.531 278.320,111.245 280.311,112.205 281.423 C 117.087 287.082,127.206 296.297,132.530 299.935 C 145.990 309.129,155.083 313.791,168.000 318.119 C 191.398 325.960,219.763 326.521,244.200 319.628 C 252.947 317.161,268.017 310.705,273.200 307.205 C 273.750 306.834,274.470 306.404,274.800 306.249 C 275.769 305.796,276.838 305.121,279.947 303.000 C 281.559 301.900,283.169 300.820,283.525 300.600 C 283.881 300.380,285.417 299.210,286.938 298.000 C 288.460 296.790,290.274 295.350,290.969 294.800 C 294.319 292.151,301.966 284.664,305.275 280.793 C 306.306 279.587,307.992 277.610,309.021 276.400 C 310.050 275.190,311.677 273.030,312.637 271.600 C 313.597 270.170,315.062 267.995,315.891 266.766 C 322.027 257.680,328.038 244.973,331.458 233.861 C 332.254 231.274,332.075 231.222,328.913 233.127 C 308.764 245.269,278.775 249.557,254.444 243.776 C 239.384 240.198,221.574 231.621,212.959 223.800 C 212.717 223.580,210.770 221.878,208.633 220.017 C 165.251 182.247,162.311 115.309,202.111 71.500 L 205.654 67.600 201.927 67.664 C 199.877 67.699,197.570 67.795,196.800 67.876 " stroke="none" fill="#fffde3" fill-rule="evenodd"></path><path id="path1" d="M180.600 0.623 C 171.380 1.458,159.861 3.144,158.769 3.819 C 158.575 3.939,157.198 4.277,155.708 4.572 C 150.366 5.626,143.870 7.210,143.439 7.563 C 143.057 7.875,140.367 8.746,138.904 9.031 C 137.884 9.230,132.956 10.887,131.800 11.420 C 131.140 11.724,128.620 12.678,126.200 13.540 C 123.780 14.402,121.170 15.465,120.400 15.904 C 119.630 16.343,117.650 17.209,116.000 17.829 C 114.350 18.448,112.678 19.281,112.284 19.678 C 111.891 20.075,111.351 20.406,111.084 20.414 C 110.475 20.432,101.384 25.016,100.800 25.600 C 100.690 25.710,99.970 26.146,99.200 26.570 C 98.430 26.993,97.710 27.443,97.600 27.570 C 97.490 27.696,96.590 28.231,95.600 28.758 C 94.610 29.284,93.237 30.132,92.549 30.640 C 91.862 31.149,91.191 31.457,91.059 31.325 C 90.927 31.193,90.705 31.381,90.567 31.743 C 90.428 32.104,90.157 32.400,89.965 32.400 C 89.456 32.400,85.104 35.219,84.400 36.005 C 84.070 36.374,83.620 36.748,83.400 36.837 C 82.257 37.302,80.009 39.065,80.005 39.500 C 80.002 39.775,79.717 40.000,79.371 40.000 C 79.026 40.000,78.514 40.225,78.235 40.500 C 77.955 40.775,77.123 41.450,76.385 42.000 C 75.647 42.550,74.406 43.540,73.626 44.200 C 72.846 44.860,71.960 45.580,71.658 45.800 C 71.356 46.020,70.539 46.740,69.844 47.400 C 69.148 48.060,67.954 49.070,67.189 49.645 C 64.174 51.914,50.103 66.212,48.412 68.725 C 48.088 69.206,47.605 69.600,47.339 69.600 C 47.072 69.600,46.740 69.959,46.601 70.398 C 46.462 70.836,46.134 71.421,45.874 71.698 C 44.989 72.636,43.004 75.038,42.000 76.385 C 41.450 77.123,40.775 77.955,40.500 78.235 C 40.225 78.514,40.000 79.026,40.000 79.371 C 40.000 79.717,39.775 80.002,39.500 80.005 C 39.065 80.009,37.302 82.257,36.837 83.400 C 36.748 83.620,36.374 84.070,36.005 84.400 C 35.184 85.136,32.400 89.466,32.400 90.008 C 32.400 90.223,32.220 90.400,32.000 90.400 C 31.780 90.400,31.600 90.592,31.600 90.827 C 31.600 91.061,31.176 91.826,30.658 92.527 C 30.139 93.227,29.284 94.610,28.758 95.600 C 28.231 96.590,27.696 97.490,27.570 97.600 C 27.443 97.710,26.993 98.430,26.570 99.200 C 26.146 99.970,25.710 100.690,25.600 100.800 C 25.490 100.910,24.976 101.810,24.458 102.800 C 23.939 103.790,22.837 105.893,22.007 107.474 C 21.178 109.055,20.384 110.810,20.242 111.374 C 20.101 111.938,19.804 112.400,19.582 112.400 C 19.228 112.400,18.466 113.876,18.240 115.000 C 18.135 115.523,17.004 118.089,15.772 120.600 C 15.232 121.700,14.155 124.400,13.379 126.600 C 12.603 128.800,11.732 131.140,11.444 131.800 C 10.618 133.692,9.291 137.808,8.970 139.476 C 8.780 140.460,7.884 143.015,7.594 143.400 C 7.353 143.719,6.923 145.201,6.606 146.800 C 6.458 147.543,4.602 155.438,4.114 157.400 C -1.470 179.827,-1.452 219.584,4.153 242.800 C 4.498 244.230,5.349 247.830,6.045 250.800 C 6.740 253.770,7.441 256.380,7.602 256.600 C 7.921 257.035,8.732 259.424,8.974 260.641 C 9.057 261.059,9.409 262.210,9.757 263.200 C 10.104 264.190,10.391 265.227,10.394 265.504 C 10.397 265.782,10.754 266.772,11.186 267.704 C 11.618 268.637,12.533 271.003,13.219 272.962 C 13.905 274.922,15.184 278.072,16.061 279.962 C 18.155 284.480,18.302 284.825,18.624 286.000 C 18.776 286.550,19.237 287.322,19.650 287.716 C 20.062 288.109,20.400 288.661,20.400 288.942 C 20.400 289.399,21.550 291.747,24.445 297.200 C 24.970 298.190,25.490 299.090,25.600 299.200 C 25.710 299.310,26.146 300.030,26.570 300.800 C 26.993 301.570,27.443 302.290,27.570 302.400 C 27.696 302.510,28.231 303.410,28.758 304.400 C 29.284 305.390,30.139 306.773,30.658 307.473 C 31.176 308.174,31.600 308.939,31.600 309.173 C 31.600 309.408,31.780 309.600,32.000 309.600 C 32.220 309.600,32.400 309.777,32.400 309.992 C 32.400 310.534,35.184 314.864,36.005 315.600 C 36.374 315.930,36.748 316.380,36.837 316.600 C 37.302 317.743,39.065 319.991,39.500 319.995 C 39.775 319.998,40.000 320.283,40.000 320.629 C 40.000 320.974,40.225 321.486,40.500 321.765 C 40.775 322.045,41.450 322.877,42.000 323.615 C 42.550 324.353,43.540 325.594,44.200 326.374 C 44.860 327.154,45.580 328.040,45.800 328.342 C 46.020 328.644,46.740 329.462,47.400 330.159 C 48.060 330.857,49.317 332.321,50.193 333.414 C 52.217 335.938,65.004 348.710,67.042 350.244 C 67.887 350.880,69.148 351.940,69.844 352.600 C 70.539 353.260,71.356 353.980,71.658 354.200 C 71.960 354.420,72.846 355.140,73.626 355.800 C 74.406 356.460,75.647 357.450,76.385 358.000 C 77.123 358.550,77.955 359.225,78.235 359.500 C 78.514 359.775,78.927 360.000,79.152 360.000 C 79.376 360.000,79.704 360.226,79.880 360.502 C 80.259 361.097,83.023 363.200,83.426 363.200 C 83.580 363.200,83.997 363.529,84.353 363.932 C 85.115 364.795,89.440 367.600,90.008 367.600 C 90.223 367.600,90.400 367.786,90.400 368.013 C 90.400 368.239,90.706 368.543,91.080 368.686 C 91.454 368.830,92.891 369.634,94.273 370.474 C 95.655 371.313,96.969 372.000,97.193 372.000 C 97.417 372.000,97.600 372.139,97.600 372.309 C 97.600 372.479,98.275 372.972,99.100 373.405 C 99.925 373.838,100.690 374.284,100.800 374.396 C 100.910 374.508,101.810 375.024,102.800 375.542 C 103.790 376.061,105.937 377.186,107.570 378.042 C 109.204 378.899,110.723 379.600,110.945 379.600 C 111.167 379.600,111.720 379.935,112.174 380.345 C 112.628 380.755,114.350 381.589,116.000 382.199 C 117.650 382.808,119.570 383.648,120.267 384.065 C 120.964 384.483,123.574 385.543,126.067 386.421 C 128.560 387.299,130.960 388.189,131.400 388.397 C 133.215 389.258,137.552 390.723,139.562 391.154 C 140.744 391.408,142.272 391.868,142.956 392.176 C 144.291 392.777,145.407 393.132,146.827 393.405 C 147.316 393.499,148.276 393.741,148.959 393.942 C 149.641 394.144,151.280 394.529,152.600 394.799 C 153.920 395.070,156.080 395.559,157.400 395.887 C 179.493 401.377,220.825 401.356,242.800 395.844 C 244.010 395.540,246.080 395.065,247.400 394.787 C 251.291 393.970,255.711 392.783,257.000 392.209 C 257.660 391.916,259.010 391.467,260.000 391.212 C 264.009 390.178,266.280 389.466,267.800 388.765 C 268.680 388.360,271.425 387.307,273.900 386.426 C 276.375 385.545,279.075 384.461,279.900 384.017 C 282.299 382.727,284.744 381.676,285.976 381.405 C 286.603 381.267,287.434 380.805,287.821 380.377 C 288.207 379.950,288.691 379.600,288.895 379.600 C 289.393 379.600,298.693 374.907,299.200 374.400 C 299.310 374.290,300.030 373.854,300.800 373.430 C 301.570 373.007,302.290 372.557,302.400 372.430 C 302.510 372.304,303.410 371.769,304.400 371.242 C 305.390 370.716,306.763 369.868,307.451 369.360 C 308.138 368.851,308.809 368.543,308.941 368.675 C 309.073 368.807,309.295 368.619,309.433 368.257 C 309.572 367.896,309.843 367.600,310.035 367.600 C 310.544 367.600,314.896 364.781,315.600 363.995 C 315.930 363.626,316.380 363.252,316.600 363.163 C 317.743 362.698,319.991 360.935,319.995 360.500 C 319.998 360.225,320.283 360.000,320.629 360.000 C 320.974 360.000,321.486 359.775,321.765 359.500 C 322.045 359.225,322.877 358.550,323.615 358.000 C 324.962 356.996,327.364 355.011,328.302 354.126 C 328.579 353.866,329.164 353.538,329.602 353.399 C 330.041 353.260,330.402 352.933,330.404 352.673 C 330.406 352.413,330.986 351.750,331.693 351.200 C 335.348 348.357,350.800 333.126,350.800 332.367 C 350.800 332.200,351.475 331.346,352.300 330.469 C 353.125 329.591,353.980 328.630,354.200 328.333 C 354.420 328.036,355.140 327.154,355.800 326.374 C 356.460 325.594,357.450 324.357,358.000 323.625 C 358.550 322.893,359.311 321.934,359.692 321.495 C 360.072 321.056,360.287 320.540,360.168 320.348 C 360.050 320.157,360.188 319.998,360.476 319.995 C 360.930 319.991,362.687 317.770,363.163 316.600 C 363.252 316.380,363.626 315.930,363.995 315.600 C 364.781 314.896,367.600 310.544,367.600 310.035 C 367.600 309.843,367.870 309.582,368.200 309.455 C 368.530 309.329,368.800 309.058,368.800 308.853 C 368.800 308.649,369.520 307.297,370.400 305.848 C 371.280 304.400,372.000 303.031,372.000 302.807 C 372.000 302.583,372.139 302.400,372.309 302.400 C 372.479 302.400,372.972 301.725,373.405 300.900 C 373.838 300.075,374.284 299.310,374.396 299.200 C 374.508 299.090,375.024 298.190,375.542 297.200 C 376.061 296.210,377.186 294.063,378.042 292.430 C 378.899 290.796,379.600 289.249,379.600 288.992 C 379.600 288.734,379.944 288.213,380.364 287.833 C 380.784 287.452,381.240 286.659,381.377 286.071 C 381.513 285.482,381.957 284.280,382.363 283.400 C 382.769 282.520,383.685 280.540,384.399 279.000 C 386.072 275.394,386.175 275.130,387.224 271.800 C 387.710 270.260,388.232 268.820,388.384 268.600 C 388.752 268.070,389.828 265.046,390.448 262.800 C 391.076 260.521,390.973 260.892,391.567 258.800 C 391.848 257.810,392.216 256.820,392.385 256.600 C 392.553 256.380,393.260 253.770,393.955 250.800 C 394.651 247.830,395.503 244.230,395.850 242.800 C 397.103 237.629,398.133 231.217,399.223 221.800 C 399.810 216.734,400.067 187.977,399.576 182.400 C 399.248 178.671,398.469 171.992,397.758 166.797 C 397.429 164.399,396.629 160.389,395.842 157.200 C 395.490 155.770,395.026 153.790,394.811 152.800 C 393.784 148.065,392.676 143.761,392.391 143.400 C 392.218 143.180,391.781 141.920,391.420 140.600 C 390.087 135.714,389.467 133.761,388.756 132.200 C 388.356 131.320,387.307 128.575,386.426 126.100 C 385.545 123.625,384.461 120.925,384.017 120.100 C 382.727 117.701,381.676 115.256,381.405 114.024 C 381.267 113.397,380.805 112.566,380.377 112.179 C 379.950 111.793,379.600 111.309,379.600 111.105 C 379.600 110.591,374.924 101.324,374.400 100.800 C 374.290 100.690,373.854 99.970,373.430 99.200 C 373.007 98.430,372.557 97.710,372.430 97.600 C 372.304 97.490,371.769 96.590,371.242 95.600 C 370.716 94.610,369.861 93.227,369.342 92.527 C 368.824 91.826,368.400 91.061,368.400 90.827 C 368.400 90.592,368.220 90.400,368.000 90.400 C 367.780 90.400,367.600 90.223,367.600 90.008 C 367.600 89.466,364.816 85.136,363.995 84.400 C 363.626 84.070,363.252 83.620,363.163 83.400 C 362.698 82.257,360.935 80.009,360.500 80.005 C 360.225 80.002,360.000 79.717,360.000 79.371 C 360.000 79.026,359.775 78.514,359.500 78.235 C 359.225 77.955,358.550 77.123,358.000 76.385 C 356.996 75.038,355.011 72.636,354.126 71.698 C 353.866 71.421,353.538 70.836,353.399 70.398 C 353.260 69.959,352.933 69.598,352.673 69.596 C 352.413 69.594,351.750 69.014,351.200 68.307 C 348.226 64.484,337.209 53.281,333.357 50.162 C 332.296 49.303,330.857 48.060,330.159 47.400 C 329.462 46.740,328.644 46.020,328.342 45.800 C 328.040 45.580,327.154 44.860,326.374 44.200 C 325.594 43.540,324.353 42.550,323.615 42.000 C 322.877 41.450,322.045 40.775,321.765 40.500 C 321.486 40.225,320.974 40.000,320.629 40.000 C 320.283 40.000,319.998 39.775,319.995 39.500 C 319.991 39.065,317.743 37.302,316.600 36.837 C 316.380 36.748,315.930 36.374,315.600 36.005 C 314.889 35.211,310.542 32.400,310.026 32.400 C 309.828 32.400,309.607 32.251,309.533 32.068 C 309.361 31.640,303.343 28.000,302.807 28.000 C 302.583 28.000,302.400 27.861,302.400 27.691 C 302.400 27.521,301.725 27.028,300.900 26.595 C 300.075 26.162,299.310 25.716,299.200 25.604 C 298.632 25.025,289.531 20.432,288.916 20.414 C 288.649 20.406,288.109 20.075,287.716 19.678 C 287.322 19.281,285.650 18.448,284.000 17.829 C 282.350 17.209,280.370 16.340,279.600 15.898 C 278.830 15.455,276.220 14.390,273.800 13.531 C 271.380 12.671,268.860 11.719,268.200 11.415 C 267.540 11.111,266.460 10.733,265.800 10.576 C 265.140 10.418,264.420 10.159,264.200 9.999 C 263.980 9.838,263.350 9.611,262.800 9.494 C 260.560 9.015,257.019 7.949,256.623 7.634 C 256.137 7.248,253.024 6.457,246.238 4.996 C 243.618 4.432,241.341 3.887,241.177 3.786 C 240.024 3.073,225.653 1.088,216.681 0.402 C 209.429 -0.152,187.691 -0.019,180.600 0.623 M202.111 71.500 C 162.311 115.309,165.251 182.247,208.633 220.017 C 210.770 221.878,212.717 223.580,212.959 223.800 C 221.574 231.621,239.384 240.198,254.444 243.776 C 278.775 249.557,308.764 245.269,328.913 233.127 C 330.405 232.228,331.722 231.589,331.840 231.707 C 332.544 232.411,327.121 246.424,323.060 254.393 C 320.237 259.931,318.612 262.737,315.891 266.766 C 315.062 267.995,313.597 270.170,312.637 271.600 C 311.677 273.030,310.050 275.190,309.021 276.400 C 307.992 277.610,306.306 279.587,305.275 280.793 C 301.966 284.664,294.319 292.151,290.969 294.800 C 290.274 295.350,288.460 296.790,286.938 298.000 C 285.417 299.210,283.881 300.380,283.525 300.600 C 283.169 300.820,281.559 301.900,279.947 303.000 C 276.838 305.121,275.769 305.796,274.800 306.249 C 274.470 306.404,273.750 306.834,273.200 307.205 C 250.731 322.378,211.447 328.323,179.800 321.341 C 162.970 317.627,149.503 311.528,132.530 299.935 C 127.206 296.297,117.087 287.082,112.205 281.423 C 105.988 274.218,105.848 274.035,101.047 266.800 C 97.513 261.475,91.492 250.428,90.691 247.800 C 90.556 247.360,89.972 245.920,89.391 244.600 C 80.186 223.676,77.600 195.051,82.628 169.734 C 83.941 163.123,87.127 152.361,89.002 148.200 C 89.498 147.100,90.150 145.570,90.452 144.800 C 93.594 136.778,102.756 121.563,108.396 115.000 C 109.531 113.680,111.260 111.671,112.240 110.537 C 121.651 99.634,134.806 89.412,149.000 81.972 C 163.686 74.275,178.984 69.764,196.800 67.876 C 197.570 67.795,199.877 67.699,201.927 67.664 L 205.654 67.600 202.111 71.500 " stroke="none" fill="#2d019e" fill-rule="evenodd"></path></g></svg>