<svg id="svg" version="1.1" xmlns="http://www.w3.org/2000/svg" xmlns:xlink="http://www.w3.org/1999/xlink" width="400" height="400" viewBox="0, 0, 400,400"><g id="svgg"><path id="path0" d="M131.866 45.700 C 129.768 48.270,122.482 58.184,122.595 58.314 C 122.650 58.377,123.663 58.067,124.847 57.626 C 130.401 55.557,139.530 54.021,146.356 54.007 L 149.712 54.000 148.356 53.076 C 147.610 52.568,144.427 50.318,141.282 48.076 C 134.554 43.279,133.963 43.130,131.866 45.700 M169.600 48.755 C 168.830 49.151,165.540 50.615,162.290 52.008 C 155.680 54.840,155.670 54.859,160.400 55.803 C 166.225 56.965,175.784 60.765,179.707 63.477 C 181.953 65.030,181.892 64.737,178.321 56.844 C 174.061 47.426,173.391 46.806,169.600 48.755 M97.806 60.394 C 97.096 61.178,96.157 67.069,95.413 75.400 L 95.127 78.600 96.646 76.800 C 101.215 71.386,111.165 63.431,115.300 61.886 C 116.103 61.587,116.247 60.802,115.500 60.795 C 115.225 60.792,112.300 60.526,109.000 60.203 C 100.584 59.380,98.694 59.412,97.806 60.394 M138.600 61.668 C 99.674 66.089,76.292 109.806,93.951 145.146 C 115.210 187.691,175.861 188.190,197.682 146.000 C 219.144 104.503,185.410 56.351,138.600 61.668 M191.210 72.447 C 195.870 77.044,199.806 82.066,202.534 86.897 L 204.328 90.073 204.585 87.337 C 204.727 85.832,205.002 83.430,205.196 82.000 C 205.391 80.570,205.672 77.768,205.821 75.774 L 206.092 72.148 204.815 71.074 C 204.016 70.402,203.063 70.000,202.267 70.000 C 201.128 70.000,194.340 69.262,189.000 68.558 L 187.000 68.294 191.210 72.447 M83.699 86.946 C 72.684 91.972,73.119 90.304,79.178 104.293 C 81.508 109.672,81.764 109.870,82.150 106.586 C 82.714 101.786,87.480 89.598,90.552 85.100 C 91.877 83.159,92.172 83.080,83.699 86.946 M207.200 96.225 C 207.200 96.386,207.723 98.156,208.363 100.159 C 210.033 105.389,211.200 112.841,211.200 118.274 C 211.200 123.428,211.197 123.426,213.761 119.710 C 214.789 118.220,216.884 115.205,218.417 113.011 C 221.693 108.319,221.872 107.875,221.017 106.570 C 220.115 105.193,207.200 95.524,207.200 96.225 M76.039 122.208 C 69.247 131.728,69.256 131.336,75.699 136.088 C 78.168 137.910,81.181 140.150,82.394 141.066 C 85.164 143.158,85.126 143.242,83.656 138.323 C 81.942 132.588,81.105 127.512,80.833 121.208 L 80.600 115.817 76.039 122.208 M210.230 130.484 C 210.124 130.988,209.844 132.390,209.607 133.600 C 208.551 139.012,205.472 146.872,202.266 152.342 C 200.491 155.370,200.345 155.376,207.508 152.131 C 218.368 147.212,218.319 147.261,216.617 143.006 C 216.012 141.494,215.358 139.974,215.164 139.628 C 214.655 138.723,212.866 134.549,211.941 132.108 C 211.023 129.684,210.503 129.191,210.230 130.484 M87.438 151.696 C 87.291 153.293,86.898 157.027,86.565 159.993 C 85.688 167.804,85.845 168.067,91.800 168.770 C 93.780 169.004,96.840 169.372,98.600 169.589 C 100.360 169.806,102.569 170.074,103.508 170.185 L 105.217 170.387 101.353 166.693 C 95.953 161.532,92.960 157.748,89.174 151.296 L 87.704 148.791 87.438 151.696 M191.600 165.610 C 186.962 170.257,182.188 173.914,176.768 176.972 L 175.400 177.744 183.200 178.449 C 193.301 179.362,193.071 179.365,194.159 178.277 C 194.902 177.535,195.170 176.618,195.535 173.577 C 196.333 166.933,196.874 161.218,196.735 160.905 C 196.661 160.737,194.350 162.854,191.600 165.610 M110.400 174.128 C 110.400 174.705,117.303 189.468,117.812 189.980 C 118.723 190.896,120.756 190.647,124.000 189.223 C 129.468 186.822,130.180 186.512,132.800 185.382 C 135.923 184.035,136.500 183.600,135.162 183.600 C 130.746 183.600,114.835 177.507,110.900 174.308 C 110.625 174.085,110.400 174.004,110.400 174.128 M168.000 180.771 C 167.235 181.214,158.773 183.431,156.400 183.811 C 155.410 183.969,151.811 184.212,148.401 184.350 L 142.203 184.600 149.040 189.453 C 158.728 196.331,157.729 196.444,164.219 187.727 C 166.810 184.247,169.103 181.175,169.314 180.900 C 169.767 180.310,168.939 180.228,168.000 180.771 " stroke="none" fill="#ff8516" fill-rule="evenodd"></path><path id="path1" d="M184.200 0.410 C 174.762 1.076,170.489 1.530,169.800 1.940 C 169.580 2.071,169.220 2.204,169.000 2.235 C 168.780 2.267,166.350 2.611,163.600 2.999 C 160.850 3.387,158.510 3.835,158.400 3.993 C 158.290 4.152,156.404 4.602,154.209 4.994 C 152.014 5.386,149.944 5.856,149.609 6.038 C 149.274 6.220,147.650 6.725,146.000 7.160 C 140.565 8.591,137.024 9.648,136.609 9.964 C 136.384 10.135,135.030 10.592,133.600 10.980 C 132.170 11.369,130.820 11.823,130.600 11.990 C 130.380 12.157,129.210 12.612,128.000 13.000 C 126.790 13.388,125.616 13.850,125.390 14.027 C 125.165 14.204,124.085 14.651,122.990 15.021 C 121.896 15.391,120.910 15.816,120.800 15.964 C 120.690 16.112,119.811 16.488,118.847 16.798 C 117.883 17.109,116.861 17.596,116.576 17.881 C 116.290 18.167,115.870 18.400,115.641 18.400 C 115.276 18.400,110.001 20.894,107.800 22.106 C 107.360 22.349,106.460 22.818,105.800 23.150 C 105.140 23.481,104.353 23.997,104.052 24.296 C 103.750 24.595,102.970 24.946,102.317 25.077 C 101.665 25.207,101.037 25.558,100.923 25.857 C 100.808 26.156,100.495 26.400,100.226 26.400 C 99.957 26.400,98.851 26.967,97.769 27.660 C 96.686 28.353,95.170 29.316,94.400 29.799 C 93.630 30.283,91.947 31.381,90.660 32.239 C 86.004 35.345,84.980 36.015,83.837 36.702 C 83.198 37.086,82.386 37.670,82.034 38.000 C 81.681 38.330,80.044 39.627,78.396 40.883 C 73.474 44.632,68.743 48.515,65.636 51.355 C 62.796 53.951,51.147 65.774,49.600 67.630 C 48.830 68.554,47.390 70.254,46.400 71.407 C 45.410 72.561,44.240 73.992,43.800 74.587 C 43.360 75.183,42.595 76.080,42.100 76.581 C 41.605 77.082,41.200 77.622,41.200 77.782 C 41.200 77.942,40.570 78.809,39.800 79.708 C 39.030 80.608,38.400 81.492,38.400 81.672 C 38.400 81.982,38.131 82.328,36.200 84.500 C 35.761 84.994,35.131 85.866,34.800 86.437 C 33.285 89.056,32.548 90.180,31.900 90.863 C 31.515 91.268,31.200 91.741,31.200 91.913 C 31.200 92.201,28.857 96.067,28.117 97.000 C 27.943 97.220,27.440 98.117,27.000 98.994 C 26.560 99.871,26.003 100.800,25.763 101.060 C 25.522 101.319,25.082 102.132,24.785 102.866 C 24.488 103.600,24.125 104.290,23.979 104.400 C 23.514 104.748,22.400 107.134,22.400 107.780 C 22.400 108.121,22.240 108.400,22.043 108.400 C 21.847 108.400,21.387 109.075,21.020 109.900 C 20.653 110.725,19.924 112.210,19.400 113.200 C 18.876 114.190,18.437 115.315,18.424 115.700 C 18.411 116.085,18.227 116.400,18.015 116.400 C 17.804 116.400,17.427 117.165,17.179 118.100 C 16.930 119.035,16.405 120.340,16.012 121.000 C 15.619 121.660,15.072 122.920,14.796 123.800 C 14.521 124.680,14.163 125.580,14.001 125.800 C 13.839 126.020,13.388 127.190,13.000 128.400 C 12.612 129.610,12.165 130.780,12.008 131.000 C 11.600 131.571,10.400 135.432,10.400 136.175 C 10.400 136.519,10.263 136.800,10.095 136.800 C 9.927 136.800,9.458 138.015,9.053 139.500 C 8.647 140.985,8.086 142.740,7.805 143.400 C 7.525 144.060,7.068 145.860,6.790 147.400 C 6.511 148.940,6.136 150.297,5.956 150.415 C 5.777 150.532,5.349 152.332,5.007 154.415 C 4.665 156.497,4.217 158.499,4.012 158.863 C 3.807 159.228,3.341 161.658,2.976 164.263 C 2.612 166.869,2.163 169.360,1.979 169.800 C 1.794 170.240,1.456 172.490,1.227 174.800 C 0.998 177.110,0.708 179.900,0.584 181.000 C 0.196 184.419,0.042 211.175,0.385 215.600 C 1.164 225.655,1.302 227.096,1.652 228.800 C 1.855 229.790,2.375 232.850,2.808 235.600 C 3.241 238.350,3.762 240.960,3.966 241.400 C 4.170 241.840,4.646 243.910,5.024 246.000 C 5.402 248.090,5.847 249.980,6.012 250.200 C 6.178 250.420,6.531 251.680,6.796 253.000 C 7.062 254.320,7.525 255.940,7.826 256.600 C 8.126 257.260,8.568 258.692,8.806 259.782 C 9.045 260.872,9.487 262.312,9.789 262.982 C 10.090 263.652,10.639 265.280,11.008 266.600 C 11.378 267.920,11.808 269.090,11.965 269.200 C 12.122 269.310,12.578 270.480,12.980 271.800 C 13.382 273.120,13.854 274.384,14.029 274.610 C 14.205 274.835,14.651 275.915,15.021 277.010 C 15.391 278.104,15.816 279.090,15.964 279.200 C 16.112 279.310,16.488 280.189,16.798 281.153 C 17.109 282.117,17.596 283.139,17.881 283.424 C 18.167 283.710,18.400 284.099,18.400 284.289 C 18.400 284.676,21.325 290.845,22.246 292.400 C 22.572 292.950,23.027 293.895,23.258 294.500 C 23.489 295.105,23.812 295.600,23.975 295.600 C 24.138 295.600,24.516 296.339,24.814 297.243 C 25.112 298.146,25.591 298.975,25.878 299.085 C 26.165 299.195,26.400 299.497,26.400 299.756 C 26.400 300.261,28.763 304.194,29.681 305.217 C 29.985 305.557,30.468 306.399,30.754 307.088 C 31.039 307.778,31.617 308.653,32.037 309.033 C 32.456 309.413,32.800 309.895,32.800 310.104 C 32.800 310.313,33.205 310.983,33.700 311.592 C 34.195 312.201,34.960 313.301,35.400 314.036 C 37.340 317.278,37.700 317.832,38.214 318.365 C 38.680 318.849,38.731 318.820,38.562 318.165 C 38.414 317.592,38.845 317.078,40.282 316.115 C 41.337 315.408,46.520 311.664,51.800 307.793 C 57.080 303.923,62.030 300.317,62.800 299.780 C 65.754 297.719,66.923 296.874,72.461 292.800 C 75.602 290.490,78.568 288.330,79.054 288.000 C 80.218 287.209,87.554 281.886,94.886 276.513 C 98.124 274.141,102.152 271.210,103.838 270.000 C 105.524 268.790,108.005 266.987,109.352 265.994 C 112.947 263.341,121.481 257.125,122.797 256.200 C 123.423 255.760,126.412 253.600,129.440 251.400 C 132.468 249.200,135.703 246.860,136.629 246.200 C 137.555 245.540,142.871 241.670,148.442 237.600 C 154.014 233.530,158.971 229.930,159.458 229.600 C 160.445 228.931,176.849 217.007,179.475 215.049 C 180.396 214.362,182.892 212.540,185.020 211.000 C 187.149 209.460,190.740 206.850,193.000 205.200 C 195.261 203.550,198.490 201.210,200.176 200.000 C 201.862 198.790,205.082 196.450,207.330 194.800 C 211.783 191.533,216.255 188.286,225.200 181.825 C 228.390 179.521,232.778 176.323,234.952 174.718 C 237.125 173.113,239.674 171.260,240.616 170.600 C 241.558 169.940,244.546 167.780,247.255 165.800 C 249.965 163.820,252.636 161.894,253.191 161.520 C 253.746 161.146,256.540 159.118,259.400 157.012 C 264.395 153.335,271.847 147.919,275.379 145.400 C 276.304 144.740,281.247 141.140,286.363 137.400 C 291.479 133.660,296.325 130.136,297.133 129.568 C 297.940 129.001,302.290 125.841,306.800 122.547 C 311.310 119.254,316.800 115.268,319.000 113.690 C 321.200 112.112,325.649 108.881,328.886 106.511 C 332.124 104.140,336.149 101.210,337.831 100.000 C 339.514 98.790,342.739 96.450,345.000 94.800 C 347.260 93.150,350.844 90.540,352.965 89.000 C 362.957 81.742,362.448 82.390,360.192 79.804 C 359.427 78.927,358.800 78.080,358.800 77.923 C 358.800 77.765,358.395 77.195,357.900 76.656 C 357.405 76.117,356.550 75.089,356.000 74.371 C 355.153 73.265,353.374 71.141,351.800 69.355 C 351.580 69.105,350.410 67.756,349.200 66.358 C 346.666 63.429,334.536 51.200,334.165 51.200 C 334.029 51.200,333.261 50.581,332.459 49.825 C 331.656 49.069,329.920 47.532,328.600 46.410 C 327.280 45.287,325.834 44.016,325.386 43.584 C 324.938 43.153,324.417 42.800,324.228 42.800 C 324.039 42.800,323.505 42.423,323.042 41.963 C 321.895 40.823,316.479 36.800,316.091 36.800 C 315.919 36.800,315.488 36.485,315.133 36.100 C 314.779 35.715,313.208 34.603,311.644 33.628 C 310.080 32.654,308.800 31.709,308.800 31.528 C 308.800 31.348,308.575 31.199,308.300 31.199 C 308.025 31.198,307.178 30.793,306.418 30.299 C 304.287 28.914,301.507 27.255,300.400 26.710 C 299.850 26.438,299.310 26.104,299.200 25.967 C 299.090 25.830,298.280 25.386,297.400 24.980 C 296.520 24.574,295.710 24.122,295.600 23.977 C 295.250 23.513,292.864 22.400,292.220 22.400 C 291.879 22.400,291.600 22.238,291.600 22.039 C 291.600 21.841,291.105 21.489,290.500 21.258 C 289.895 21.027,288.950 20.572,288.400 20.245 C 286.813 19.304,284.725 18.400,284.139 18.400 C 283.842 18.400,283.600 18.234,283.600 18.032 C 283.600 17.830,282.655 17.352,281.500 16.971 C 280.345 16.589,279.040 16.055,278.600 15.783 C 278.160 15.511,277.080 15.066,276.200 14.792 C 275.320 14.519,274.416 14.151,274.190 13.974 C 273.965 13.797,272.885 13.360,271.790 13.003 C 270.696 12.647,269.260 12.111,268.600 11.813 C 267.940 11.514,266.590 11.042,265.600 10.763 C 264.610 10.484,263.620 10.146,263.400 10.011 C 262.812 9.652,260.406 8.907,258.800 8.587 C 258.030 8.433,257.207 8.153,256.970 7.963 C 256.734 7.774,255.204 7.343,253.570 7.007 C 251.937 6.671,250.240 6.213,249.800 5.991 C 248.943 5.557,244.283 4.560,235.600 2.953 C 226.401 1.250,226.105 1.213,215.471 0.415 C 210.391 0.034,189.570 0.030,184.200 0.410 M154.329 32.017 C 162.968 33.418,170.310 39.502,171.776 46.473 C 171.912 47.121,172.358 47.655,172.901 47.821 C 174.346 48.261,175.093 49.133,176.377 51.876 C 177.063 53.341,178.377 55.226,179.418 56.238 C 183.433 60.140,184.830 66.131,182.767 70.600 C 182.259 71.700,181.834 72.720,181.822 72.867 C 181.810 73.013,183.157 74.291,184.814 75.706 C 200.827 89.368,208.088 113.227,202.545 133.967 C 194.244 165.030,164.290 182.984,132.210 176.127 L 131.020 175.872 132.648 177.722 C 133.544 178.740,134.707 180.479,135.233 181.586 C 135.759 182.694,136.281 183.601,136.394 183.602 C 137.385 183.610,137.103 193.405,136.034 196.130 C 130.270 210.823,105.416 217.593,88.794 208.997 L 87.609 208.384 85.104 210.936 C 73.254 223.011,41.530 218.620,41.614 204.916 C 41.622 203.642,41.886 202.150,42.200 201.600 C 43.115 200.000,42.969 199.851,39.498 198.832 C 28.437 195.584,23.499 189.424,27.323 183.644 L 28.343 182.103 25.065 180.478 C 4.185 170.132,26.421 153.477,53.200 159.406 C 54.059 159.596,54.384 159.343,55.503 157.614 C 59.889 150.836,74.420 146.744,89.588 148.016 C 92.557 148.265,95.102 148.540,95.243 148.627 C 95.384 148.714,94.911 147.664,94.190 146.293 C 82.780 124.577,86.571 97.529,103.594 79.213 L 105.998 76.626 103.699 75.990 C 102.434 75.639,101.007 75.139,100.526 74.876 C 99.238 74.174,99.513 74.010,96.669 77.170 C 94.722 79.334,94.553 79.111,95.155 75.178 L 95.647 71.960 94.431 70.574 C 89.892 65.404,91.497 59.014,98.352 54.965 C 99.352 54.374,99.582 54.023,99.376 53.401 C 94.434 38.489,115.595 27.942,131.837 37.223 L 133.873 38.386 134.837 37.351 C 138.972 32.904,146.726 30.783,154.329 32.017 M280.113 52.386 C 286.271 54.732,289.312 59.442,287.904 64.454 C 287.626 65.444,287.718 65.535,289.453 65.972 C 299.285 68.447,305.255 79.265,302.570 89.742 C 299.499 101.730,286.117 107.370,276.333 100.800 L 274.645 99.666 272.703 101.411 C 267.246 106.317,258.281 106.185,253.049 101.121 L 251.000 99.138 248.400 100.437 C 240.968 104.150,229.938 100.658,228.600 94.169 C 228.490 93.636,228.316 92.795,228.213 92.300 C 228.089 91.699,227.283 91.014,225.790 90.239 C 215.033 84.654,219.640 71.409,232.656 70.500 L 235.511 70.301 235.681 67.955 C 236.170 61.195,247.011 55.970,254.262 59.000 C 256.269 59.839,256.635 59.765,257.196 58.410 C 259.636 52.519,271.959 49.280,280.113 52.386 M191.800 68.601 C 194.709 68.893,202.663 69.957,203.872 70.215 C 206.244 70.721,206.383 71.893,205.377 82.949 C 204.628 91.177,204.622 91.186,202.471 87.291 C 199.762 82.385,195.822 77.360,190.832 72.449 L 186.208 67.897 187.804 68.128 C 188.682 68.255,190.480 68.468,191.800 68.601 M89.993 86.563 C 86.485 92.338,82.000 104.749,82.000 108.682 C 82.000 110.088,81.228 109.775,80.565 108.100 C 80.239 107.275,79.638 105.880,79.231 105.000 C 78.823 104.120,77.994 102.230,77.387 100.800 C 76.780 99.370,75.860 97.233,75.342 96.052 C 73.442 91.719,73.835 91.170,81.200 87.864 C 82.410 87.321,84.930 86.168,86.800 85.301 C 92.335 82.736,92.322 82.731,89.993 86.563 M212.000 99.031 C 218.731 104.016,218.838 104.098,220.278 105.341 C 222.290 107.079,222.097 108.309,219.167 112.401 C 217.828 114.271,215.923 116.970,214.932 118.400 C 210.492 124.806,210.946 125.060,210.639 116.000 C 210.516 112.370,210.157 108.230,209.842 106.800 C 208.994 102.963,207.575 97.858,207.227 97.400 C 205.136 94.641,206.875 95.236,212.000 99.031 M81.200 120.134 C 81.200 125.797,81.756 130.361,83.034 135.200 C 83.898 138.470,84.332 139.798,85.487 142.700 C 85.948 143.859,84.416 142.936,78.284 138.362 C 68.383 130.973,68.580 132.159,75.630 122.400 C 76.504 121.190,77.976 119.090,78.902 117.733 C 81.054 114.579,81.200 114.732,81.200 120.134 M211.711 131.000 C 212.059 131.880,213.526 135.293,214.972 138.585 C 218.620 146.893,218.563 147.290,213.382 149.635 C 211.852 150.328,208.710 151.791,206.400 152.887 C 200.158 155.848,199.167 156.057,200.959 154.031 C 203.751 150.876,210.000 134.482,210.000 130.313 C 210.000 128.204,210.722 128.494,211.711 131.000 M393.600 149.800 C 393.600 150.130,393.780 150.400,394.000 150.400 C 394.220 150.400,394.400 150.130,394.400 149.800 C 394.400 149.470,394.220 149.200,394.000 149.200 C 393.780 149.200,393.600 149.470,393.600 149.800 M197.054 162.300 C 194.851 181.755,195.904 180.160,185.998 179.029 C 183.249 178.716,179.577 178.332,177.839 178.177 L 174.677 177.894 176.239 176.976 C 184.401 172.173,193.194 164.983,195.896 160.900 C 196.931 159.336,197.334 159.824,197.054 162.300 M397.600 169.176 C 397.600 169.629,397.780 170.000,398.000 170.000 C 398.220 170.000,398.400 169.741,398.400 169.424 C 398.400 169.107,398.220 168.736,398.000 168.600 C 397.780 168.464,397.600 168.723,397.600 169.176 M398.178 172.435 C 398.031 172.674,398.110 173.070,398.355 173.315 C 398.682 173.642,398.800 173.526,398.800 172.880 C 398.800 171.914,398.592 171.765,398.178 172.435 M169.757 180.500 C 168.178 183.221,159.647 194.162,158.739 194.632 C 157.301 195.375,156.155 194.902,152.009 191.856 C 150.470 190.725,147.589 188.661,145.606 187.269 C 141.255 184.216,141.239 184.146,144.907 184.331 C 150.892 184.633,160.474 183.144,166.400 180.989 C 169.395 179.901,170.170 179.788,169.757 180.500 M399.293 181.600 C 399.293 182.370,399.375 182.685,399.476 182.300 C 399.576 181.915,399.576 181.285,399.476 180.900 C 399.375 180.515,399.293 180.830,399.293 181.600 M399.720 188.400 C 399.720 189.610,399.795 190.105,399.887 189.500 C 399.978 188.895,399.978 187.905,399.887 187.300 C 399.795 186.695,399.720 187.190,399.720 188.400 M399.724 211.400 C 399.726 212.720,399.801 213.212,399.890 212.493 C 399.979 211.774,399.977 210.694,399.886 210.093 C 399.795 209.492,399.722 210.080,399.724 211.400 M399.293 218.400 C 399.293 219.170,399.375 219.485,399.476 219.100 C 399.576 218.715,399.576 218.085,399.476 217.700 C 399.375 217.315,399.293 217.630,399.293 218.400 M398.134 226.627 C 398.002 226.972,398.098 227.458,398.347 227.707 C 398.684 228.044,398.800 227.884,398.800 227.080 C 398.800 225.877,398.501 225.673,398.134 226.627 M397.600 230.400 C 397.600 230.840,397.780 231.200,398.000 231.200 C 398.220 231.200,398.400 230.840,398.400 230.400 C 398.400 229.960,398.220 229.600,398.000 229.600 C 397.780 229.600,397.600 229.960,397.600 230.400 M44.000 325.938 C 44.000 326.124,44.388 326.619,44.862 327.038 L 45.724 327.800 45.016 326.700 C 44.286 325.566,44.000 325.351,44.000 325.938 M355.156 326.500 C 354.686 327.395,354.688 327.396,355.542 326.638 C 356.495 325.791,356.582 325.600,356.014 325.600 C 355.802 325.600,355.416 326.005,355.156 326.500 M352.475 329.616 C 351.486 330.537,351.361 330.867,352.109 330.580 C 352.562 330.406,353.798 328.800,353.479 328.800 C 353.408 328.800,352.957 329.167,352.475 329.616 M47.067 329.831 C 47.192 330.156,47.647 330.611,48.077 330.841 C 48.774 331.214,48.814 331.174,48.441 330.477 C 47.928 329.517,46.731 328.955,47.067 329.831 M50.615 333.766 C 50.963 334.298,51.552 334.849,51.923 334.992 C 52.320 335.144,52.113 334.745,51.424 334.026 C 50.010 332.549,49.766 332.471,50.615 333.766 M349.311 333.300 C 348.630 334.181,348.317 335.030,348.970 334.224 C 349.317 333.797,349.825 333.304,350.100 333.130 C 350.427 332.922,350.444 332.810,350.149 332.806 C 349.901 332.803,349.524 333.025,349.311 333.300 M56.438 339.900 C 57.199 340.894,59.257 342.922,60.200 343.608 C 60.640 343.927,59.927 343.066,58.615 341.694 C 56.282 339.255,55.367 338.501,56.438 339.900 M341.400 341.666 C 340.080 343.013,339.360 343.918,339.800 343.677 C 340.558 343.261,342.380 341.430,343.559 339.900 C 344.571 338.585,343.802 339.215,341.400 341.666 M333.775 348.855 C 332.605 350.105,332.605 350.107,333.666 349.431 C 334.253 349.058,334.832 348.493,334.954 348.176 C 335.273 347.344,335.091 347.449,333.775 348.855 M66.000 349.268 C 67.002 350.245,67.510 350.425,67.018 349.629 C 66.873 349.395,66.360 348.999,65.878 348.749 C 65.083 348.336,65.094 348.385,66.000 349.268 M330.495 351.466 C 330.218 351.578,329.802 352.022,329.572 352.453 C 329.189 353.169,329.223 353.192,329.968 352.727 C 330.593 352.337,331.543 351.067,331.087 351.232 C 331.039 351.249,330.773 351.355,330.495 351.466 M69.428 352.129 C 69.531 352.398,69.976 352.842,70.417 353.118 C 71.157 353.580,71.180 353.557,70.718 352.817 C 70.155 351.917,69.138 351.374,69.428 352.129 M319.784 360.027 C 319.639 360.261,319.616 360.549,319.733 360.667 C 320.020 360.953,320.800 360.448,320.800 359.976 C 320.800 359.465,320.109 359.499,319.784 360.027 M158.000 396.000 C 158.776 396.501,159.200 396.501,159.200 396.000 C 159.200 395.780,158.795 395.603,158.300 395.606 C 157.572 395.611,157.515 395.686,158.000 396.000 M168.800 398.000 C 168.800 398.220,169.160 398.400,169.600 398.400 C 170.040 398.400,170.400 398.220,170.400 398.000 C 170.400 397.780,170.040 397.600,169.600 397.600 C 169.160 397.600,168.800 397.780,168.800 398.000 M230.000 398.000 C 230.000 398.220,230.259 398.400,230.576 398.400 C 230.893 398.400,231.264 398.220,231.400 398.000 C 231.536 397.780,231.277 397.600,230.824 397.600 C 230.371 397.600,230.000 397.780,230.000 398.000 M172.200 398.400 C 172.059 398.628,172.404 398.800,173.000 398.800 C 173.596 398.800,173.941 398.628,173.800 398.400 C 173.664 398.180,173.304 398.000,173.000 398.000 C 172.696 398.000,172.336 398.180,172.200 398.400 M226.600 398.400 C 226.464 398.620,226.734 398.800,227.200 398.800 C 227.666 398.800,227.936 398.620,227.800 398.400 C 227.664 398.180,227.394 398.000,227.200 398.000 C 227.006 398.000,226.736 398.180,226.600 398.400 M180.900 399.476 C 181.285 399.576,181.915 399.576,182.300 399.476 C 182.685 399.375,182.370 399.293,181.600 399.293 C 180.830 399.293,180.515 399.375,180.900 399.476 M217.700 399.476 C 218.085 399.576,218.715 399.576,219.100 399.476 C 219.485 399.375,219.170 399.293,218.400 399.293 C 217.630 399.293,217.315 399.375,217.700 399.476 M187.507 399.890 C 188.226 399.979,189.306 399.977,189.907 399.886 C 190.508 399.795,189.920 399.722,188.600 399.724 C 187.280 399.726,186.788 399.801,187.507 399.890 M210.500 399.887 C 211.105 399.978,212.095 399.978,212.700 399.887 C 213.305 399.795,212.810 399.720,211.600 399.720 C 210.390 399.720,209.895 399.795,210.500 399.887 " stroke="none" fill="#b5d4ff" fill-rule="evenodd"></path><path id="path2" d="M145.273 32.047 C 141.531 32.670,137.093 34.925,134.837 37.351 L 133.873 38.386 131.837 37.223 C 115.595 27.942,94.434 38.489,99.376 53.401 C 99.582 54.023,99.352 54.374,98.352 54.965 C 92.592 58.367,90.300 64.029,92.892 68.452 C 94.122 70.551,95.591 72.012,95.617 71.162 C 95.918 61.480,97.194 58.948,101.579 59.333 C 103.020 59.460,107.035 59.788,110.500 60.062 C 117.693 60.631,117.904 60.795,114.097 62.871 C 109.514 65.371,100.274 72.543,99.664 74.073 C 99.481 74.533,102.653 75.903,104.636 76.220 C 106.128 76.459,106.402 76.340,108.619 74.494 C 128.561 57.890,157.359 56.365,178.508 70.793 C 181.740 72.998,181.767 72.995,182.878 70.456 C 184.918 65.793,182.747 58.154,178.611 55.444 C 177.789 54.906,177.943 55.418,179.832 59.514 C 182.474 65.245,182.506 65.560,180.300 64.189 C 173.774 60.135,160.299 55.200,155.756 55.200 C 155.058 55.200,155.887 54.404,157.100 53.910 C 157.925 53.574,161.300 52.132,164.600 50.707 C 167.900 49.282,170.912 48.007,171.293 47.873 C 172.210 47.552,171.882 45.799,170.319 42.667 C 166.414 34.839,155.727 30.308,145.273 32.047 M137.000 44.611 C 137.440 44.918,139.060 46.071,140.600 47.174 C 142.140 48.277,144.480 49.931,145.800 50.850 C 147.120 51.770,148.709 52.944,149.331 53.461 L 150.461 54.400 146.000 54.400 C 140.167 54.400,131.939 55.679,126.567 57.420 C 124.207 58.185,122.197 58.731,122.100 58.633 C 121.949 58.483,128.109 49.937,131.440 45.673 C 133.090 43.562,134.976 43.202,137.000 44.611 M266.500 51.792 C 262.315 52.971,258.252 55.861,257.196 58.410 C 256.635 59.765,256.269 59.839,254.262 59.000 C 247.011 55.970,236.170 61.195,235.681 67.955 L 235.511 70.301 232.656 70.500 C 219.640 71.409,215.033 84.654,225.790 90.239 C 227.283 91.014,228.089 91.699,228.213 92.300 C 228.316 92.795,228.490 93.636,228.600 94.169 C 229.938 100.658,240.968 104.150,248.400 100.437 L 251.000 99.138 253.049 101.121 C 258.281 106.185,267.246 106.317,272.703 101.411 L 274.645 99.666 276.333 100.800 C 286.117 107.370,299.499 101.730,302.570 89.742 C 305.255 79.265,299.285 68.447,289.453 65.972 C 287.718 65.535,287.626 65.444,287.904 64.454 C 290.334 55.805,278.050 48.538,266.500 51.792 M77.981 148.002 C 67.713 148.924,58.607 152.818,55.503 157.614 C 54.384 159.343,54.059 159.596,53.200 159.406 C 26.421 153.477,4.185 170.132,25.065 180.478 L 28.343 182.103 27.323 183.644 C 23.499 189.424,28.437 195.584,39.498 198.832 C 42.969 199.851,43.115 200.000,42.200 201.600 C 41.886 202.150,41.622 203.642,41.614 204.916 C 41.530 218.620,73.254 223.011,85.104 210.936 L 87.609 208.384 88.794 208.997 C 105.411 217.590,130.414 210.776,136.010 196.130 C 137.656 191.824,137.408 183.421,135.665 184.417 C 134.393 185.144,120.994 190.889,120.101 191.090 C 119.606 191.202,118.746 190.994,118.189 190.629 C 117.279 190.033,116.670 188.915,113.600 182.200 C 113.198 181.320,112.223 179.201,111.434 177.491 C 109.533 173.371,109.572 173.292,112.654 175.015 C 116.007 176.891,119.085 178.462,120.613 179.080 C 124.580 180.684,129.078 182.086,132.304 182.724 L 136.008 183.456 135.749 182.628 C 134.581 178.906,131.705 176.231,127.145 174.627 C 114.901 170.320,104.969 162.727,97.704 152.120 L 95.234 148.514 92.717 148.266 C 87.717 147.774,81.724 147.667,77.981 148.002 M90.507 152.877 C 93.478 157.812,97.137 162.292,101.744 166.639 C 106.442 171.071,106.999 170.797,95.758 169.586 C 84.985 168.425,85.437 169.084,86.593 156.232 C 87.252 148.914,87.477 147.791,88.078 148.823 C 88.263 149.140,89.356 150.964,90.507 152.877 " stroke="none" fill="#ffffff" fill-rule="evenodd"></path><path id="path3" d="M359.317 84.319 C 357.951 85.354,355.096 87.460,352.972 89.000 C 350.848 90.540,347.260 93.150,345.000 94.800 C 342.739 96.450,339.514 98.790,337.831 100.000 C 336.149 101.210,332.124 104.140,328.886 106.511 C 325.649 108.881,321.200 112.112,319.000 113.690 C 316.800 115.268,311.310 119.254,306.800 122.547 C 302.290 125.841,297.940 129.001,297.133 129.568 C 296.325 130.136,291.479 133.660,286.363 137.400 C 281.247 141.140,276.304 144.740,275.379 145.400 C 271.847 147.919,264.395 153.335,259.400 157.012 C 256.540 159.118,253.746 161.146,253.191 161.520 C 252.636 161.894,249.965 163.820,247.255 165.800 C 244.546 167.780,241.558 169.940,240.616 170.600 C 239.674 171.260,237.125 173.113,234.952 174.718 C 232.778 176.323,228.390 179.521,225.200 181.825 C 216.255 188.286,211.783 191.533,207.330 194.800 C 205.082 196.450,201.862 198.790,200.176 200.000 C 198.490 201.210,195.261 203.550,193.000 205.200 C 190.740 206.850,187.149 209.460,185.020 211.000 C 182.892 212.540,180.396 214.362,179.475 215.049 C 176.849 217.007,160.445 228.931,159.458 229.600 C 158.971 229.930,154.014 233.530,148.442 237.600 C 142.871 241.670,137.555 245.540,136.629 246.200 C 135.703 246.860,132.468 249.200,129.440 251.400 C 126.412 253.600,123.423 255.760,122.797 256.200 C 121.481 257.125,112.947 263.341,109.352 265.994 C 108.005 266.987,105.524 268.790,103.838 270.000 C 102.152 271.210,98.124 274.141,94.886 276.513 C 87.554 281.886,80.218 287.209,79.054 288.000 C 78.568 288.330,75.602 290.490,72.461 292.800 C 66.923 296.874,65.754 297.719,62.800 299.780 C 62.030 300.317,57.080 303.923,51.800 307.793 C 46.520 311.664,41.345 315.405,40.300 316.109 C 38.191 317.528,38.019 318.019,39.215 319.215 C 39.663 319.663,39.904 320.248,39.750 320.515 C 39.597 320.782,39.614 320.871,39.789 320.714 C 40.090 320.442,41.596 322.019,41.672 322.686 C 41.691 322.859,42.023 323.221,42.408 323.491 C 42.793 323.761,43.222 324.434,43.361 324.988 C 43.500 325.542,43.811 325.951,44.052 325.898 C 44.293 325.844,44.785 326.366,45.145 327.058 C 45.505 327.749,46.361 328.701,47.046 329.172 C 47.731 329.643,48.611 330.737,49.002 331.603 C 49.392 332.470,49.849 333.093,50.017 332.990 C 50.185 332.886,50.835 333.432,51.461 334.203 C 53.473 336.679,67.068 350.115,68.690 351.230 C 69.194 351.577,69.475 351.991,69.315 352.151 C 69.155 352.311,69.289 352.342,69.612 352.219 C 69.976 352.081,70.504 352.451,70.998 353.190 C 71.437 353.847,72.299 354.592,72.913 354.847 C 73.528 355.101,74.210 355.645,74.429 356.055 C 74.649 356.465,75.040 356.800,75.300 356.800 C 75.560 356.800,76.138 357.147,76.586 357.572 C 79.151 360.003,79.828 360.588,80.080 360.594 C 80.234 360.597,80.585 360.825,80.860 361.100 C 81.135 361.375,81.594 361.600,81.880 361.600 C 82.166 361.600,82.400 361.784,82.400 362.010 C 82.400 362.235,82.855 362.593,83.410 362.804 C 83.966 363.015,84.525 363.460,84.652 363.792 C 84.780 364.124,85.038 364.300,85.227 364.183 C 85.416 364.066,85.916 364.292,86.338 364.685 C 87.684 365.939,88.974 366.859,89.900 367.225 C 90.395 367.420,90.800 367.775,90.800 368.014 C 90.800 368.252,90.973 368.340,91.185 368.209 C 91.397 368.078,91.937 368.337,92.385 368.785 C 92.833 369.233,93.470 369.600,93.800 369.600 C 94.130 369.600,94.400 369.772,94.400 369.981 C 94.400 370.191,95.030 370.661,95.800 371.027 C 96.570 371.392,97.200 371.870,97.200 372.088 C 97.200 372.307,97.470 372.382,97.800 372.255 C 98.130 372.129,98.400 372.178,98.400 372.364 C 98.400 372.550,98.940 372.927,99.600 373.200 C 100.260 373.473,100.800 373.870,100.800 374.082 C 100.800 374.294,101.021 374.393,101.291 374.303 C 101.562 374.213,102.136 374.468,102.567 374.870 C 102.998 375.271,103.587 375.600,103.875 375.600 C 104.164 375.600,104.400 375.791,104.400 376.024 C 104.400 376.257,104.580 376.336,104.800 376.200 C 105.020 376.064,105.200 376.115,105.200 376.312 C 105.200 376.510,105.920 376.910,106.800 377.200 C 107.680 377.490,108.400 377.861,108.400 378.024 C 108.400 378.187,109.300 378.643,110.400 379.039 C 111.500 379.434,112.400 379.888,112.400 380.047 C 112.400 380.206,113.300 380.635,114.400 381.000 C 115.500 381.365,116.400 381.797,116.400 381.959 C 116.400 382.121,117.390 382.566,118.600 382.947 C 119.810 383.329,120.800 383.769,120.800 383.925 C 120.800 384.082,121.970 384.545,123.400 384.955 C 124.830 385.364,126.000 385.837,126.000 386.005 C 126.000 386.173,127.170 386.628,128.600 387.015 C 130.030 387.402,131.200 387.891,131.200 388.102 C 131.200 388.313,131.470 388.382,131.800 388.255 C 132.130 388.129,132.400 388.171,132.400 388.349 C 132.400 388.527,133.390 388.894,134.600 389.165 C 135.810 389.436,136.800 389.845,136.800 390.075 C 136.800 390.305,137.160 390.399,137.600 390.284 C 138.040 390.169,138.400 390.213,138.400 390.383 C 138.400 390.552,139.480 390.920,140.800 391.200 C 142.120 391.480,143.200 391.886,143.200 392.101 C 143.200 392.317,143.553 392.401,143.985 392.288 C 144.417 392.175,144.978 392.332,145.231 392.637 C 145.484 392.942,145.811 393.117,145.959 393.026 C 146.445 392.725,150.144 393.686,150.720 394.263 C 151.153 394.696,151.415 394.720,151.842 394.365 C 152.185 394.081,152.400 394.059,152.400 394.310 C 152.400 394.534,153.930 394.945,155.800 395.223 C 157.670 395.501,159.200 395.902,159.200 396.114 C 159.200 396.330,159.731 396.394,160.400 396.260 C 161.060 396.128,161.600 396.172,161.600 396.357 C 161.600 396.543,163.580 396.930,166.000 397.218 C 168.420 397.506,170.400 397.912,170.400 398.122 C 170.400 398.341,171.069 398.395,171.976 398.250 C 172.843 398.112,173.648 398.154,173.766 398.345 C 174.884 400.154,224.615 400.208,226.537 398.403 C 226.722 398.229,227.577 398.180,228.437 398.296 C 229.310 398.413,230.000 398.337,230.000 398.123 C 230.000 397.913,231.980 397.506,234.400 397.218 C 236.820 396.930,238.800 396.543,238.800 396.357 C 238.800 396.172,239.340 396.128,240.000 396.260 C 240.695 396.399,241.200 396.331,241.200 396.099 C 241.200 395.878,242.643 395.473,244.407 395.199 C 246.171 394.924,247.702 394.559,247.808 394.388 C 247.914 394.216,248.361 394.169,248.800 394.284 C 249.240 394.399,249.600 394.323,249.600 394.116 C 249.600 393.908,250.811 393.515,252.291 393.242 C 253.771 392.970,255.211 392.557,255.491 392.324 C 255.861 392.018,256.003 392.052,256.013 392.451 C 256.023 392.886,256.127 392.874,256.513 392.393 C 256.781 392.059,258.395 391.444,260.100 391.026 C 261.805 390.608,263.200 390.145,263.200 389.997 C 263.200 389.849,264.190 389.490,265.400 389.200 C 266.610 388.910,267.600 388.538,267.600 388.374 C 267.600 388.209,267.960 388.169,268.400 388.284 C 268.840 388.399,269.200 388.309,269.200 388.084 C 269.200 387.858,270.100 387.443,271.200 387.161 C 272.300 386.879,273.200 386.508,273.200 386.337 C 273.200 386.165,273.500 386.140,273.866 386.281 C 274.244 386.426,274.429 386.371,274.295 386.154 C 274.166 385.945,275.216 385.442,276.630 385.037 C 278.043 384.632,279.200 384.158,279.200 383.983 C 279.200 383.808,280.145 383.353,281.300 382.973 C 282.455 382.593,283.490 382.157,283.600 382.004 C 283.710 381.852,284.655 381.404,285.700 381.009 C 286.745 380.614,287.600 380.171,287.600 380.025 C 287.600 379.878,288.500 379.434,289.600 379.039 C 290.700 378.643,291.600 378.193,291.600 378.039 C 291.600 377.884,292.500 377.434,293.600 377.039 C 294.700 376.643,295.600 376.180,295.600 376.008 C 295.600 375.837,296.140 375.473,296.800 375.200 C 297.460 374.927,298.000 374.550,298.000 374.364 C 298.000 374.178,298.270 374.129,298.600 374.255 C 298.930 374.382,299.200 374.308,299.200 374.091 C 299.200 373.874,299.740 373.473,300.400 373.200 C 301.060 372.927,301.600 372.550,301.600 372.364 C 301.600 372.178,301.870 372.129,302.200 372.255 C 302.530 372.382,302.800 372.277,302.800 372.022 C 302.800 371.768,303.430 371.296,304.200 370.974 C 304.970 370.652,305.600 370.212,305.600 369.995 C 305.600 369.778,305.825 369.596,306.100 369.591 C 306.375 369.586,307.039 369.245,307.575 368.833 C 308.112 368.420,308.816 368.185,309.141 368.309 C 309.523 368.456,309.629 368.371,309.442 368.067 C 309.263 367.778,309.544 367.449,310.176 367.209 C 310.739 366.995,311.200 366.625,311.200 366.386 C 311.200 366.148,311.360 366.051,311.555 366.172 C 311.750 366.292,312.564 365.791,313.365 365.058 C 314.166 364.324,315.311 363.476,315.911 363.173 C 317.056 362.594,317.845 361.984,319.368 360.500 C 319.876 360.005,320.468 359.600,320.684 359.600 C 320.900 359.600,321.403 359.239,321.802 358.798 C 322.202 358.356,322.618 358.085,322.728 358.195 C 322.838 358.305,323.180 358.036,323.487 357.597 C 323.794 357.159,324.229 356.800,324.453 356.800 C 324.678 356.800,325.402 356.260,326.062 355.600 C 326.722 354.940,327.473 354.399,327.731 354.397 C 327.989 354.396,328.619 353.780,329.130 353.029 C 329.660 352.250,330.744 351.389,331.651 351.026 C 332.525 350.676,333.142 350.230,333.021 350.034 C 332.900 349.838,333.433 349.165,334.206 348.539 C 336.470 346.703,348.134 335.082,348.909 333.891 C 349.299 333.291,349.840 332.800,350.112 332.800 C 350.383 332.800,350.844 332.259,351.137 331.598 C 351.430 330.936,351.831 330.496,352.030 330.619 C 352.228 330.741,352.302 330.607,352.193 330.321 C 352.085 330.034,352.533 329.441,353.190 329.002 C 353.847 328.563,354.592 327.701,354.847 327.087 C 355.101 326.472,355.645 325.790,356.055 325.571 C 356.465 325.351,356.800 324.960,356.800 324.700 C 356.800 324.440,357.147 323.862,357.572 323.414 C 360.003 320.849,360.588 320.172,360.594 319.920 C 360.597 319.766,360.825 319.415,361.100 319.140 C 361.375 318.865,361.600 318.425,361.600 318.163 C 361.600 317.900,361.870 317.582,362.200 317.455 C 362.530 317.329,362.800 316.960,362.800 316.635 C 362.800 316.311,363.205 315.762,363.700 315.415 C 364.195 315.068,364.530 314.743,364.445 314.692 C 364.360 314.642,364.655 314.000,365.101 313.267 C 365.631 312.395,365.985 312.119,366.124 312.467 C 366.278 312.852,366.346 312.823,366.368 312.361 C 366.423 311.253,367.645 309.180,368.083 309.451 C 368.324 309.600,368.422 309.474,368.312 309.156 C 368.206 308.850,368.453 308.171,368.860 307.646 C 369.267 307.121,369.600 306.446,369.600 306.146 C 369.600 305.846,369.772 305.600,369.981 305.600 C 370.191 305.600,370.661 304.970,371.027 304.200 C 371.392 303.430,371.870 302.800,372.088 302.800 C 372.307 302.800,372.382 302.530,372.255 302.200 C 372.129 301.870,372.178 301.600,372.364 301.600 C 372.550 301.600,372.927 301.060,373.200 300.400 C 373.473 299.740,373.810 299.198,373.949 299.196 C 374.087 299.194,374.555 298.384,374.990 297.396 C 375.424 296.408,375.930 295.600,376.113 295.600 C 376.297 295.600,376.336 295.420,376.200 295.200 C 376.064 294.980,376.115 294.800,376.312 294.800 C 376.510 294.800,376.910 294.080,377.200 293.200 C 377.490 292.320,377.861 291.600,378.024 291.600 C 378.187 291.600,378.643 290.700,379.039 289.600 C 379.434 288.500,379.888 287.600,380.047 287.600 C 380.206 287.600,380.635 286.700,381.000 285.600 C 381.365 284.500,381.797 283.600,381.959 283.600 C 382.121 283.600,382.566 282.610,382.947 281.400 C 383.329 280.190,383.776 279.200,383.941 279.200 C 384.106 279.200,384.576 278.030,384.985 276.600 C 385.394 275.170,385.860 274.000,386.020 274.000 C 386.180 274.000,386.628 272.830,387.015 271.400 C 387.402 269.970,387.891 268.800,388.102 268.800 C 388.313 268.800,388.382 268.530,388.255 268.200 C 388.129 267.870,388.171 267.600,388.349 267.600 C 388.527 267.600,388.894 266.610,389.165 265.400 C 389.436 264.190,389.845 263.200,390.075 263.200 C 390.305 263.200,390.399 262.840,390.284 262.400 C 390.169 261.960,390.213 261.600,390.383 261.600 C 390.552 261.600,390.920 260.520,391.200 259.200 C 391.480 257.880,391.876 256.800,392.080 256.800 C 392.284 256.800,392.398 256.485,392.335 256.100 C 392.272 255.715,392.387 255.133,392.591 254.807 C 392.795 254.481,392.987 253.941,393.018 253.607 C 393.204 251.575,393.729 249.600,394.082 249.600 C 394.308 249.600,394.407 249.150,394.302 248.600 C 394.197 248.050,394.247 247.600,394.414 247.600 C 394.581 247.600,394.945 246.070,395.223 244.200 C 395.501 242.330,395.901 240.800,396.111 240.800 C 396.321 240.800,396.406 240.346,396.300 239.790 C 396.194 239.235,396.239 238.700,396.400 238.600 C 396.561 238.501,396.928 236.435,397.217 234.010 C 397.505 231.584,397.912 229.600,398.122 229.600 C 398.341 229.600,398.395 228.931,398.250 228.024 C 398.112 227.157,398.154 226.352,398.345 226.234 C 400.154 225.116,400.208 175.385,398.403 173.463 C 398.229 173.278,398.180 172.423,398.296 171.563 C 398.411 170.702,398.336 170.000,398.128 170.000 C 397.921 170.000,397.520 168.110,397.237 165.800 C 396.955 163.490,396.567 161.503,396.375 161.385 C 396.183 161.266,396.133 160.636,396.263 159.984 C 396.400 159.302,396.330 158.800,396.099 158.800 C 395.878 158.800,395.474 157.360,395.200 155.600 C 394.926 153.840,394.541 152.400,394.343 152.400 C 394.146 152.400,394.098 151.950,394.236 151.400 C 394.374 150.850,394.318 150.400,394.113 150.400 C 393.907 150.400,393.515 149.189,393.242 147.709 C 392.970 146.229,392.557 144.789,392.324 144.509 C 392.018 144.139,392.052 143.997,392.451 143.987 C 392.868 143.978,392.845 143.857,392.357 143.485 C 392.004 143.216,391.386 141.601,390.984 139.898 C 390.582 138.194,390.135 136.800,389.991 136.800 C 389.846 136.800,389.490 135.810,389.200 134.600 C 388.910 133.390,388.538 132.400,388.374 132.400 C 388.209 132.400,388.169 132.040,388.284 131.600 C 388.399 131.160,388.309 130.800,388.084 130.800 C 387.858 130.800,387.443 129.900,387.161 128.800 C 386.879 127.700,386.520 126.800,386.362 126.800 C 386.204 126.800,386.164 126.395,386.272 125.900 C 386.397 125.331,386.342 125.176,386.124 125.479 C 385.899 125.792,385.521 125.060,385.040 123.379 C 384.633 121.961,384.152 120.800,383.971 120.800 C 383.789 120.800,383.329 119.810,382.947 118.600 C 382.566 117.390,382.121 116.400,381.959 116.400 C 381.797 116.400,381.365 115.500,381.000 114.400 C 380.635 113.300,380.206 112.400,380.047 112.400 C 379.888 112.400,379.434 111.500,379.039 110.400 C 378.643 109.300,378.193 108.400,378.039 108.400 C 377.884 108.400,377.434 107.500,377.039 106.400 C 376.643 105.300,376.148 104.400,375.939 104.400 C 375.730 104.400,375.370 103.860,375.140 103.200 C 374.910 102.540,374.565 102.000,374.373 102.000 C 374.182 102.000,374.129 101.730,374.255 101.400 C 374.382 101.070,374.308 100.800,374.091 100.800 C 373.874 100.800,373.473 100.260,373.200 99.600 C 372.927 98.940,372.550 98.400,372.364 98.400 C 372.178 98.400,372.129 98.130,372.255 97.800 C 372.382 97.470,372.277 97.200,372.022 97.200 C 371.768 97.200,371.296 96.570,370.974 95.800 C 370.652 95.030,370.212 94.400,369.995 94.400 C 369.778 94.400,369.600 94.164,369.600 93.875 C 369.600 93.587,369.231 92.955,368.780 92.470 C 368.328 91.986,368.069 91.412,368.203 91.195 C 368.337 90.978,368.252 90.800,368.014 90.800 C 367.775 90.800,367.409 90.350,367.200 89.800 C 366.991 89.250,366.625 88.800,366.386 88.800 C 366.148 88.800,366.051 88.640,366.172 88.445 C 366.292 88.250,365.771 87.414,365.013 86.586 C 364.255 85.759,363.349 84.479,362.999 83.741 C 362.206 82.071,362.305 82.055,359.317 84.319 M338.193 132.731 C 338.543 136.212,338.517 136.181,341.600 136.759 C 345.958 137.575,346.029 137.706,342.428 138.277 C 338.373 138.920,338.804 138.515,338.276 142.178 C 337.727 145.989,337.385 145.987,336.769 142.167 C 336.211 138.711,336.121 138.634,332.024 138.171 C 329.007 137.830,329.163 137.636,333.102 136.828 L 336.200 136.192 336.742 133.096 C 337.409 129.278,337.836 129.171,338.193 132.731 M376.156 170.300 C 376.519 173.438,377.689 179.738,377.971 180.072 C 378.097 180.221,380.450 180.727,383.200 181.196 C 390.334 182.412,390.296 182.402,389.591 182.797 C 389.262 182.981,386.834 183.442,384.196 183.821 C 377.484 184.786,377.969 184.443,377.136 188.811 C 376.744 190.866,376.305 193.595,376.160 194.874 C 375.950 196.726,375.235 198.220,375.190 196.900 C 375.154 195.867,373.288 185.154,373.113 184.979 C 372.994 184.861,370.522 184.402,367.619 183.958 C 358.969 182.637,358.969 182.639,367.784 181.208 C 370.634 180.745,373.048 180.285,373.147 180.186 C 373.298 180.035,375.159 169.210,375.190 168.300 C 375.234 166.997,375.944 168.465,376.156 170.300 M289.278 195.051 C 324.039 217.972,333.590 265.109,310.461 299.600 C 280.229 344.684,214.223 344.058,184.504 298.405 C 179.256 290.343,180.067 288.958,188.200 292.095 C 227.530 307.264,271.350 286.389,284.539 246.200 C 289.303 231.684,289.174 214.323,284.196 199.958 C 281.215 191.357,282.213 190.393,289.278 195.051 M226.955 212.688 C 227.034 212.768,228.787 213.146,230.849 213.529 L 234.600 214.226 230.842 214.904 C 226.341 215.716,226.918 215.169,226.289 219.224 C 225.696 223.043,225.386 222.930,224.705 218.650 L 224.228 215.652 220.520 214.954 C 218.480 214.570,216.861 214.205,216.922 214.144 C 216.984 214.083,218.376 213.826,220.017 213.573 C 224.131 212.939,224.157 212.916,224.735 209.479 C 225.416 205.424,225.700 205.382,226.299 209.245 C 226.581 211.060,226.876 212.609,226.955 212.688 M359.027 235.900 C 359.849 240.583,359.489 240.127,362.942 240.858 C 366.873 241.691,366.984 241.831,363.976 242.171 C 360.723 242.539,359.600 243.001,359.600 243.970 C 359.600 245.346,358.747 248.800,358.407 248.800 C 358.228 248.800,357.953 247.528,357.797 245.974 C 357.472 242.733,357.359 242.639,353.224 242.171 C 350.207 241.830,350.363 241.635,354.302 240.829 L 357.400 240.196 357.755 237.298 C 358.146 234.110,358.621 233.588,359.027 235.900 M100.188 313.377 C 100.854 317.785,100.919 317.962,101.940 318.163 C 102.523 318.277,104.675 318.668,106.721 319.031 C 108.768 319.394,110.388 319.739,110.321 319.797 C 110.255 319.855,108.400 320.202,106.200 320.567 C 104.000 320.932,101.904 321.320,101.541 321.429 C 101.036 321.581,100.719 322.709,100.183 326.259 C 99.410 331.369,99.110 331.428,98.427 326.600 C 97.620 320.892,98.304 321.551,92.129 320.536 L 87.800 319.825 92.576 318.904 C 98.272 317.804,97.527 318.457,98.241 313.942 C 99.262 307.484,99.296 307.474,100.188 313.377 M164.209 344.999 C 164.790 348.739,165.332 351.865,165.413 351.946 C 165.617 352.150,172.902 353.446,178.200 354.221 C 184.439 355.133,184.217 355.301,174.757 356.826 C 164.384 358.498,165.412 357.646,164.176 365.600 C 163.612 369.230,162.931 373.190,162.663 374.400 L 162.174 376.600 161.464 372.400 C 161.074 370.090,160.421 366.071,160.013 363.469 C 159.129 357.828,159.592 358.393,155.302 357.729 C 146.824 356.418,141.046 355.298,141.600 355.075 C 141.930 354.941,144.630 354.463,147.600 354.011 C 158.577 352.341,158.917 352.258,159.242 351.178 C 159.404 350.640,160.129 346.510,160.854 342.000 L 162.172 333.800 162.662 336.000 C 162.931 337.210,163.627 341.260,164.209 344.999 M277.305 353.013 L 277.807 355.783 279.804 356.096 C 284.602 356.848,284.852 357.336,280.700 357.845 L 277.800 358.200 277.258 361.300 C 276.604 365.047,276.196 365.222,275.823 361.920 C 275.418 358.340,275.242 358.141,272.216 357.816 C 268.205 357.387,268.353 356.753,272.600 356.172 C 275.303 355.803,275.479 355.592,275.805 352.348 C 276.144 348.977,276.611 349.184,277.305 353.013 " stroke="none" fill="#142b54" fill-rule="evenodd"></path><path id="path4" d="M131.955 45.100 C 130.610 46.587,129.860 47.600,130.103 47.600 C 130.213 47.600,130.967 46.790,131.779 45.800 C 133.406 43.814,133.517 43.372,131.955 45.100 M136.000 44.159 C 136.000 44.261,136.585 44.756,137.300 45.257 C 138.222 45.904,138.435 45.964,138.033 45.463 C 137.460 44.750,136.000 43.813,136.000 44.159 M139.200 46.477 C 140.105 47.365,144.000 50.100,144.000 49.847 C 144.000 49.622,140.296 46.821,139.200 46.218 C 138.667 45.924,138.667 45.953,139.200 46.477 M128.571 49.500 C 127.953 50.325,127.012 51.630,126.479 52.400 L 125.511 53.800 126.555 52.600 C 127.901 51.053,130.102 48.000,129.872 48.000 C 129.775 48.000,129.189 48.675,128.571 49.500 M168.400 49.000 C 167.850 49.314,167.580 49.572,167.800 49.572 C 168.020 49.572,168.650 49.314,169.200 49.000 C 169.750 48.686,170.020 48.428,169.800 48.428 C 169.580 48.428,168.950 48.686,168.400 49.000 M144.600 50.270 C 145.116 50.770,148.049 52.978,148.700 53.356 C 149.914 54.063,149.031 53.154,147.300 51.917 C 145.164 50.390,143.975 49.665,144.600 50.270 M163.800 50.991 C 162.700 51.509,161.980 51.937,162.200 51.942 C 162.420 51.947,163.500 51.527,164.600 51.009 C 165.700 50.491,166.420 50.063,166.200 50.058 C 165.980 50.053,164.900 50.473,163.800 50.991 M159.200 53.000 C 158.650 53.314,158.380 53.572,158.600 53.572 C 158.820 53.572,159.450 53.314,160.000 53.000 C 160.550 52.686,160.820 52.428,160.600 52.428 C 160.380 52.428,159.750 52.686,159.200 53.000 M176.428 52.600 C 176.428 52.820,176.686 53.450,177.000 54.000 C 177.314 54.550,177.572 54.820,177.572 54.600 C 177.572 54.380,177.314 53.750,177.000 53.200 C 176.686 52.650,176.428 52.380,176.428 52.600 M143.700 54.296 C 144.965 54.375,147.035 54.375,148.300 54.296 C 149.565 54.216,148.530 54.151,146.000 54.151 C 143.470 54.151,142.435 54.216,143.700 54.296 M156.012 54.384 C 155.236 54.875,155.562 55.147,157.229 55.400 C 158.483 55.590,158.346 55.442,156.811 54.947 C 156.293 54.780,156.293 54.712,156.811 54.385 C 157.135 54.180,157.220 54.012,157.000 54.012 C 156.780 54.012,156.335 54.180,156.012 54.384 M135.200 54.904 C 131.789 55.537,133.386 55.641,137.200 55.033 C 139.269 54.704,139.974 54.492,139.000 54.493 C 138.120 54.494,136.410 54.679,135.200 54.904 M122.965 57.011 C 121.773 58.573,121.911 59.173,123.296 58.461 L 124.200 57.996 123.246 58.242 L 122.292 58.488 123.393 57.044 C 123.999 56.250,124.393 55.600,124.268 55.600 C 124.143 55.600,123.556 56.235,122.965 57.011 M178.034 56.200 C 178.034 56.420,178.378 57.230,178.800 58.000 C 179.222 58.770,179.566 59.220,179.566 59.000 C 179.566 58.780,179.222 57.970,178.800 57.200 C 178.378 56.430,178.034 55.980,178.034 56.200 M126.856 56.859 C 126.117 57.072,125.590 57.323,125.685 57.418 C 125.780 57.513,126.654 57.340,127.629 57.035 C 129.618 56.411,128.945 56.258,126.856 56.859 M164.000 56.973 C 164.770 57.284,165.670 57.547,166.000 57.557 C 167.052 57.589,165.587 56.924,164.000 56.649 L 162.600 56.407 164.000 56.973 M169.558 58.837 C 170.525 59.266,171.388 59.545,171.475 59.458 C 171.648 59.286,168.565 57.982,168.092 58.028 C 167.931 58.044,168.591 58.408,169.558 58.837 M99.700 59.487 C 100.305 59.578,101.295 59.578,101.900 59.487 C 102.505 59.395,102.010 59.320,100.800 59.320 C 99.590 59.320,99.095 59.395,99.700 59.487 M97.415 60.384 C 97.005 60.837,96.648 61.977,96.568 63.084 L 96.431 65.000 96.788 63.062 C 96.984 61.996,97.455 60.781,97.834 60.362 C 98.214 59.943,98.434 59.600,98.324 59.600 C 98.214 59.600,97.805 59.953,97.415 60.384 M104.900 59.876 C 105.285 59.976,105.915 59.976,106.300 59.876 C 106.685 59.775,106.370 59.693,105.600 59.693 C 104.830 59.693,104.515 59.775,104.900 59.876 M109.700 60.276 C 110.085 60.376,110.715 60.376,111.100 60.276 C 111.485 60.175,111.170 60.093,110.400 60.093 C 109.630 60.093,109.315 60.175,109.700 60.276 M172.833 60.135 C 173.518 60.688,179.974 63.881,179.783 63.572 C 179.538 63.176,173.456 60.000,172.942 60.000 C 172.791 60.000,172.742 60.061,172.833 60.135 M114.533 60.693 C 115.635 60.808,116.006 61.008,115.853 61.406 C 115.715 61.767,115.842 61.882,116.220 61.737 C 117.621 61.199,116.790 60.400,114.900 60.467 C 113.109 60.531,113.088 60.544,114.533 60.693 M140.000 61.153 C 139.230 61.289,142.020 61.400,146.200 61.400 C 150.380 61.400,152.990 61.278,152.000 61.130 C 149.796 60.799,141.918 60.814,140.000 61.153 M180.428 61.400 C 180.428 61.620,180.686 62.250,181.000 62.800 C 181.314 63.350,181.572 63.620,181.572 63.400 C 181.572 63.180,181.314 62.550,181.000 62.000 C 180.686 61.450,180.428 61.180,180.428 61.400 M113.497 62.766 C 111.898 63.791,111.603 64.206,113.000 63.466 C 114.676 62.577,115.471 62.008,115.000 62.035 C 114.780 62.048,114.104 62.377,113.497 62.766 M130.400 62.888 C 129.630 63.116,129.183 63.371,129.406 63.454 C 129.629 63.536,130.619 63.351,131.606 63.041 C 132.593 62.732,133.040 62.478,132.600 62.476 C 132.160 62.474,131.170 62.659,130.400 62.888 M160.542 63.052 C 161.610 63.380,162.572 63.561,162.680 63.454 C 162.908 63.225,160.078 62.393,159.200 62.430 C 158.870 62.444,159.474 62.724,160.542 63.052 M166.358 64.837 C 167.325 65.266,168.188 65.545,168.275 65.458 C 168.448 65.286,165.365 63.982,164.892 64.028 C 164.731 64.044,165.391 64.408,166.358 64.837 M180.400 64.272 C 180.400 64.327,180.760 64.565,181.200 64.800 C 181.812 65.128,182.000 65.104,182.000 64.700 C 182.000 64.409,181.640 64.171,181.200 64.171 C 180.760 64.171,180.400 64.217,180.400 64.272 M124.400 65.031 L 123.400 65.633 124.400 65.368 C 125.852 64.984,126.803 64.424,126.000 64.426 C 125.670 64.427,124.950 64.699,124.400 65.031 M96.093 66.800 C 96.093 67.570,96.175 67.885,96.276 67.500 C 96.376 67.115,96.376 66.485,96.276 66.100 C 96.175 65.715,96.093 66.030,96.093 66.800 M118.837 67.594 C 117.207 68.459,115.677 69.366,115.437 69.609 C 115.085 69.965,121.779 66.609,122.367 66.135 C 123.094 65.547,121.281 66.296,118.837 67.594 M170.000 66.200 C 170.000 66.423,173.044 68.000,173.473 68.000 C 173.641 68.000,173.423 67.767,172.989 67.482 C 171.960 66.806,170.000 65.966,170.000 66.200 M103.340 70.050 C 99.551 73.439,99.182 73.815,100.200 73.248 C 101.157 72.715,106.713 67.609,106.340 67.603 C 106.198 67.602,104.848 68.703,103.340 70.050 M174.000 68.150 C 174.000 68.244,174.641 68.699,175.424 69.161 C 176.207 69.623,176.736 69.820,176.599 69.598 C 176.331 69.164,174.000 67.866,174.000 68.150 M187.600 69.400 C 188.346 70.170,189.045 70.800,189.153 70.800 C 189.261 70.800,188.851 70.280,188.242 69.644 C 187.440 68.807,187.282 68.430,187.667 68.276 C 187.960 68.159,187.760 68.049,187.222 68.032 C 186.260 68.001,186.267 68.025,187.600 69.400 M190.100 68.676 C 190.485 68.776,191.115 68.776,191.500 68.676 C 191.885 68.575,191.570 68.493,190.800 68.493 C 190.030 68.493,189.715 68.575,190.100 68.676 M192.433 68.951 C 192.525 69.034,193.860 69.202,195.400 69.326 C 197.552 69.498,197.830 69.469,196.600 69.198 C 194.983 68.842,192.126 68.673,192.433 68.951 M178.000 70.546 C 178.000 70.656,178.540 71.130,179.200 71.600 C 179.860 72.070,180.400 72.364,180.400 72.254 C 180.400 72.144,179.860 71.670,179.200 71.200 C 178.540 70.730,178.000 70.436,178.000 70.546 M110.785 72.829 L 109.400 74.058 110.900 72.981 C 112.226 72.030,112.657 71.600,112.285 71.600 C 112.222 71.600,111.547 72.153,110.785 72.829 M192.200 73.600 C 193.059 74.480,193.852 75.200,193.962 75.200 C 194.072 75.200,193.459 74.480,192.600 73.600 C 191.741 72.720,190.948 72.000,190.838 72.000 C 190.728 72.000,191.341 72.720,192.200 73.600 M107.200 75.655 C 106.210 76.546,105.760 77.094,106.200 76.872 C 106.941 76.498,109.567 73.979,109.175 74.017 C 109.079 74.026,108.190 74.763,107.200 75.655 M96.975 76.500 L 95.800 77.800 97.100 76.625 C 98.312 75.530,98.584 75.200,98.275 75.200 C 98.206 75.200,97.621 75.785,96.975 76.500 M94.800 77.400 C 94.800 78.170,94.944 78.800,95.120 78.800 C 95.296 78.800,95.366 78.170,95.276 77.400 C 95.186 76.630,95.042 76.000,94.956 76.000 C 94.870 76.000,94.800 76.630,94.800 77.400 M187.200 78.200 C 188.395 79.410,189.463 80.400,189.573 80.400 C 189.683 80.400,188.795 79.410,187.600 78.200 C 186.405 76.990,185.337 76.000,185.227 76.000 C 185.117 76.000,186.005 76.990,187.200 78.200 M101.960 81.100 C 100.619 82.534,98.983 84.635,99.858 83.800 C 100.811 82.890,103.689 79.600,103.532 79.600 C 103.439 79.600,102.731 80.275,101.960 81.100 M198.800 81.600 C 199.270 82.260,199.744 82.800,199.854 82.800 C 199.964 82.800,199.670 82.260,199.200 81.600 C 198.730 80.940,198.256 80.400,198.146 80.400 C 198.036 80.400,198.330 80.940,198.800 81.600 M205.293 81.600 C 205.293 82.370,205.375 82.685,205.476 82.300 C 205.576 81.915,205.576 81.285,205.476 80.900 C 205.375 80.515,205.293 80.830,205.293 81.600 M192.575 84.532 C 193.191 85.339,193.776 86.000,193.875 86.000 C 194.153 86.000,192.421 83.660,191.909 83.344 C 191.659 83.189,191.959 83.724,192.575 84.532 M204.920 85.200 C 204.920 86.410,204.995 86.905,205.087 86.300 C 205.178 85.695,205.178 84.705,205.087 84.100 C 204.995 83.495,204.920 83.990,204.920 85.200 M97.353 86.900 C 95.976 89.236,95.886 89.435,96.587 88.600 C 97.400 87.632,98.100 86.400,97.838 86.400 C 97.733 86.400,97.515 86.625,97.353 86.900 M202.600 87.600 C 202.941 88.260,203.311 88.800,203.421 88.800 C 203.531 88.800,203.341 88.260,203.000 87.600 C 202.659 86.940,202.289 86.400,202.179 86.400 C 202.069 86.400,202.259 86.940,202.600 87.600 M204.368 88.900 C 204.249 89.760,204.310 90.250,204.512 90.048 C 204.705 89.855,204.798 89.181,204.719 88.549 C 204.587 87.491,204.559 87.519,204.368 88.900 M75.227 90.971 C 74.725 91.506,74.409 92.181,74.526 92.471 C 74.689 92.882,74.744 92.871,74.768 92.426 C 74.786 92.110,75.191 91.435,75.670 90.926 C 76.148 90.417,76.449 90.000,76.339 90.000 C 76.229 90.000,75.729 90.437,75.227 90.971 M86.865 91.817 C 86.195 93.288,86.323 93.602,87.047 92.265 C 87.386 91.640,87.588 91.054,87.496 90.963 C 87.405 90.871,87.121 91.256,86.865 91.817 M92.865 95.017 C 92.195 96.488,92.323 96.802,93.047 95.465 C 93.386 94.840,93.588 94.254,93.496 94.163 C 93.405 94.071,93.121 94.456,92.865 95.017 M206.686 96.406 C 206.994 97.585,207.400 97.673,207.400 96.562 C 207.400 96.033,207.192 95.600,206.937 95.600 C 206.671 95.600,206.564 95.941,206.686 96.406 M210.000 97.725 C 210.000 97.824,210.661 98.409,211.468 99.025 C 212.276 99.641,212.811 99.941,212.656 99.691 C 212.340 99.179,210.000 97.447,210.000 97.725 M76.428 98.600 C 76.428 98.820,76.686 99.450,77.000 100.000 C 77.314 100.550,77.572 100.820,77.572 100.600 C 77.572 100.380,77.314 99.750,77.000 99.200 C 76.686 98.650,76.428 98.380,76.428 98.600 M213.200 100.146 C 213.200 100.256,213.740 100.730,214.400 101.200 C 215.060 101.670,215.600 101.964,215.600 101.854 C 215.600 101.744,215.060 101.270,214.400 100.800 C 213.740 100.330,213.200 100.036,213.200 100.146 M208.644 102.000 C 208.780 102.770,209.054 103.670,209.251 104.000 C 209.677 104.710,209.268 102.637,208.739 101.400 C 208.508 100.860,208.477 101.056,208.644 102.000 M82.800 103.200 C 82.551 104.124,82.426 104.959,82.521 105.055 C 82.617 105.150,82.890 104.463,83.127 103.527 C 83.365 102.591,83.490 101.757,83.406 101.673 C 83.322 101.588,83.049 102.276,82.800 103.200 M78.000 102.084 C 78.000 102.516,79.215 105.200,79.411 105.200 C 79.521 105.200,79.333 104.534,78.993 103.721 C 78.393 102.286,78.000 101.638,78.000 102.084 M220.229 105.638 C 220.873 106.429,221.481 107.008,221.579 106.925 C 221.678 106.842,221.151 106.195,220.409 105.487 L 219.058 104.200 220.229 105.638 M202.663 106.200 C 202.801 107.080,203.065 108.160,203.250 108.600 C 203.464 109.108,203.495 108.815,203.337 107.800 C 203.199 106.920,202.935 105.840,202.750 105.400 C 202.536 104.892,202.505 105.185,202.663 106.200 M89.000 106.400 C 88.848 107.091,88.807 107.741,88.909 107.842 C 89.011 107.944,89.209 107.453,89.350 106.750 C 89.683 105.083,89.360 104.760,89.000 106.400 M80.414 107.726 C 80.406 107.906,80.586 108.401,80.814 108.826 C 81.270 109.679,82.000 109.868,82.000 109.133 C 82.000 108.877,81.874 108.792,81.721 108.946 C 81.567 109.099,81.214 108.814,80.935 108.313 C 80.656 107.811,80.422 107.547,80.414 107.726 M220.694 109.703 L 219.988 111.000 220.794 110.056 C 221.480 109.252,221.846 108.394,221.500 108.403 C 221.445 108.404,221.082 108.989,220.694 109.703 M210.493 111.200 C 210.493 111.970,210.575 112.285,210.676 111.900 C 210.776 111.515,210.776 110.885,210.676 110.500 C 210.575 110.115,210.493 110.430,210.493 111.200 M210.887 117.876 C 210.808 122.680,211.133 124.594,211.754 122.977 C 211.885 122.633,211.820 122.464,211.607 122.595 C 211.373 122.740,211.176 120.846,211.099 117.716 L 210.974 112.600 210.887 117.876 M204.128 116.800 C 204.128 118.230,204.201 118.815,204.289 118.100 C 204.378 117.385,204.378 116.215,204.289 115.500 C 204.201 114.785,204.128 115.370,204.128 116.800 M80.016 116.126 C 79.523 116.918,79.533 116.949,80.123 116.461 C 80.718 115.970,80.786 116.352,80.901 120.861 L 81.027 125.800 81.114 120.724 C 81.202 115.534,80.975 114.585,80.016 116.126 M87.746 119.400 C 87.747 121.600,87.814 122.449,87.895 121.287 C 87.976 120.124,87.976 118.324,87.893 117.287 C 87.811 116.249,87.745 117.200,87.746 119.400 M214.950 117.900 C 213.767 119.525,213.402 120.352,214.377 119.200 C 215.278 118.134,216.119 116.800,215.889 116.800 C 215.813 116.800,215.390 117.295,214.950 117.900 M204.128 122.000 C 204.128 123.430,204.201 124.015,204.289 123.300 C 204.378 122.585,204.378 121.415,204.289 120.700 C 204.201 119.985,204.128 120.570,204.128 122.000 M73.519 125.300 C 72.357 126.848,71.896 127.600,72.109 127.600 C 72.194 127.600,72.846 126.790,73.557 125.800 C 75.032 123.746,75.000 123.327,73.519 125.300 M70.814 129.174 C 70.163 130.390,70.326 131.828,71.232 132.856 L 72.064 133.800 71.432 132.811 C 70.703 131.670,70.620 130.284,71.214 129.174 C 71.442 128.748,71.538 128.400,71.428 128.400 C 71.318 128.400,71.042 128.748,70.814 129.174 M210.148 129.392 C 210.012 129.745,210.013 130.147,210.151 130.284 C 210.288 130.421,210.400 130.313,210.400 130.043 C 210.400 129.773,210.580 129.664,210.800 129.800 C 211.020 129.936,211.200 129.867,211.200 129.647 C 211.200 128.928,210.400 128.734,210.148 129.392 M203.022 130.622 C 202.872 131.425,202.828 132.162,202.926 132.260 C 203.024 132.357,203.227 131.781,203.378 130.978 C 203.528 130.175,203.572 129.438,203.474 129.340 C 203.376 129.243,203.173 129.819,203.022 130.622 M336.742 133.096 L 336.200 136.192 333.102 136.828 C 329.163 137.636,329.007 137.830,332.024 138.171 C 336.121 138.634,336.211 138.711,336.769 142.167 C 337.385 145.987,337.727 145.989,338.276 142.178 C 338.804 138.515,338.373 138.920,342.428 138.277 C 346.029 137.706,345.958 137.575,341.600 136.759 C 338.517 136.181,338.543 136.212,338.193 132.731 C 337.836 129.171,337.409 129.278,336.742 133.096 M88.868 131.400 C 88.862 131.840,89.011 132.560,89.200 133.000 C 89.638 134.019,89.638 132.968,89.200 131.600 C 88.943 130.796,88.877 130.757,88.868 131.400 M212.428 133.400 C 212.428 133.620,212.686 134.250,213.000 134.800 C 213.314 135.350,213.572 135.620,213.572 135.400 C 213.572 135.180,213.314 134.550,213.000 134.000 C 212.686 133.450,212.428 133.180,212.428 133.400 M208.833 135.433 C 208.575 136.459,208.439 137.372,208.531 137.464 C 208.622 137.556,208.909 136.792,209.167 135.767 C 209.425 134.741,209.561 133.828,209.469 133.736 C 209.378 133.644,209.091 134.408,208.833 135.433 M82.856 135.600 C 82.856 135.930,83.011 136.560,83.200 137.000 C 83.417 137.504,83.544 137.578,83.544 137.200 C 83.544 136.870,83.389 136.240,83.200 135.800 C 82.983 135.296,82.856 135.222,82.856 135.600 M75.744 136.309 C 76.060 136.821,78.400 138.553,78.400 138.275 C 78.400 138.176,77.739 137.591,76.932 136.975 C 76.124 136.359,75.589 136.059,75.744 136.309 M214.000 136.884 C 214.000 137.316,215.215 140.000,215.411 140.000 C 215.521 140.000,215.333 139.334,214.993 138.521 C 214.393 137.086,214.000 136.438,214.000 136.884 M90.629 138.000 C 90.776 138.550,91.064 139.270,91.267 139.600 C 91.525 140.017,91.557 139.895,91.371 139.200 C 91.224 138.650,90.936 137.930,90.733 137.600 C 90.475 137.183,90.443 137.305,90.629 138.000 M80.400 139.725 C 80.400 139.824,81.061 140.409,81.868 141.025 C 82.676 141.641,83.211 141.941,83.056 141.691 C 82.740 141.179,80.400 139.447,80.400 139.725 M84.640 141.592 C 84.890 142.911,84.865 142.953,84.152 142.392 C 83.459 141.846,83.443 141.855,83.949 142.500 C 85.157 144.041,85.838 143.415,84.988 141.546 L 84.375 140.200 84.640 141.592 M92.434 142.600 C 92.434 142.820,92.778 143.630,93.200 144.400 C 93.622 145.170,93.966 145.620,93.966 145.400 C 93.966 145.180,93.622 144.370,93.200 143.600 C 92.778 142.830,92.434 142.380,92.434 142.600 M216.428 142.600 C 216.428 142.820,216.686 143.450,217.000 144.000 C 217.314 144.550,217.572 144.820,217.572 144.600 C 217.572 144.380,217.314 143.750,217.000 143.200 C 216.686 142.650,216.428 142.380,216.428 142.600 M94.600 147.200 C 94.941 147.860,95.311 148.400,95.421 148.400 C 95.531 148.400,95.341 147.860,95.000 147.200 C 94.659 146.540,94.289 146.000,94.179 146.000 C 94.069 146.000,94.259 146.540,94.600 147.200 M196.600 148.000 C 196.259 148.660,196.069 149.200,196.179 149.200 C 196.289 149.200,196.659 148.660,197.000 148.000 C 197.341 147.340,197.531 146.800,197.421 146.800 C 197.311 146.800,196.941 147.340,196.600 148.000 M87.399 148.900 C 87.148 149.611,86.390 157.475,86.450 158.742 C 86.516 160.150,87.017 156.661,87.389 152.201 L 87.687 148.614 88.453 150.107 C 88.874 150.928,89.308 151.600,89.418 151.600 C 89.527 151.600,89.249 150.880,88.800 150.000 C 87.932 148.298,87.680 148.101,87.399 148.900 M95.949 149.400 C 96.165 149.840,96.634 150.560,96.993 151.000 L 97.644 151.800 97.251 151.000 C 97.035 150.560,96.566 149.840,96.207 149.400 L 95.556 148.600 95.949 149.400 M89.949 152.600 C 90.165 153.040,90.634 153.760,90.993 154.200 L 91.644 155.000 91.251 154.200 C 91.035 153.760,90.566 153.040,90.207 152.600 L 89.556 151.800 89.949 152.600 M98.874 153.766 C 99.603 154.847,101.068 156.647,102.128 157.766 L 104.057 159.800 101.928 157.189 C 100.758 155.753,99.293 153.953,98.674 153.189 C 97.801 152.112,97.846 152.242,98.874 153.766 M192.400 154.400 C 191.930 155.060,191.636 155.600,191.746 155.600 C 191.856 155.600,192.330 155.060,192.800 154.400 C 193.270 153.740,193.564 153.200,193.454 153.200 C 193.344 153.200,192.870 153.740,192.400 154.400 M200.811 154.187 C 199.904 155.280,200.583 155.567,202.200 154.773 C 203.080 154.341,203.440 154.100,203.000 154.239 C 200.652 154.978,200.566 154.980,201.149 154.269 C 201.451 153.901,201.608 153.600,201.498 153.600 C 201.388 153.600,201.079 153.864,200.811 154.187 M189.625 157.769 L 188.250 159.400 189.805 157.913 C 190.660 157.096,191.279 156.362,191.180 156.283 C 191.081 156.203,190.381 156.872,189.625 157.769 M92.644 156.900 C 93.948 159.135,101.361 167.093,104.200 169.305 C 105.080 169.990,103.990 168.825,101.778 166.714 C 99.567 164.604,96.609 161.420,95.206 159.639 C 92.859 156.659,91.916 155.651,92.644 156.900 M104.587 160.331 C 105.202 161.424,112.460 167.600,113.128 167.600 C 113.404 167.600,113.200 167.423,110.600 165.415 C 109.500 164.566,107.630 162.955,106.444 161.835 C 105.258 160.716,104.422 160.039,104.587 160.331 M196.162 160.462 C 195.991 160.739,196.051 160.815,196.314 160.653 C 196.592 160.481,196.808 160.931,196.908 161.892 L 197.066 163.400 197.133 161.700 C 197.198 160.062,196.756 159.500,196.162 160.462 M86.101 162.200 C 86.105 163.080,86.187 163.393,86.283 162.895 C 86.379 162.398,86.375 161.678,86.275 161.295 C 86.175 160.913,86.096 161.320,86.101 162.200 M194.575 162.500 L 193.400 163.800 194.700 162.625 C 195.415 161.979,196.000 161.394,196.000 161.325 C 196.000 161.016,195.670 161.288,194.575 162.500 M196.493 164.800 C 196.493 165.570,196.575 165.885,196.676 165.500 C 196.776 165.115,196.776 164.485,196.676 164.100 C 196.575 163.715,196.493 164.030,196.493 164.800 M179.400 167.035 L 178.200 168.066 179.500 167.206 C 180.215 166.733,180.800 166.268,180.800 166.173 C 180.800 165.873,180.631 165.978,179.400 167.035 M189.200 167.800 C 188.228 168.790,187.523 169.600,187.633 169.600 C 187.743 169.600,188.628 168.790,189.600 167.800 C 190.572 166.810,191.277 166.000,191.167 166.000 C 191.057 166.000,190.172 166.810,189.200 167.800 M86.000 166.789 C 86.000 168.136,88.482 168.893,94.600 169.410 C 96.570 169.576,96.576 169.574,95.000 169.217 C 94.120 169.017,92.160 168.735,90.644 168.589 C 88.504 168.384,87.677 168.113,86.944 167.380 C 86.425 166.861,86.000 166.595,86.000 166.789 M114.000 168.116 C 114.000 168.454,119.653 171.681,119.868 171.466 C 119.981 171.352,119.473 170.952,118.737 170.577 C 118.002 170.202,116.635 169.452,115.700 168.910 C 114.765 168.368,114.000 168.011,114.000 168.116 M176.500 168.846 C 175.137 169.719,174.695 170.306,175.900 169.643 C 176.818 169.139,178.256 168.027,178.000 168.019 C 177.890 168.016,177.215 168.388,176.500 168.846 M375.190 168.300 C 375.159 169.210,373.298 180.035,373.147 180.186 C 373.048 180.285,370.634 180.745,367.784 181.208 C 358.969 182.639,358.969 182.637,367.619 183.958 C 370.522 184.402,372.994 184.861,373.113 184.979 C 373.288 185.154,375.154 195.867,375.190 196.900 C 375.235 198.220,375.950 196.726,376.160 194.874 C 376.305 193.595,376.744 190.866,377.136 188.811 C 377.969 184.443,377.484 184.786,384.196 183.821 C 386.834 183.442,389.262 182.981,389.591 182.797 C 390.296 182.402,390.334 182.412,383.200 181.196 C 380.450 180.727,378.097 180.221,377.971 180.072 C 377.689 179.738,376.519 173.438,376.156 170.300 C 375.944 168.465,375.234 166.997,375.190 168.300 M185.600 170.849 C 184.206 172.071,184.205 172.072,185.488 171.219 C 186.196 170.748,186.882 170.191,187.012 169.981 C 187.397 169.357,187.077 169.554,185.600 170.849 M102.100 170.276 C 102.485 170.376,103.115 170.376,103.500 170.276 C 103.885 170.175,103.570 170.093,102.800 170.093 C 102.030 170.093,101.715 170.175,102.100 170.276 M122.800 173.000 C 123.350 173.314,123.980 173.572,124.200 173.572 C 124.420 173.572,124.150 173.314,123.600 173.000 C 123.050 172.686,122.420 172.428,122.200 172.428 C 121.980 172.428,122.250 172.686,122.800 173.000 M168.400 173.000 C 167.850 173.314,167.580 173.572,167.800 173.572 C 168.020 173.572,168.650 173.314,169.200 173.000 C 169.750 172.686,170.020 172.428,169.800 172.428 C 169.580 172.428,168.950 172.686,168.400 173.000 M110.009 173.851 C 109.996 174.522,111.217 177.316,111.431 177.103 C 111.532 177.002,111.255 176.127,110.816 175.160 C 110.377 174.192,110.014 173.603,110.009 173.851 M111.600 174.767 C 112.563 175.552,113.200 175.808,113.200 175.410 C 113.200 175.306,112.615 174.935,111.900 174.586 L 110.600 173.952 111.600 174.767 M126.000 174.125 C 126.000 174.447,130.022 175.712,130.266 175.467 C 130.384 175.349,129.731 175.051,128.815 174.804 C 127.899 174.557,126.891 174.256,126.575 174.135 C 126.259 174.014,126.000 174.009,126.000 174.125 M179.700 174.846 C 178.337 175.719,177.895 176.306,179.100 175.643 C 180.018 175.139,181.456 174.027,181.200 174.019 C 181.090 174.016,180.415 174.388,179.700 174.846 M163.000 175.014 C 162.000 175.496,161.966 175.551,162.800 175.348 C 163.933 175.071,165.207 174.421,164.600 174.430 C 164.380 174.433,163.660 174.696,163.000 175.014 M113.600 175.752 C 113.600 176.053,116.495 177.638,116.689 177.444 C 116.793 177.341,116.140 176.880,115.239 176.420 C 114.337 175.960,113.600 175.660,113.600 175.752 M136.900 177.076 C 137.285 177.176,137.915 177.176,138.300 177.076 C 138.685 176.975,138.370 176.893,137.600 176.893 C 136.830 176.893,136.515 176.975,136.900 177.076 M153.700 177.076 C 154.085 177.176,154.715 177.176,155.100 177.076 C 155.485 176.975,155.170 176.893,154.400 176.893 C 153.630 176.893,153.315 176.975,153.700 177.076 M139.700 177.476 C 140.085 177.576,140.715 177.576,141.100 177.476 C 141.485 177.375,141.170 177.293,140.400 177.293 C 139.630 177.293,139.315 177.375,139.700 177.476 M150.900 177.476 C 151.285 177.576,151.915 177.576,152.300 177.476 C 152.685 177.375,152.370 177.293,151.600 177.293 C 150.830 177.293,150.515 177.375,150.900 177.476 M194.078 178.315 C 193.199 179.227,192.975 179.262,189.278 179.067 C 186.253 178.908,185.928 178.934,187.800 179.188 C 192.057 179.765,193.064 179.679,194.278 178.634 C 194.895 178.103,195.310 177.599,195.200 177.514 C 195.090 177.429,194.585 177.790,194.078 178.315 M178.500 178.276 C 178.885 178.376,179.515 178.376,179.900 178.276 C 180.285 178.175,179.970 178.093,179.200 178.093 C 178.430 178.093,178.115 178.175,178.500 178.276 M112.018 178.451 C 111.980 178.980,113.257 181.676,113.452 181.481 C 113.565 181.368,113.293 180.584,112.847 179.738 C 112.400 178.892,112.027 178.313,112.018 178.451 M119.600 178.969 C 120.714 179.641,121.591 179.816,120.980 179.245 C 120.771 179.050,120.150 178.772,119.600 178.628 L 118.600 178.367 119.600 178.969 M183.105 178.683 C 183.602 178.779,184.322 178.775,184.705 178.675 C 185.087 178.575,184.680 178.496,183.800 178.501 C 182.920 178.505,182.607 178.587,183.105 178.683 M123.800 180.555 C 124.460 180.855,125.450 181.211,126.000 181.346 C 126.803 181.543,126.764 181.484,125.800 181.045 C 125.140 180.745,124.150 180.389,123.600 180.254 C 122.797 180.057,122.836 180.116,123.800 180.555 M166.600 181.014 C 165.600 181.496,165.566 181.551,166.400 181.348 C 167.533 181.071,168.807 180.421,168.200 180.430 C 167.980 180.433,167.260 180.696,166.600 181.014 M131.047 182.782 C 131.513 182.976,132.773 183.238,133.847 183.364 C 136.268 183.647,134.645 183.046,132.000 182.679 C 130.797 182.512,130.481 182.547,131.047 182.782 M114.018 182.851 C 113.980 183.380,115.257 186.076,115.452 185.881 C 115.565 185.768,115.293 184.984,114.847 184.138 C 114.400 183.292,114.027 182.713,114.018 182.851 M158.200 183.200 C 157.181 183.638,158.232 183.638,159.600 183.200 C 160.404 182.943,160.443 182.877,159.800 182.868 C 159.360 182.862,158.640 183.011,158.200 183.200 M134.400 184.619 C 133.410 185.133,132.737 185.563,132.904 185.576 C 133.289 185.606,136.800 183.966,136.800 183.756 C 136.800 183.468,136.210 183.680,134.400 184.619 M150.900 184.276 C 151.285 184.376,151.915 184.376,152.300 184.276 C 152.685 184.175,152.370 184.093,151.600 184.093 C 150.830 184.093,150.515 184.175,150.900 184.276 M129.700 186.634 C 128.985 186.946,128.400 187.294,128.400 187.407 C 128.400 187.615,131.206 186.527,131.546 186.187 C 131.886 185.847,131.020 186.057,129.700 186.634 M116.018 187.441 C 115.934 189.532,119.165 191.643,121.175 190.810 C 122.741 190.162,122.549 189.850,120.932 190.414 C 119.233 191.006,117.799 190.342,116.836 188.517 C 116.396 187.683,116.027 187.198,116.018 187.441 M124.400 189.000 C 123.850 189.314,123.580 189.572,123.800 189.572 C 124.020 189.572,124.650 189.314,125.200 189.000 C 125.750 188.686,126.020 188.428,125.800 188.428 C 125.580 188.428,124.950 188.686,124.400 189.000 M162.800 189.600 C 162.330 190.260,162.036 190.800,162.146 190.800 C 162.256 190.800,162.730 190.260,163.200 189.600 C 163.670 188.940,163.964 188.400,163.854 188.400 C 163.744 188.400,163.270 188.940,162.800 189.600 M160.400 192.800 C 159.703 193.680,159.223 194.400,159.333 194.400 C 159.443 194.400,160.103 193.680,160.800 192.800 C 161.497 191.920,161.977 191.200,161.867 191.200 C 161.757 191.200,161.097 191.920,160.400 192.800 M282.803 192.996 C 282.186 193.740,282.383 194.729,284.196 199.958 C 289.174 214.323,289.303 231.684,284.539 246.200 C 271.350 286.389,227.530 307.264,188.200 292.095 C 180.067 288.958,179.256 290.343,184.504 298.405 C 214.223 344.058,280.229 344.684,310.461 299.600 C 333.590 265.109,324.039 217.972,289.278 195.051 C 285.227 192.380,283.713 191.900,282.803 192.996 M225.512 206.222 C 225.360 206.373,225.010 207.839,224.735 209.479 C 224.157 212.916,224.131 212.939,220.017 213.573 C 218.376 213.826,216.984 214.083,216.922 214.144 C 216.861 214.205,218.480 214.570,220.520 214.954 L 224.228 215.652 224.705 218.650 C 225.386 222.930,225.696 223.043,226.289 219.224 C 226.918 215.169,226.341 215.716,230.842 214.904 L 234.600 214.226 230.849 213.529 C 226.355 212.694,226.917 213.223,226.299 209.245 C 226.018 207.431,225.663 206.070,225.512 206.222 M357.755 237.298 L 357.400 240.196 354.302 240.829 C 350.363 241.635,350.207 241.830,353.224 242.171 C 357.359 242.639,357.472 242.733,357.797 245.974 C 357.953 247.528,358.228 248.800,358.407 248.800 C 358.747 248.800,359.600 245.346,359.600 243.970 C 359.600 243.001,360.723 242.539,363.976 242.171 C 366.984 241.831,366.873 241.691,362.942 240.858 C 359.489 240.127,359.849 240.583,359.027 235.900 C 358.621 233.588,358.146 234.110,357.755 237.298 M99.043 309.500 C 98.927 309.885,98.566 311.884,98.241 313.942 C 97.527 318.457,98.272 317.804,92.576 318.904 L 87.800 319.825 92.129 320.536 C 98.304 321.551,97.620 320.892,98.427 326.600 C 99.110 331.428,99.410 331.369,100.183 326.259 C 100.719 322.709,101.036 321.581,101.541 321.429 C 101.904 321.320,104.000 320.932,106.200 320.567 C 108.400 320.202,110.255 319.855,110.321 319.797 C 110.388 319.739,108.768 319.394,106.721 319.031 C 104.675 318.668,102.523 318.277,101.940 318.163 C 100.919 317.962,100.854 317.785,100.188 313.377 C 99.467 308.609,99.390 308.348,99.043 309.500 M160.854 342.000 C 160.129 346.510,159.404 350.640,159.242 351.178 C 158.917 352.258,158.577 352.341,147.600 354.011 C 144.630 354.463,141.930 354.941,141.600 355.075 C 141.046 355.298,146.824 356.418,155.302 357.729 C 159.592 358.393,159.129 357.828,160.013 363.469 C 160.421 366.071,161.074 370.090,161.464 372.400 L 162.174 376.600 162.663 374.400 C 162.931 373.190,163.612 369.230,164.176 365.600 C 165.412 357.646,164.384 358.498,174.757 356.826 C 184.217 355.301,184.439 355.133,178.200 354.221 C 172.902 353.446,165.617 352.150,165.413 351.946 C 165.332 351.865,164.790 348.739,164.209 344.999 C 163.627 341.260,162.931 337.210,162.662 336.000 L 162.172 333.800 160.854 342.000 M275.805 352.348 C 275.479 355.592,275.303 355.803,272.600 356.172 C 268.353 356.753,268.205 357.387,272.216 357.816 C 275.242 358.141,275.418 358.340,275.823 361.920 C 276.196 365.222,276.604 365.047,277.258 361.300 L 277.800 358.200 280.700 357.845 C 284.852 357.336,284.602 356.848,279.804 356.096 L 277.807 355.783 277.305 353.013 C 276.611 349.184,276.144 348.977,275.805 352.348 " stroke="none" fill="#efed81" fill-rule="evenodd"></path></g></svg>