<svg id="svg" xmlns="http://www.w3.org/2000/svg" xmlns:xlink="http://www.w3.org/1999/xlink" width="400" height="400" viewBox="0, 0, 400,400"><g id="svgg"><path id="path0" d="M185.156 6.336 C 49.498 21.731,-29.078 166.145,31.748 288.281 C 106.517 438.413,327.762 429.636,381.284 274.415 C 393.134 240.049,397.237 179.759,388.620 166.608 L 387.464 164.844 296.857 164.844 L 206.250 164.844 206.250 202.734 L 206.250 240.625 258.203 240.625 C 307.610 240.625,310.156 240.694,310.156 242.024 C 310.156 246.790,302.963 264.198,297.410 272.869 C 267.521 319.546,188.180 329.886,138.795 293.539 C 63.220 237.918,82.305 120.627,171.674 91.468 C 204.576 80.733,236.766 85.261,269.621 105.247 L 278.695 110.766 307.086 82.367 C 322.702 66.747,335.318 53.826,335.122 53.653 C 295.118 18.355,238.015 0.338,185.156 6.336 " stroke="none" fill="#000000" fill-rule="evenodd"></path></g></svg>