<svg id="svg" version="1.1" xmlns="http://www.w3.org/2000/svg" xmlns:xlink="http://www.w3.org/1999/xlink" width="400" height="400" viewBox="0, 0, 400,400"><g id="svgg"><path id="path0" d="M195.000 29.466 C 192.546 30.482,189.712 32.692,188.375 34.636 C 185.938 38.179,186.000 37.399,186.000 64.459 L 186.000 89.218 187.139 91.709 C 192.217 102.814,207.668 102.787,212.938 91.663 L 214.200 89.000 214.327 66.542 C 214.486 38.332,214.318 37.036,209.950 32.761 C 206.250 29.139,199.427 27.635,195.000 29.466 M86.059 74.830 C 76.869 76.637,72.225 88.133,77.425 96.200 C 78.921 98.522,111.152 130.800,111.974 130.800 C 112.277 130.800,113.171 131.295,113.962 131.900 C 116.002 133.460,123.155 133.558,125.957 132.063 C 132.977 128.318,135.947 119.840,132.634 113.000 C 131.066 109.762,98.973 77.493,95.917 76.082 C 92.442 74.477,89.655 74.123,86.059 74.830 M307.200 74.924 C 306.210 75.211,304.715 75.775,303.879 76.178 C 302.142 77.015,269.718 109.189,268.252 111.529 C 263.717 118.773,266.328 127.939,274.111 132.098 C 276.849 133.560,283.825 133.430,286.652 131.863 C 290.501 129.729,322.896 96.742,323.948 93.885 C 327.936 83.053,317.996 71.800,307.200 74.924 M190.835 114.628 C 134.921 121.042,100.431 177.930,120.569 230.526 C 130.600 256.724,155.436 277.678,182.800 283.029 C 249.505 296.073,303.568 231.840,279.411 168.243 C 266.112 133.231,228.282 110.333,190.835 114.628 M213.213 144.105 C 256.864 155.342,271.692 208.300,240.032 239.886 C 210.679 269.170,159.331 257.288,146.311 218.200 C 134.798 183.634,155.547 149.502,192.000 143.042 C 195.370 142.445,209.520 143.154,213.213 144.105 M38.650 185.999 C 25.401 191.174,26.621 210.132,40.400 213.182 C 42.915 213.739,87.693 213.730,89.800 213.172 C 103.515 209.543,104.608 190.976,91.398 186.034 C 88.083 184.793,41.815 184.763,38.650 185.999 M308.650 185.999 C 295.472 191.146,296.525 209.609,310.200 213.178 C 312.404 213.753,357.624 213.748,359.800 213.172 C 373.405 209.572,374.657 191.494,361.671 186.153 L 359.400 185.219 335.000 185.228 C 311.971 185.237,310.490 185.280,308.650 185.999 M116.553 265.765 C 112.806 266.674,111.091 268.153,94.240 285.015 C 74.911 304.356,75.400 303.703,75.400 310.200 C 75.400 320.474,85.416 327.190,94.800 323.209 C 97.093 322.237,128.899 291.261,131.569 287.400 C 138.771 276.987,128.902 262.768,116.553 265.765 M277.189 265.743 C 268.451 267.626,263.647 277.289,267.379 285.477 C 268.993 289.018,300.959 321.020,304.763 322.903 C 316.400 328.663,329.050 316.155,323.644 304.233 C 322.503 301.717,321.251 300.357,306.120 285.193 C 285.931 264.961,284.691 264.127,277.189 265.743 M195.000 299.466 C 191.194 301.041,188.520 303.744,186.823 307.733 C 186.022 309.614,186.000 310.333,186.000 334.442 L 186.000 359.218 187.139 361.709 C 192.217 372.814,207.668 372.787,212.938 361.663 L 214.200 359.000 214.327 336.542 C 214.486 308.331,214.337 307.175,209.981 302.819 C 206.315 299.154,199.463 297.620,195.000 299.466 " stroke="none" fill="#d9cc01" fill-rule="evenodd"></path><path id="path1" d="M179.900 0.274 C 177.975 0.360,176.400 0.579,176.400 0.759 C 176.400 0.939,174.375 1.213,171.900 1.368 C 169.425 1.524,167.340 1.819,167.267 2.025 C 167.193 2.231,166.248 2.400,165.167 2.400 C 164.085 2.400,163.200 2.559,163.200 2.753 C 163.200 2.947,161.670 3.233,159.800 3.389 C 157.930 3.544,156.400 3.836,156.400 4.036 C 156.400 4.236,155.770 4.400,155.000 4.400 C 154.230 4.400,153.600 4.566,153.600 4.768 C 153.600 4.971,152.430 5.262,151.000 5.415 C 149.570 5.568,148.400 5.852,148.400 6.047 C 148.400 6.241,147.770 6.400,147.000 6.400 C 146.230 6.400,145.600 6.559,145.600 6.754 C 145.600 6.949,144.610 7.232,143.400 7.383 C 142.190 7.534,141.200 7.825,141.200 8.029 C 141.200 8.233,140.750 8.400,140.200 8.400 C 139.650 8.400,139.200 8.563,139.200 8.762 C 139.200 8.962,138.300 9.249,137.200 9.400 C 136.100 9.551,135.200 9.838,135.200 10.038 C 135.200 10.237,134.750 10.400,134.200 10.400 C 133.650 10.400,133.200 10.580,133.200 10.800 C 133.200 11.020,132.885 11.199,132.500 11.198 C 131.583 11.195,127.838 12.514,127.667 12.900 C 127.593 13.065,127.133 13.200,126.643 13.200 C 126.154 13.200,125.404 13.464,124.976 13.787 C 124.549 14.110,123.795 14.380,123.300 14.387 C 122.805 14.394,122.400 14.572,122.400 14.782 C 122.400 14.992,121.770 15.282,121.000 15.426 C 120.230 15.571,119.600 15.849,119.600 16.045 C 119.600 16.240,119.251 16.400,118.824 16.400 C 118.397 16.400,117.945 16.566,117.819 16.769 C 117.694 16.972,117.053 17.257,116.395 17.401 C 115.738 17.545,115.200 17.829,115.200 18.032 C 115.200 18.234,114.840 18.400,114.400 18.400 C 113.960 18.400,113.600 18.566,113.600 18.768 C 113.600 18.971,113.060 19.255,112.400 19.400 C 111.740 19.545,111.200 19.829,111.200 20.032 C 111.200 20.234,110.840 20.400,110.400 20.400 C 109.960 20.400,109.600 20.566,109.600 20.768 C 109.600 20.971,109.060 21.255,108.400 21.400 C 107.740 21.545,107.200 21.829,107.200 22.032 C 107.200 22.234,106.840 22.400,106.400 22.400 C 105.960 22.400,105.600 22.566,105.600 22.768 C 105.600 22.971,105.060 23.255,104.400 23.400 C 103.740 23.545,103.200 23.829,103.200 24.032 C 103.200 24.234,103.007 24.400,102.771 24.400 C 102.536 24.400,102.073 24.670,101.743 25.000 C 101.413 25.330,100.796 25.600,100.371 25.600 C 99.947 25.600,99.600 25.780,99.600 26.000 C 99.600 26.220,99.330 26.400,99.000 26.400 C 98.670 26.400,98.400 26.577,98.400 26.792 C 98.400 27.008,97.950 27.298,97.400 27.436 C 96.850 27.574,96.400 27.847,96.400 28.043 C 96.400 28.240,96.130 28.400,95.800 28.400 C 95.470 28.400,95.200 28.577,95.200 28.792 C 95.200 29.008,94.750 29.298,94.200 29.436 C 93.650 29.574,93.200 29.847,93.200 30.043 C 93.200 30.240,92.840 30.400,92.400 30.400 C 91.960 30.400,91.600 30.584,91.600 30.810 C 91.600 31.035,91.145 31.393,90.590 31.604 C 90.034 31.815,89.475 32.261,89.347 32.594 C 89.219 32.927,88.768 33.200,88.345 33.200 C 87.921 33.200,87.471 33.470,87.345 33.800 C 87.218 34.130,86.864 34.400,86.557 34.400 C 86.251 34.400,85.671 34.715,85.270 35.100 C 84.067 36.253,82.249 37.600,81.895 37.600 C 81.713 37.600,81.114 38.050,80.564 38.600 C 80.014 39.150,79.345 39.600,79.077 39.600 C 78.809 39.600,78.252 40.050,77.839 40.600 C 77.426 41.150,76.876 41.600,76.616 41.600 C 76.357 41.600,75.764 42.005,75.300 42.500 C 74.207 43.664,73.303 44.400,72.964 44.400 C 72.816 44.400,72.133 44.991,71.447 45.714 C 70.761 46.436,69.750 47.334,69.200 47.708 C 66.071 49.840,48.750 67.139,47.508 69.373 C 47.272 69.798,46.611 70.612,46.039 71.183 C 45.468 71.754,44.640 72.737,44.200 73.368 C 43.760 73.999,42.995 74.882,42.500 75.330 C 42.005 75.778,41.600 76.357,41.600 76.616 C 41.600 76.876,41.150 77.426,40.600 77.839 C 40.050 78.252,39.600 78.809,39.600 79.077 C 39.600 79.345,39.150 80.014,38.600 80.564 C 38.050 81.114,37.600 81.739,37.600 81.953 C 37.600 82.168,37.375 82.581,37.100 82.871 C 36.096 83.933,34.400 86.357,34.400 86.731 C 34.400 86.942,34.130 87.218,33.800 87.345 C 33.470 87.471,33.200 87.921,33.200 88.345 C 33.200 88.768,32.927 89.219,32.594 89.347 C 32.261 89.475,31.811 89.989,31.595 90.490 C 31.142 91.539,30.313 92.908,29.954 93.200 C 29.819 93.310,29.581 93.805,29.427 94.300 C 29.272 94.795,28.978 95.200,28.773 95.200 C 28.568 95.200,28.400 95.470,28.400 95.800 C 28.400 96.130,28.240 96.400,28.043 96.400 C 27.847 96.400,27.574 96.850,27.436 97.400 C 27.298 97.950,27.008 98.400,26.792 98.400 C 26.577 98.400,26.400 98.670,26.400 99.000 C 26.400 99.330,26.220 99.600,26.000 99.600 C 25.780 99.600,25.600 99.938,25.600 100.351 C 25.600 100.764,25.330 101.326,25.000 101.600 C 24.670 101.874,24.400 102.346,24.400 102.649 C 24.400 102.952,24.234 103.200,24.032 103.200 C 23.829 103.200,23.545 103.740,23.400 104.400 C 23.255 105.060,22.971 105.600,22.768 105.600 C 22.566 105.600,22.400 105.960,22.400 106.400 C 22.400 106.840,22.234 107.200,22.032 107.200 C 21.829 107.200,21.545 107.740,21.400 108.400 C 21.255 109.060,20.971 109.600,20.768 109.600 C 20.566 109.600,20.400 109.960,20.400 110.400 C 20.400 110.840,20.234 111.200,20.032 111.200 C 19.829 111.200,19.545 111.740,19.400 112.400 C 19.255 113.060,18.971 113.600,18.768 113.600 C 18.566 113.600,18.400 113.960,18.400 114.400 C 18.400 114.840,18.234 115.200,18.032 115.200 C 17.829 115.200,17.545 115.738,17.401 116.395 C 17.257 117.053,16.972 117.694,16.769 117.819 C 16.566 117.945,16.400 118.397,16.400 118.824 C 16.400 119.251,16.240 119.600,16.045 119.600 C 15.849 119.600,15.571 120.230,15.426 121.000 C 15.282 121.770,14.992 122.400,14.782 122.400 C 14.572 122.400,14.400 122.850,14.400 123.400 C 14.400 123.950,14.228 124.400,14.018 124.400 C 13.808 124.400,13.512 125.075,13.360 125.900 C 13.209 126.725,12.974 127.490,12.839 127.600 C 12.468 127.902,11.196 131.701,11.198 132.500 C 11.199 132.885,11.020 133.200,10.800 133.200 C 10.580 133.200,10.400 133.650,10.400 134.200 C 10.400 134.750,10.237 135.200,10.038 135.200 C 9.838 135.200,9.551 136.100,9.400 137.200 C 9.249 138.300,8.962 139.200,8.762 139.200 C 8.563 139.200,8.400 139.650,8.400 140.200 C 8.400 140.750,8.233 141.200,8.029 141.200 C 7.825 141.200,7.534 142.190,7.383 143.400 C 7.232 144.610,6.949 145.600,6.754 145.600 C 6.559 145.600,6.400 146.230,6.400 147.000 C 6.400 147.770,6.241 148.400,6.047 148.400 C 5.852 148.400,5.568 149.570,5.415 151.000 C 5.262 152.430,4.971 153.600,4.768 153.600 C 4.566 153.600,4.400 154.230,4.400 155.000 C 4.400 155.770,4.236 156.400,4.036 156.400 C 3.836 156.400,3.544 157.930,3.389 159.800 C 3.233 161.670,2.947 163.200,2.753 163.200 C 2.559 163.200,2.400 164.085,2.400 165.167 C 2.400 166.248,2.234 167.193,2.030 167.267 C 1.827 167.340,1.532 169.380,1.374 171.800 C 1.213 174.270,0.893 176.325,0.644 176.485 C 0.014 176.890,0.014 223.110,0.644 223.515 C 0.893 223.675,1.213 225.730,1.374 228.200 C 1.532 230.620,1.827 232.660,2.030 232.733 C 2.234 232.807,2.400 233.752,2.400 234.833 C 2.400 235.915,2.564 236.800,2.764 236.800 C 2.964 236.800,3.256 238.330,3.411 240.200 C 3.567 242.070,3.853 243.600,4.047 243.600 C 4.241 243.600,4.400 244.230,4.400 245.000 C 4.400 245.770,4.562 246.400,4.761 246.400 C 4.959 246.400,5.247 247.480,5.400 248.801 C 5.553 250.121,5.841 251.302,6.039 251.424 C 6.238 251.547,6.400 252.267,6.400 253.024 C 6.400 253.781,6.559 254.400,6.754 254.400 C 6.949 254.400,7.232 255.390,7.383 256.600 C 7.534 257.810,7.825 258.800,8.029 258.800 C 8.233 258.800,8.400 259.250,8.400 259.800 C 8.400 260.350,8.563 260.800,8.762 260.800 C 8.962 260.800,9.249 261.700,9.400 262.800 C 9.551 263.900,9.838 264.800,10.038 264.800 C 10.237 264.800,10.400 265.250,10.400 265.800 C 10.400 266.350,10.560 266.800,10.755 266.800 C 10.950 266.800,11.230 267.606,11.378 268.591 C 11.525 269.576,11.816 270.486,12.023 270.614 C 12.230 270.742,12.400 271.197,12.400 271.624 C 12.400 272.051,12.557 272.400,12.749 272.400 C 12.941 272.400,13.213 273.120,13.354 274.000 C 13.494 274.880,13.787 275.600,14.005 275.600 C 14.222 275.600,14.400 276.050,14.400 276.600 C 14.400 277.150,14.572 277.600,14.782 277.600 C 14.992 277.600,15.282 278.230,15.426 279.000 C 15.571 279.770,15.849 280.400,16.045 280.400 C 16.240 280.400,16.400 280.660,16.400 280.979 C 16.400 281.297,16.850 282.404,17.400 283.438 C 17.950 284.473,18.400 285.562,18.400 285.860 C 18.400 286.157,18.566 286.400,18.768 286.400 C 18.971 286.400,19.255 286.940,19.400 287.600 C 19.545 288.260,19.829 288.800,20.032 288.800 C 20.234 288.800,20.400 289.160,20.400 289.600 C 20.400 290.040,20.566 290.400,20.768 290.400 C 20.971 290.400,21.255 290.940,21.400 291.600 C 21.545 292.260,21.829 292.800,22.032 292.800 C 22.234 292.800,22.400 293.160,22.400 293.600 C 22.400 294.040,22.560 294.400,22.757 294.400 C 22.953 294.400,23.237 294.893,23.388 295.496 C 23.540 296.099,23.784 296.684,23.932 296.796 C 24.283 297.063,25.010 298.263,25.874 300.000 C 26.257 300.770,26.801 301.638,27.085 301.929 C 27.368 302.219,27.600 302.714,27.600 303.029 C 27.600 303.343,27.780 303.600,28.000 303.600 C 28.220 303.600,28.400 303.870,28.400 304.200 C 28.400 304.530,28.568 304.800,28.773 304.800 C 28.978 304.800,29.272 305.205,29.427 305.700 C 29.581 306.195,29.819 306.690,29.954 306.800 C 30.313 307.092,31.142 308.461,31.595 309.510 C 31.811 310.011,32.261 310.525,32.594 310.653 C 32.927 310.781,33.200 311.232,33.200 311.655 C 33.200 312.079,33.470 312.529,33.800 312.655 C 34.130 312.782,34.400 313.136,34.400 313.443 C 34.400 313.749,34.715 314.329,35.100 314.730 C 36.253 315.933,37.600 317.751,37.600 318.105 C 37.600 318.287,38.050 318.886,38.600 319.436 C 39.150 319.986,39.600 320.655,39.600 320.923 C 39.600 321.191,40.050 321.748,40.600 322.161 C 41.150 322.574,41.600 323.124,41.600 323.384 C 41.600 323.643,42.005 324.236,42.500 324.700 C 43.664 325.793,44.400 326.697,44.400 327.036 C 44.400 327.184,44.997 327.868,45.726 328.556 C 46.455 329.244,47.251 330.165,47.495 330.603 C 48.748 332.858,66.049 350.145,69.200 352.292 C 69.750 352.666,70.761 353.564,71.447 354.286 C 72.133 355.009,72.816 355.600,72.964 355.600 C 73.303 355.600,74.207 356.336,75.300 357.500 C 75.764 357.995,76.357 358.400,76.616 358.400 C 76.876 358.400,77.426 358.850,77.839 359.400 C 78.252 359.950,78.809 360.400,79.077 360.400 C 79.345 360.400,80.014 360.850,80.564 361.400 C 81.114 361.950,81.713 362.400,81.895 362.400 C 82.249 362.400,84.067 363.747,85.270 364.900 C 85.671 365.285,86.251 365.600,86.557 365.600 C 86.864 365.600,87.218 365.870,87.345 366.200 C 87.471 366.530,87.921 366.800,88.345 366.800 C 88.768 366.800,89.219 367.073,89.347 367.406 C 89.475 367.739,89.989 368.189,90.490 368.405 C 91.539 368.858,92.908 369.687,93.200 370.046 C 93.310 370.181,93.805 370.419,94.300 370.573 C 94.795 370.728,95.200 371.022,95.200 371.227 C 95.200 371.432,95.470 371.600,95.800 371.600 C 96.130 371.600,96.400 371.760,96.400 371.957 C 96.400 372.153,96.850 372.426,97.400 372.564 C 97.950 372.702,98.400 372.992,98.400 373.208 C 98.400 373.423,98.670 373.600,99.000 373.600 C 99.330 373.600,99.600 373.780,99.600 374.000 C 99.600 374.220,99.947 374.400,100.371 374.400 C 100.796 374.400,101.413 374.670,101.743 375.000 C 102.073 375.330,102.536 375.600,102.771 375.600 C 103.007 375.600,103.200 375.780,103.200 376.000 C 103.200 376.220,103.379 376.400,103.597 376.400 C 104.243 376.400,107.200 377.765,107.200 378.063 C 107.200 378.213,107.740 378.455,108.400 378.600 C 109.060 378.745,109.600 379.029,109.600 379.232 C 109.600 379.434,109.960 379.600,110.400 379.600 C 110.840 379.600,111.200 379.766,111.200 379.968 C 111.200 380.171,111.740 380.455,112.400 380.600 C 113.060 380.745,113.600 381.029,113.600 381.232 C 113.600 381.434,113.960 381.600,114.400 381.600 C 114.840 381.600,115.200 381.766,115.200 381.968 C 115.200 382.171,115.738 382.455,116.395 382.599 C 117.053 382.743,117.694 383.028,117.819 383.231 C 117.945 383.434,118.397 383.600,118.824 383.600 C 119.251 383.600,119.600 383.760,119.600 383.955 C 119.600 384.151,120.230 384.429,121.000 384.574 C 121.770 384.718,122.400 385.008,122.400 385.218 C 122.400 385.428,122.850 385.600,123.400 385.600 C 123.950 385.600,124.400 385.778,124.400 385.995 C 124.400 386.213,125.120 386.506,126.000 386.646 C 126.880 386.787,127.600 387.059,127.600 387.251 C 127.600 387.443,127.949 387.600,128.376 387.600 C 128.803 387.600,129.258 387.770,129.386 387.977 C 129.514 388.184,130.424 388.475,131.409 388.622 C 132.394 388.770,133.200 389.050,133.200 389.245 C 133.200 389.440,133.650 389.600,134.200 389.600 C 134.750 389.600,135.200 389.763,135.200 389.962 C 135.200 390.162,136.100 390.449,137.200 390.600 C 138.300 390.751,139.200 391.038,139.200 391.238 C 139.200 391.437,139.650 391.600,140.200 391.600 C 140.750 391.600,141.200 391.767,141.200 391.971 C 141.200 392.175,142.190 392.466,143.400 392.617 C 144.610 392.768,145.600 393.051,145.600 393.246 C 145.600 393.441,146.230 393.600,147.000 393.600 C 147.770 393.600,148.400 393.759,148.400 393.953 C 148.400 394.148,149.570 394.432,151.000 394.585 C 152.430 394.738,153.600 395.029,153.600 395.232 C 153.600 395.434,154.230 395.600,155.000 395.600 C 155.770 395.600,156.400 395.764,156.400 395.964 C 156.400 396.164,157.930 396.456,159.800 396.611 C 161.670 396.767,163.200 397.053,163.200 397.247 C 163.200 397.441,164.085 397.600,165.167 397.600 C 166.248 397.600,167.193 397.766,167.267 397.970 C 167.340 398.173,169.380 398.468,171.800 398.626 C 174.270 398.787,176.325 399.107,176.485 399.356 C 176.689 399.673,183.426 399.800,200.000 399.800 C 216.574 399.800,223.311 399.673,223.515 399.356 C 223.675 399.107,225.730 398.787,228.200 398.626 C 230.620 398.468,232.660 398.173,232.733 397.970 C 232.807 397.766,233.752 397.600,234.833 397.600 C 235.915 397.600,236.800 397.441,236.800 397.247 C 236.800 397.053,238.330 396.767,240.200 396.611 C 242.070 396.456,243.600 396.164,243.600 395.964 C 243.600 395.764,244.230 395.600,245.000 395.600 C 245.770 395.600,246.400 395.434,246.400 395.232 C 246.400 395.029,247.570 394.738,249.000 394.585 C 250.430 394.432,251.600 394.148,251.600 393.953 C 251.600 393.759,252.230 393.600,253.000 393.600 C 253.770 393.600,254.400 393.441,254.400 393.246 C 254.400 393.051,255.390 392.768,256.600 392.617 C 257.810 392.466,258.800 392.175,258.800 391.971 C 258.800 391.767,259.250 391.600,259.800 391.600 C 260.350 391.600,260.800 391.437,260.800 391.238 C 260.800 391.038,261.700 390.751,262.800 390.600 C 263.900 390.449,264.800 390.162,264.800 389.962 C 264.800 389.763,265.250 389.600,265.800 389.600 C 266.350 389.600,266.800 389.440,266.800 389.245 C 266.800 389.050,267.606 388.770,268.591 388.622 C 269.576 388.475,270.486 388.184,270.614 387.977 C 270.742 387.770,271.197 387.600,271.624 387.600 C 272.051 387.600,272.400 387.443,272.400 387.251 C 272.400 387.059,273.120 386.787,274.000 386.646 C 274.880 386.506,275.600 386.213,275.600 385.995 C 275.600 385.778,276.050 385.600,276.600 385.600 C 277.150 385.600,277.600 385.428,277.600 385.218 C 277.600 385.008,278.230 384.718,279.000 384.574 C 279.770 384.429,280.400 384.151,280.400 383.955 C 280.400 383.760,280.749 383.600,281.176 383.600 C 281.603 383.600,282.055 383.434,282.181 383.231 C 282.306 383.028,282.947 382.743,283.605 382.599 C 284.262 382.455,284.800 382.171,284.800 381.968 C 284.800 381.766,285.160 381.600,285.600 381.600 C 286.040 381.600,286.400 381.434,286.400 381.232 C 286.400 381.029,286.940 380.745,287.600 380.600 C 288.260 380.455,288.800 380.171,288.800 379.968 C 288.800 379.766,289.160 379.600,289.600 379.600 C 290.040 379.600,290.400 379.434,290.400 379.232 C 290.400 379.029,290.940 378.745,291.600 378.600 C 292.260 378.455,292.800 378.171,292.800 377.968 C 292.800 377.766,293.160 377.600,293.600 377.600 C 294.040 377.600,294.400 377.434,294.400 377.232 C 294.400 377.029,294.940 376.745,295.600 376.600 C 296.260 376.455,296.800 376.171,296.800 375.968 C 296.800 375.766,297.048 375.600,297.351 375.600 C 297.654 375.600,298.126 375.330,298.400 375.000 C 298.674 374.670,299.236 374.400,299.649 374.400 C 300.062 374.400,300.400 374.220,300.400 374.000 C 300.400 373.780,300.670 373.600,301.000 373.600 C 301.330 373.600,301.600 373.423,301.600 373.208 C 301.600 372.992,302.050 372.702,302.600 372.564 C 303.150 372.426,303.600 372.153,303.600 371.957 C 303.600 371.760,303.870 371.600,304.200 371.600 C 304.530 371.600,304.800 371.432,304.800 371.227 C 304.800 371.022,305.205 370.728,305.700 370.573 C 306.195 370.419,306.690 370.181,306.800 370.046 C 307.092 369.687,308.461 368.858,309.510 368.405 C 310.011 368.189,310.525 367.739,310.653 367.406 C 310.781 367.073,311.232 366.800,311.655 366.800 C 312.079 366.800,312.529 366.530,312.655 366.200 C 312.782 365.870,313.136 365.600,313.443 365.600 C 313.749 365.600,314.329 365.285,314.730 364.900 C 315.933 363.747,317.751 362.400,318.105 362.400 C 318.287 362.400,318.886 361.950,319.436 361.400 C 319.986 360.850,320.655 360.400,320.923 360.400 C 321.191 360.400,321.748 359.950,322.161 359.400 C 322.574 358.850,323.124 358.400,323.384 358.400 C 323.643 358.400,324.236 357.995,324.700 357.500 C 325.793 356.336,326.697 355.600,327.036 355.600 C 327.184 355.600,327.868 355.003,328.556 354.274 C 329.244 353.545,330.165 352.749,330.603 352.505 C 332.846 351.259,351.259 332.846,352.505 330.603 C 352.749 330.165,353.545 329.244,354.274 328.556 C 355.003 327.868,355.600 327.184,355.600 327.036 C 355.600 326.697,356.336 325.793,357.500 324.700 C 357.995 324.236,358.400 323.643,358.400 323.384 C 358.400 323.124,358.850 322.574,359.400 322.161 C 359.950 321.748,360.400 321.191,360.400 320.923 C 360.400 320.655,360.850 319.986,361.400 319.436 C 361.950 318.886,362.400 318.287,362.400 318.105 C 362.400 317.751,363.747 315.933,364.900 314.730 C 365.285 314.329,365.600 313.749,365.600 313.443 C 365.600 313.136,365.870 312.782,366.200 312.655 C 366.530 312.529,366.800 312.079,366.800 311.655 C 366.800 311.232,367.073 310.781,367.406 310.653 C 367.739 310.525,368.189 310.011,368.405 309.510 C 368.858 308.461,369.687 307.092,370.046 306.800 C 370.181 306.690,370.419 306.195,370.573 305.700 C 370.728 305.205,371.022 304.800,371.227 304.800 C 371.432 304.800,371.600 304.530,371.600 304.200 C 371.600 303.870,371.760 303.600,371.957 303.600 C 372.153 303.600,372.426 303.150,372.564 302.600 C 372.702 302.050,372.992 301.600,373.208 301.600 C 373.423 301.600,373.600 301.330,373.600 301.000 C 373.600 300.670,373.780 300.400,374.000 300.400 C 374.220 300.400,374.400 300.062,374.400 299.649 C 374.400 299.236,374.670 298.674,375.000 298.400 C 375.330 298.126,375.600 297.654,375.600 297.351 C 375.600 297.048,375.766 296.800,375.968 296.800 C 376.171 296.800,376.455 296.260,376.600 295.600 C 376.745 294.940,377.029 294.400,377.232 294.400 C 377.434 294.400,377.600 294.040,377.600 293.600 C 377.600 293.160,377.766 292.800,377.968 292.800 C 378.171 292.800,378.455 292.260,378.600 291.600 C 378.745 290.940,379.029 290.400,379.232 290.400 C 379.434 290.400,379.600 290.040,379.600 289.600 C 379.600 289.160,379.766 288.800,379.968 288.800 C 380.171 288.800,380.455 288.260,380.600 287.600 C 380.745 286.940,381.029 286.400,381.232 286.400 C 381.434 286.400,381.600 286.040,381.600 285.600 C 381.600 285.160,381.766 284.800,381.968 284.800 C 382.171 284.800,382.455 284.262,382.599 283.605 C 382.743 282.947,383.028 282.306,383.231 282.181 C 383.434 282.055,383.600 281.603,383.600 281.176 C 383.600 280.749,383.760 280.400,383.955 280.400 C 384.151 280.400,384.429 279.770,384.574 279.000 C 384.718 278.230,385.008 277.600,385.218 277.600 C 385.428 277.600,385.600 277.150,385.600 276.600 C 385.600 276.050,385.778 275.600,385.995 275.600 C 386.213 275.600,386.506 274.880,386.646 274.000 C 386.787 273.120,387.059 272.400,387.251 272.400 C 387.443 272.400,387.600 272.051,387.600 271.624 C 387.600 271.197,387.770 270.742,387.977 270.614 C 388.184 270.486,388.475 269.576,388.622 268.591 C 388.770 267.606,389.050 266.800,389.245 266.800 C 389.440 266.800,389.600 266.350,389.600 265.800 C 389.600 265.250,389.763 264.800,389.962 264.800 C 390.162 264.800,390.449 263.900,390.600 262.800 C 390.751 261.700,391.038 260.800,391.238 260.800 C 391.437 260.800,391.600 260.350,391.600 259.800 C 391.600 259.250,391.767 258.800,391.971 258.800 C 392.175 258.800,392.466 257.810,392.617 256.600 C 392.768 255.390,393.051 254.400,393.246 254.400 C 393.441 254.400,393.600 253.770,393.600 253.000 C 393.600 252.230,393.766 251.600,393.968 251.600 C 394.171 251.600,394.462 250.430,394.615 249.000 C 394.768 247.570,395.052 246.400,395.247 246.400 C 395.441 246.400,395.600 245.770,395.600 245.000 C 395.600 244.230,395.764 243.600,395.964 243.600 C 396.164 243.600,396.456 242.070,396.611 240.200 C 396.767 238.330,397.053 236.800,397.247 236.800 C 397.441 236.800,397.600 235.915,397.600 234.833 C 397.600 233.752,397.766 232.807,397.970 232.733 C 398.173 232.660,398.468 230.620,398.626 228.200 C 398.787 225.730,399.107 223.675,399.356 223.515 C 399.673 223.311,399.800 216.574,399.800 200.000 C 399.800 183.426,399.673 176.689,399.356 176.485 C 399.107 176.325,398.787 174.270,398.626 171.800 C 398.468 169.380,398.173 167.340,397.970 167.267 C 397.766 167.193,397.600 166.248,397.600 165.167 C 397.600 164.085,397.441 163.200,397.247 163.200 C 397.053 163.200,396.767 161.670,396.611 159.800 C 396.456 157.930,396.164 156.400,395.964 156.400 C 395.764 156.400,395.600 155.770,395.600 155.000 C 395.600 154.230,395.434 153.600,395.232 153.600 C 395.029 153.600,394.738 152.430,394.585 151.000 C 394.432 149.570,394.148 148.400,393.953 148.400 C 393.759 148.400,393.600 147.770,393.600 147.000 C 393.600 146.230,393.441 145.600,393.246 145.600 C 393.051 145.600,392.768 144.610,392.617 143.400 C 392.466 142.190,392.175 141.200,391.971 141.200 C 391.767 141.200,391.600 140.750,391.600 140.200 C 391.600 139.650,391.437 139.200,391.238 139.200 C 391.038 139.200,390.751 138.300,390.600 137.200 C 390.449 136.100,390.162 135.200,389.962 135.200 C 389.763 135.200,389.600 134.750,389.600 134.200 C 389.600 133.650,389.443 133.200,389.251 133.200 C 389.059 133.200,388.787 132.482,388.647 131.605 C 388.507 130.728,388.062 129.423,387.659 128.705 C 387.256 127.987,386.800 126.725,386.645 125.900 C 386.490 125.075,386.192 124.400,385.982 124.400 C 385.772 124.400,385.600 123.950,385.600 123.400 C 385.600 122.850,385.428 122.400,385.218 122.400 C 385.008 122.400,384.718 121.770,384.574 121.000 C 384.429 120.230,384.151 119.600,383.955 119.600 C 383.760 119.600,383.600 119.251,383.600 118.824 C 383.600 118.397,383.434 117.945,383.231 117.819 C 383.028 117.694,382.743 117.053,382.599 116.395 C 382.455 115.738,382.171 115.200,381.968 115.200 C 381.766 115.200,381.600 114.840,381.600 114.400 C 381.600 113.960,381.434 113.600,381.232 113.600 C 381.029 113.600,380.745 113.060,380.600 112.400 C 380.455 111.740,380.171 111.200,379.968 111.200 C 379.766 111.200,379.600 110.840,379.600 110.400 C 379.600 109.960,379.434 109.600,379.232 109.600 C 379.029 109.600,378.745 109.060,378.600 108.400 C 378.455 107.740,378.171 107.200,377.968 107.200 C 377.766 107.200,377.600 106.840,377.600 106.400 C 377.600 105.960,377.440 105.600,377.243 105.600 C 377.047 105.600,376.763 105.107,376.612 104.504 C 376.460 103.901,376.216 103.316,376.068 103.204 C 375.717 102.937,374.990 101.737,374.126 100.000 C 373.743 99.230,373.199 98.362,372.915 98.071 C 372.632 97.781,372.400 97.286,372.400 96.971 C 372.400 96.657,372.220 96.400,372.000 96.400 C 371.780 96.400,371.600 96.130,371.600 95.800 C 371.600 95.470,371.423 95.200,371.208 95.200 C 370.992 95.200,370.702 94.750,370.564 94.200 C 370.426 93.650,370.197 93.200,370.054 93.200 C 369.912 93.200,369.565 92.679,369.283 92.043 C 369.001 91.406,368.327 90.407,367.785 89.822 C 367.243 89.237,366.800 88.492,366.800 88.167 C 366.800 87.841,366.530 87.471,366.200 87.345 C 365.870 87.218,365.600 86.774,365.600 86.357 C 365.600 85.941,365.439 85.600,365.242 85.600 C 365.045 85.600,364.281 84.655,363.546 83.500 C 362.810 82.345,361.801 80.987,361.304 80.482 C 360.807 79.977,360.400 79.342,360.400 79.070 C 360.400 78.799,360.022 78.312,359.560 77.988 C 359.097 77.665,358.602 77.105,358.460 76.745 C 358.180 76.039,355.798 73.115,353.700 70.902 C 352.985 70.148,352.400 69.368,352.400 69.168 C 352.400 68.968,350.870 67.267,349.000 65.389 C 347.130 63.510,345.600 61.799,345.600 61.587 C 345.600 61.374,345.319 61.200,344.976 61.200 C 344.633 61.200,344.464 61.020,344.600 60.800 C 344.736 60.580,344.646 60.400,344.400 60.400 C 344.154 60.400,344.064 60.220,344.200 60.000 C 344.336 59.780,344.280 59.600,344.075 59.600 C 343.871 59.600,342.534 58.430,341.104 57.000 C 339.674 55.570,338.393 54.400,338.257 54.400 C 338.121 54.400,336.638 53.050,334.961 51.400 C 333.284 49.750,331.632 48.400,331.289 48.400 C 330.947 48.400,330.772 48.295,330.900 48.167 C 331.130 47.937,329.808 46.400,329.381 46.400 C 329.260 46.400,328.745 45.950,328.235 45.400 C 327.725 44.850,327.186 44.400,327.037 44.400 C 326.697 44.400,325.794 43.666,324.700 42.500 C 324.236 42.005,323.700 41.600,323.509 41.600 C 323.318 41.600,322.745 41.150,322.235 40.600 C 321.725 40.050,321.112 39.600,320.872 39.600 C 320.633 39.600,319.986 39.150,319.436 38.600 C 318.886 38.050,318.275 37.600,318.078 37.600 C 317.880 37.600,317.166 37.105,316.490 36.500 C 314.447 34.670,314.058 34.400,313.460 34.400 C 313.144 34.400,312.782 34.130,312.655 33.800 C 312.529 33.470,312.079 33.200,311.655 33.200 C 311.232 33.200,310.781 32.927,310.653 32.594 C 310.525 32.261,309.966 31.815,309.410 31.604 C 308.855 31.393,308.400 31.035,308.400 30.810 C 308.400 30.584,308.040 30.400,307.600 30.400 C 307.160 30.400,306.800 30.240,306.800 30.043 C 306.800 29.847,306.350 29.574,305.800 29.436 C 305.250 29.298,304.800 29.008,304.800 28.792 C 304.800 28.577,304.530 28.400,304.200 28.400 C 303.870 28.400,303.600 28.240,303.600 28.043 C 303.600 27.847,303.150 27.574,302.600 27.436 C 302.050 27.298,301.600 27.008,301.600 26.792 C 301.600 26.577,301.330 26.400,301.000 26.400 C 300.670 26.400,300.400 26.220,300.400 26.000 C 300.400 25.780,300.053 25.600,299.629 25.600 C 299.204 25.600,298.587 25.330,298.257 25.000 C 297.927 24.670,297.464 24.400,297.229 24.400 C 296.993 24.400,296.800 24.234,296.800 24.032 C 296.800 23.829,296.260 23.545,295.600 23.400 C 294.940 23.255,294.400 22.971,294.400 22.768 C 294.400 22.566,294.040 22.400,293.600 22.400 C 293.160 22.400,292.800 22.234,292.800 22.032 C 292.800 21.829,292.260 21.545,291.600 21.400 C 290.940 21.255,290.400 20.971,290.400 20.768 C 290.400 20.566,290.040 20.400,289.600 20.400 C 289.160 20.400,288.800 20.234,288.800 20.032 C 288.800 19.829,288.260 19.545,287.600 19.400 C 286.940 19.255,286.400 18.971,286.400 18.768 C 286.400 18.566,286.157 18.400,285.860 18.400 C 285.562 18.400,284.473 17.950,283.438 17.400 C 282.404 16.850,281.297 16.400,280.979 16.400 C 280.660 16.400,280.400 16.240,280.400 16.045 C 280.400 15.849,279.770 15.571,279.000 15.426 C 278.230 15.282,277.600 14.992,277.600 14.782 C 277.600 14.572,277.150 14.400,276.600 14.400 C 276.050 14.400,275.600 14.222,275.600 14.005 C 275.600 13.787,274.880 13.494,274.000 13.354 C 273.120 13.213,272.400 12.941,272.400 12.749 C 272.400 12.557,272.051 12.400,271.624 12.400 C 271.197 12.400,270.742 12.230,270.614 12.023 C 270.486 11.816,269.576 11.525,268.591 11.378 C 267.606 11.230,266.800 10.950,266.800 10.755 C 266.800 10.560,266.350 10.400,265.800 10.400 C 265.250 10.400,264.800 10.237,264.800 10.038 C 264.800 9.838,263.900 9.551,262.800 9.400 C 261.700 9.249,260.800 8.962,260.800 8.762 C 260.800 8.563,260.350 8.400,259.800 8.400 C 259.250 8.400,258.800 8.233,258.800 8.029 C 258.800 7.825,257.810 7.534,256.600 7.383 C 255.390 7.232,254.400 6.949,254.400 6.754 C 254.400 6.559,253.770 6.400,253.000 6.400 C 252.230 6.400,251.600 6.241,251.600 6.047 C 251.600 5.852,250.430 5.568,249.000 5.415 C 247.570 5.262,246.400 4.971,246.400 4.768 C 246.400 4.566,245.770 4.400,245.000 4.400 C 244.230 4.400,243.600 4.236,243.600 4.036 C 243.600 3.836,242.070 3.544,240.200 3.389 C 238.330 3.233,236.800 2.947,236.800 2.753 C 236.800 2.559,235.915 2.400,234.833 2.400 C 233.752 2.400,232.807 2.234,232.733 2.030 C 232.660 1.827,230.620 1.532,228.200 1.374 C 225.780 1.216,223.676 0.894,223.523 0.658 C 223.249 0.232,187.784 -0.080,179.900 0.274 M206.136 29.975 C 213.999 33.820,214.499 36.052,214.327 66.542 L 214.200 89.000 212.938 91.663 C 207.668 102.787,192.217 102.814,187.139 91.709 L 186.000 89.218 186.000 64.459 C 186.000 37.399,185.938 38.179,188.375 34.636 C 192.033 29.320,200.338 27.140,206.136 29.975 M92.317 74.816 C 96.546 75.791,97.166 76.318,114.636 93.776 C 134.203 113.329,133.796 112.789,133.798 119.200 C 133.800 124.958,131.161 129.287,125.957 132.063 C 123.155 133.558,116.002 133.460,113.962 131.900 C 113.171 131.295,112.277 130.800,111.974 130.800 C 111.152 130.800,78.921 98.522,77.425 96.200 C 70.666 85.714,80.202 72.021,92.317 74.816 M316.534 75.719 C 323.381 78.853,326.588 86.713,323.948 93.885 C 322.896 96.742,290.501 129.729,286.652 131.863 C 283.825 133.430,276.849 133.560,274.111 132.098 C 266.328 127.939,263.717 118.773,268.252 111.529 C 269.718 109.189,302.142 77.015,303.879 76.178 C 308.072 74.157,312.753 73.987,316.534 75.719 M208.406 114.582 C 252.620 119.275,285.028 155.177,284.971 199.400 C 284.871 275.602,193.396 313.451,139.628 259.538 C 113.936 233.776,107.464 194.991,123.387 162.200 C 138.958 130.133,173.364 110.863,208.406 114.582 M192.000 143.042 C 155.547 149.502,134.798 183.634,146.311 218.200 C 159.331 257.288,210.679 269.170,240.032 239.886 C 271.692 208.300,256.864 155.342,213.213 144.105 C 209.520 143.154,195.370 142.445,192.000 143.042 M91.398 186.034 C 104.608 190.976,103.515 209.543,89.800 213.172 C 87.693 213.730,42.915 213.739,40.400 213.182 C 26.621 210.132,25.401 191.174,38.650 185.999 C 41.815 184.763,88.083 184.793,91.398 186.034 M361.671 186.153 C 374.657 191.494,373.405 209.572,359.800 213.172 C 357.624 213.748,312.404 213.753,310.200 213.178 C 298.421 210.104,295.370 194.612,305.202 187.798 C 309.010 185.160,308.098 185.238,335.000 185.228 L 359.400 185.219 361.671 186.153 M122.480 265.649 C 132.459 267.764,137.238 279.203,131.569 287.400 C 128.899 291.261,97.093 322.237,94.800 323.209 C 83.004 328.213,70.879 315.406,76.526 303.906 C 77.868 301.175,109.439 269.231,112.667 267.340 C 115.852 265.473,119.050 264.922,122.480 265.649 M283.290 265.751 C 287.444 266.729,289.116 268.153,306.120 285.193 C 321.251 300.357,322.503 301.717,323.644 304.233 C 329.050 316.155,316.400 328.663,304.763 322.903 C 300.959 321.020,268.993 289.018,267.379 285.477 C 262.540 274.860,272.026 263.101,283.290 265.751 M206.147 299.981 C 208.662 301.210,211.623 304.186,212.779 306.646 C 214.298 309.877,214.459 312.990,214.327 336.542 L 214.200 359.000 212.938 361.663 C 207.668 372.787,192.217 372.814,187.139 361.709 L 186.000 359.218 186.000 334.442 C 186.000 306.971,185.875 308.373,188.685 304.288 C 192.132 299.277,200.491 297.216,206.147 299.981 " stroke="none" fill="#fff955" fill-rule="evenodd"></path></g></svg>