<svg id="svg" version="1.1" xmlns="http://www.w3.org/2000/svg" xmlns:xlink="http://www.w3.org/1999/xlink" width="400" height="400" viewBox="0, 0, 400,400"><g id="svgg"><path id="path0" d="M259.865 59.368 C 227.513 62.861,225.825 109.501,257.830 115.588 C 287.356 121.205,303.800 81.134,278.921 64.192 C 274.611 61.258,265.224 58.348,262.395 59.070 C 262.302 59.094,261.164 59.228,259.865 59.368 M157.336 107.477 C 154.444 107.833,151.542 109.219,130.751 120.170 C 113.638 129.183,107.778 132.428,106.404 133.651 C 98.852 140.372,103.252 151.944,113.336 151.883 C 116.370 151.864,115.825 152.077,138.080 142.229 L 157.947 133.438 175.781 135.762 C 185.590 137.040,193.783 138.190,193.988 138.316 C 194.229 138.465,192.570 142.047,189.298 148.447 C 173.336 179.666,167.620 191.213,166.948 193.592 C 164.036 203.905,167.654 213.365,176.088 217.492 C 178.852 218.846,182.301 219.851,222.766 231.099 C 226.847 232.233,230.236 233.200,230.298 233.247 C 230.359 233.294,225.980 239.909,220.567 247.948 C 194.118 287.220,196.182 284.028,195.229 287.128 C 191.282 299.968,206.123 308.874,216.337 299.794 C 218.574 297.805,267.064 233.120,268.052 230.806 C 273.058 219.085,268.643 211.048,254.393 205.941 C 251.652 204.959,242.406 201.613,233.847 198.506 L 218.284 192.856 232.820 175.265 C 252.553 151.382,252.809 151.024,254.311 145.152 C 257.979 130.809,246.297 115.940,228.768 112.641 C 225.801 112.082,159.385 107.034,158.516 107.301 C 158.423 107.329,157.892 107.408,157.336 107.477 M261.159 139.713 C 261.096 148.092,258.516 153.897,250.689 163.273 C 250.231 163.822,267.811 179.191,272.706 182.520 C 278.767 186.643,283.530 186.363,290.556 181.471 C 311.947 166.578,328.590 154.713,329.744 153.532 C 336.672 146.449,332.473 135.750,322.766 135.750 C 318.919 135.750,318.172 136.051,310.505 140.692 C 307.695 142.392,300.453 146.774,294.412 150.430 L 283.427 157.075 277.886 151.660 C 274.838 148.682,269.898 143.846,266.909 140.913 C 263.919 137.981,261.410 135.582,261.332 135.582 C 261.254 135.582,261.176 137.441,261.159 139.713 M157.748 222.007 C 156.146 227.247,152.620 238.812,149.911 247.707 C 145.120 263.441,144.949 263.920,143.593 265.413 C 142.275 266.863,126.062 283.565,112.309 297.639 C 96.272 314.052,94.197 316.266,93.165 318.072 C 86.096 330.444,99.446 342.760,111.489 334.976 C 112.597 334.260,116.839 330.586,120.917 326.812 C 124.994 323.038,134.018 314.703,140.969 308.289 C 147.920 301.875,156.723 293.744,160.530 290.219 C 164.338 286.695,168.616 282.786,170.036 281.532 C 171.457 280.279,173.193 278.388,173.895 277.331 C 175.236 275.311,175.410 274.888,185.164 249.916 C 188.533 241.290,191.671 233.274,192.136 232.101 C 193.186 229.458,194.225 230.059,183.240 226.959 C 172.481 223.922,168.966 222.399,165.842 219.422 C 163.944 217.612,161.214 213.784,161.214 212.933 C 161.214 211.266,160.299 213.662,157.748 222.007 " stroke="none" fill="#ffffff" fill-rule="evenodd"></path><path id="path1" d="M186.678 0.219 C 118.092 5.629,59.932 42.022,26.139 100.675 C 2.377 141.918,-5.775 193.026,3.893 240.138 C 20.044 318.836,81.164 379.956,159.862 396.107 C 185.379 401.344,214.621 401.344,240.138 396.107 C 318.836 379.956,379.956 318.836,396.107 240.138 C 401.344 214.621,401.344 185.379,396.107 159.862 C 378.445 73.799,308.881 10.890,220.236 0.815 C 215.571 0.285,191.304 -0.146,186.678 0.219 M265.599 59.365 C 285.430 61.573,296.963 82.171,288.364 100.026 C 279.779 117.851,255.687 121.499,242.166 107.021 C 226.132 89.852,236.518 61.889,259.865 59.368 C 261.164 59.228,262.302 59.094,262.395 59.070 C 262.487 59.047,263.929 59.179,265.599 59.365 M191.906 109.602 C 232.418 112.472,232.974 112.557,240.605 117.107 C 253.768 124.953,258.475 138.468,252.228 150.476 C 250.423 153.944,250.188 154.245,232.820 175.265 L 218.284 192.856 233.847 198.506 C 242.406 201.613,251.652 204.959,254.393 205.941 C 268.643 211.048,273.058 219.085,268.052 230.806 C 267.064 233.120,218.574 297.805,216.337 299.794 C 206.123 308.874,191.282 299.968,195.229 287.128 C 196.182 284.028,194.118 287.220,220.567 247.948 C 225.980 239.909,230.359 233.294,230.298 233.247 C 230.236 233.200,226.847 232.233,222.766 231.099 C 182.301 219.851,178.852 218.846,176.088 217.492 C 167.654 213.365,164.036 203.905,166.948 193.592 C 167.620 191.213,173.336 179.666,189.298 148.447 C 192.570 142.047,194.229 138.465,193.988 138.316 C 193.783 138.190,185.590 137.040,175.781 135.762 L 157.947 133.438 138.080 142.229 C 115.825 152.077,116.370 151.864,113.336 151.883 C 103.252 151.944,98.852 140.372,106.404 133.651 C 107.778 132.428,113.638 129.183,130.751 120.170 C 151.542 109.219,154.444 107.833,157.336 107.477 C 157.892 107.408,158.423 107.329,158.516 107.301 C 158.609 107.272,173.634 108.308,191.906 109.602 M266.909 140.913 C 269.898 143.846,274.838 148.682,277.886 151.660 L 283.427 157.075 294.412 150.430 C 300.453 146.774,307.695 142.392,310.505 140.692 C 318.172 136.051,318.919 135.750,322.766 135.750 C 332.473 135.750,336.672 146.449,329.744 153.532 C 328.590 154.713,311.947 166.578,290.556 181.471 C 283.530 186.363,278.767 186.643,272.706 182.520 C 267.811 179.191,250.231 163.822,250.689 163.273 C 258.516 153.897,261.096 148.092,261.159 139.713 C 261.176 137.441,261.254 135.582,261.332 135.582 C 261.410 135.582,263.919 137.981,266.909 140.913 M161.214 212.933 C 161.214 213.784,163.944 217.612,165.842 219.422 C 168.966 222.399,172.481 223.922,183.240 226.959 C 194.225 230.059,193.186 229.458,192.136 232.101 C 191.671 233.274,188.533 241.290,185.164 249.916 C 175.410 274.888,175.236 275.311,173.895 277.331 C 173.193 278.388,171.457 280.279,170.036 281.532 C 168.616 282.786,164.338 286.695,160.530 290.219 C 156.723 293.744,147.920 301.875,140.969 308.289 C 134.018 314.703,124.994 323.038,120.917 326.812 C 116.839 330.586,112.597 334.260,111.489 334.976 C 99.446 342.760,86.096 330.444,93.165 318.072 C 94.197 316.266,96.272 314.052,112.309 297.639 C 126.062 283.565,142.275 266.863,143.593 265.413 C 144.949 263.920,145.120 263.441,149.911 247.707 C 159.697 215.569,160.665 212.479,160.937 212.479 C 161.090 212.479,161.214 212.683,161.214 212.933 " stroke="none" fill="#1c697d" fill-rule="evenodd"></path></g></svg>