<svg id="svg" version="1.1" xmlns="http://www.w3.org/2000/svg" xmlns:xlink="http://www.w3.org/1999/xlink" width="400" height="400" viewBox="0, 0, 400,400"><g id="svgg"><path id="path1" d="M178.304 0.727 C 131.953 6.317,90.756 26.093,58.478 58.248 C 45.138 71.537,31.212 90.084,24.364 103.682 C 23.122 106.149,22.818 106.530,22.580 105.925 C 22.345 105.328,22.289 105.405,22.268 106.354 C 22.253 107.023,21.086 109.839,19.508 113.012 C 18.004 116.036,16.773 118.644,16.773 118.807 C 16.773 118.970,16.106 120.651,15.290 122.542 C 13.238 127.297,9.695 136.762,8.816 139.836 C 1.782 164.431,-0.000 176.593,-0.000 200.000 C -0.000 223.407,1.782 235.569,8.816 260.164 C 9.695 263.238,13.238 272.703,15.290 277.458 C 16.106 279.349,16.773 281.030,16.773 281.193 C 16.773 281.356,18.004 283.964,19.508 286.988 C 21.955 291.909,22.249 292.724,22.300 294.740 L 22.357 296.992 22.578 295.169 L 22.800 293.345 24.330 296.318 C 26.284 300.112,28.989 304.569,33.067 310.713 C 82.775 385.607,176.757 418.329,262.170 390.481 C 317.062 372.583,363.200 330.049,384.742 277.484 C 386.175 273.988,386.331 273.750,386.549 274.749 C 386.744 275.644,386.795 275.507,386.830 273.999 C 386.858 272.814,387.375 270.860,388.279 268.530 C 400.789 236.256,403.673 193.592,395.770 157.703 C 393.441 147.128,391.330 139.650,388.659 132.513 C 387.407 129.169,386.859 127.152,386.825 125.768 C 386.783 124.044,386.748 123.955,386.547 125.068 C 386.330 126.271,383.971 121.878,383.414 119.234 C 383.093 117.711,375.657 103.358,372.079 97.356 C 357.359 72.662,330.590 44.580,310.699 32.963 C 309.979 32.543,307.026 30.707,304.137 28.884 C 294.020 22.501,278.495 15.239,263.810 10.024 C 255.155 6.950,236.966 2.794,224.430 1.026 C 216.394 -0.107,186.812 -0.299,178.304 0.727 M224.852 54.706 C 247.443 60.740,253.589 89.277,235.418 103.767 C 217.081 118.388,190.155 105.356,190.155 81.860 C 190.155 63.570,207.428 50.052,224.852 54.706 M204.277 116.647 C 224.602 120.728,227.175 122.832,230.853 138.377 C 234.307 152.971,242.089 172.805,246.032 177.065 C 247.686 178.851,248.015 179.003,264.540 185.610 C 283.672 193.260,286.334 194.495,288.301 196.628 C 294.975 203.868,289.688 215.325,279.679 215.310 C 277.137 215.307,241.723 201.836,233.966 197.922 C 230.602 196.225,227.696 192.512,224.104 185.324 C 222.976 183.067,221.849 181.222,221.597 181.222 C 221.285 181.222,219.829 187.822,216.993 202.097 C 214.467 214.809,212.650 223.130,212.348 223.377 C 211.471 224.091,210.699 222.917,221.908 237.922 C 233.015 252.790,237.914 260.564,240.839 267.963 C 242.630 272.494,255.242 329.493,255.242 333.057 C 255.242 346.266,238.820 352.826,229.541 343.322 C 226.072 339.769,225.913 339.255,220.076 312.853 C 212.059 276.590,212.780 278.157,188.128 243.391 C 163.538 208.714,162.869 206.975,166.920 188.332 C 169.004 178.746,173.564 155.256,173.564 154.110 C 173.564 152.924,172.667 153.618,164.323 161.258 C 159.668 165.520,154.901 169.874,153.730 170.934 L 151.599 172.861 150.204 195.364 C 148.675 220.039,148.713 219.661,147.494 222.040 C 142.866 231.073,130.118 230.299,126.553 220.769 C 125.627 218.295,125.626 217.981,126.515 203.795 C 126.910 197.496,127.569 186.909,127.979 180.267 C 129.141 161.456,128.048 163.429,146.764 146.383 C 164.116 130.579,171.939 123.415,175.409 120.147 C 183.059 112.943,184.788 112.734,204.277 116.647 M171.815 243.756 C 178.119 253.582,183.379 261.795,183.503 262.006 C 183.760 262.445,181.911 273.660,181.047 276.900 C 179.330 283.340,179.571 282.937,147.775 332.459 C 144.410 337.700,142.212 339.992,139.177 341.428 C 126.243 347.546,112.951 333.510,119.518 320.667 C 119.935 319.850,122.482 315.742,125.177 311.537 C 154.375 265.982,153.222 268.606,157.901 237.010 C 159.555 225.837,159.684 225.161,160.077 225.589 C 160.228 225.754,165.511 233.929,171.815 243.756 " stroke="none" fill="#d32424" fill-rule="evenodd"></path><path id="path0" d="M214.459 53.976 C 195.197 56.616,184.331 77.565,193.284 94.804 C 204.316 116.048,235.232 114.414,244.094 92.119 C 251.869 72.556,235.223 51.131,214.459 53.976 M185.131 114.314 C 181.506 115.231,179.092 116.678,175.409 120.147 C 171.939 123.415,164.116 130.579,146.764 146.383 C 128.048 163.429,129.141 161.456,127.979 180.267 C 127.569 186.909,126.910 197.496,126.515 203.795 C 125.626 217.981,125.627 218.295,126.553 220.769 C 130.118 230.299,142.866 231.073,147.494 222.040 C 148.713 219.661,148.675 220.039,150.204 195.364 L 151.599 172.861 153.730 170.934 C 154.901 169.874,159.668 165.520,164.323 161.258 C 172.667 153.618,173.564 152.924,173.564 154.110 C 173.564 155.256,169.004 178.746,166.920 188.332 C 162.869 206.975,163.538 208.714,188.128 243.391 C 212.780 278.157,212.059 276.590,220.076 312.853 C 225.913 339.255,226.072 339.769,229.541 343.322 C 238.820 352.826,255.242 346.266,255.242 333.057 C 255.242 329.493,242.630 272.494,240.839 267.963 C 237.914 260.564,233.015 252.790,221.908 237.922 C 210.699 222.917,211.471 224.091,212.348 223.377 C 212.650 223.130,214.467 214.809,216.993 202.097 C 219.829 187.822,221.285 181.222,221.597 181.222 C 221.849 181.222,222.976 183.067,224.104 185.324 C 227.696 192.512,230.602 196.225,233.966 197.922 C 241.723 201.836,277.137 215.307,279.679 215.310 C 289.688 215.325,294.975 203.868,288.301 196.628 C 286.334 194.495,283.672 193.260,264.540 185.610 C 248.015 179.003,247.686 178.851,246.032 177.065 C 242.089 172.805,234.307 152.971,230.853 138.377 C 227.175 122.832,224.602 120.728,204.277 116.647 C 190.020 113.784,188.133 113.554,185.131 114.314 M159.593 226.136 C 159.479 226.601,158.718 231.495,157.901 237.010 C 153.222 268.606,154.375 265.982,125.177 311.537 C 122.482 315.742,119.935 319.850,119.518 320.667 C 112.951 333.510,126.243 347.546,139.177 341.428 C 142.212 339.992,144.410 337.700,147.775 332.459 C 179.571 282.937,179.330 283.340,181.047 276.900 C 181.911 273.660,183.760 262.445,183.503 262.006 C 182.787 260.788,160.305 225.837,160.077 225.589 C 159.925 225.424,159.707 225.670,159.593 226.136 " stroke="none" fill="#ffffff" fill-rule="evenodd"></path><path id="path1" d="M178.304 0.727 C 131.953 6.317,90.756 26.093,58.478 58.248 C 45.138 71.537,31.212 90.084,24.364 103.682 C 23.122 106.149,22.818 106.530,22.580 105.925 C 22.345 105.328,22.289 105.405,22.268 106.354 C 22.253 107.023,21.086 109.839,19.508 113.012 C 18.004 116.036,16.773 118.644,16.773 118.807 C 16.773 118.970,16.106 120.651,15.290 122.542 C 13.238 127.297,9.695 136.762,8.816 139.836 C 1.782 164.431,-0.000 176.593,-0.000 200.000 C -0.000 223.407,1.782 235.569,8.816 260.164 C 9.695 263.238,13.238 272.703,15.290 277.458 C 16.106 279.349,16.773 281.030,16.773 281.193 C 16.773 281.356,18.004 283.964,19.508 286.988 C 21.955 291.909,22.249 292.724,22.300 294.740 L 22.357 296.992 22.578 295.169 L 22.800 293.345 24.330 296.318 C 26.284 300.112,28.989 304.569,33.067 310.713 C 82.775 385.607,176.757 418.329,262.170 390.481 C 317.062 372.583,363.200 330.049,384.742 277.484 C 386.175 273.988,386.331 273.750,386.549 274.749 C 386.744 275.644,386.795 275.507,386.830 273.999 C 386.858 272.814,387.375 270.860,388.279 268.530 C 400.789 236.256,403.673 193.592,395.770 157.703 C 393.441 147.128,391.330 139.650,388.659 132.513 C 387.407 129.169,386.859 127.152,386.825 125.768 C 386.783 124.044,386.748 123.955,386.547 125.068 C 386.330 126.271,383.971 121.878,383.414 119.234 C 383.093 117.711,375.657 103.358,372.079 97.356 C 357.359 72.662,330.590 44.580,310.699 32.963 C 309.979 32.543,307.026 30.707,304.137 28.884 C 294.020 22.501,278.495 15.239,263.810 10.024 C 255.155 6.950,236.966 2.794,224.430 1.026 C 216.394 -0.107,186.812 -0.299,178.304 0.727 M224.852 54.706 C 247.443 60.740,253.589 89.277,235.418 103.767 C 217.081 118.388,190.155 105.356,190.155 81.860 C 190.155 63.570,207.428 50.052,224.852 54.706 M204.277 116.647 C 224.602 120.728,227.175 122.832,230.853 138.377 C 234.307 152.971,242.089 172.805,246.032 177.065 C 247.686 178.851,248.015 179.003,264.540 185.610 C 283.672 193.260,286.334 194.495,288.301 196.628 C 294.975 203.868,289.688 215.325,279.679 215.310 C 277.137 215.307,241.723 201.836,233.966 197.922 C 230.602 196.225,227.696 192.512,224.104 185.324 C 222.976 183.067,221.849 181.222,221.597 181.222 C 221.285 181.222,219.829 187.822,216.993 202.097 C 214.467 214.809,212.650 223.130,212.348 223.377 C 211.471 224.091,210.699 222.917,221.908 237.922 C 233.015 252.790,237.914 260.564,240.839 267.963 C 242.630 272.494,255.242 329.493,255.242 333.057 C 255.242 346.266,238.820 352.826,229.541 343.322 C 226.072 339.769,225.913 339.255,220.076 312.853 C 212.059 276.590,212.780 278.157,188.128 243.391 C 163.538 208.714,162.869 206.975,166.920 188.332 C 169.004 178.746,173.564 155.256,173.564 154.110 C 173.564 152.924,172.667 153.618,164.323 161.258 C 159.668 165.520,154.901 169.874,153.730 170.934 L 151.599 172.861 150.204 195.364 C 148.675 220.039,148.713 219.661,147.494 222.040 C 142.866 231.073,130.118 230.299,126.553 220.769 C 125.627 218.295,125.626 217.981,126.515 203.795 C 126.910 197.496,127.569 186.909,127.979 180.267 C 129.141 161.456,128.048 163.429,146.764 146.383 C 164.116 130.579,171.939 123.415,175.409 120.147 C 183.059 112.943,184.788 112.734,204.277 116.647 M171.815 243.756 C 178.119 253.582,183.379 261.795,183.503 262.006 C 183.760 262.445,181.911 273.660,181.047 276.900 C 179.330 283.340,179.571 282.937,147.775 332.459 C 144.410 337.700,142.212 339.992,139.177 341.428 C 126.243 347.546,112.951 333.510,119.518 320.667 C 119.935 319.850,122.482 315.742,125.177 311.537 C 154.375 265.982,153.222 268.606,157.901 237.010 C 159.555 225.837,159.684 225.161,160.077 225.589 C 160.228 225.754,165.511 233.929,171.815 243.756 " stroke="none" fill="#d32424" fill-rule="evenodd"></path></g></svg>